<?plantuml 1.2026.2beta3?><svg xmlns="http://www.w3.org/2000/svg" xmlns:xlink="http://www.w3.org/1999/xlink" contentStyleType="text/css" data-diagram-type="SEQUENCE" height="399px" preserveAspectRatio="none" style="width:677px;height:399px;background:#FFFFFF;" version="1.1" viewBox="0 0 677 399" width="677px" zoomAndPan="magnify"><defs/><g><g class="participant-lifeline" data-entity-uid="part1" data-qualified-name="Admin" id="part1-lifeline"><g><title>Administrador</title><rect fill="#000000" fill-opacity="0.00000" height="236.9297" width="8" x="53.54" y="81.2969"/><line style="stroke:#181818;stroke-width:0.5;stroke-dasharray:5,5;" x1="57" x2="57" y1="81.2969" y2="318.2266"/></g></g><g class="participant-lifeline" data-entity-uid="part2" data-qualified-name="UI" id="part2-lifeline"><g><title>UI Planificaci.n</title><rect fill="#000000" fill-opacity="0.00000" height="236.9297" width="8" x="200.8242" y="81.2969"/><line style="stroke:#181818;stroke-width:0.5;stroke-dasharray:5,5;" x1="204.0815" x2="204.0815" y1="81.2969" y2="318.2266"/></g></g><g class="participant-lifeline" data-entity-uid="part3" data-qualified-name="LT" id="part3-lifeline"><g><title>LoteTarea</title><rect fill="#000000" fill-opacity="0.00000" height="236.9297" width="8" x="326.9556" y="81.2969"/><line style="stroke:#181818;stroke-width:0.5;stroke-dasharray:5,5;" x1="330.6821" x2="330.6821" y1="81.2969" y2="318.2266"/></g></g><g class="participant-lifeline" data-entity-uid="part4" data-qualified-name="Job" id="part4-lifeline"><g><title>GenerateAllocationProposals</title><rect fill="#000000" fill-opacity="0.00000" height="236.9297" width="8" x="487.0659" y="81.2969"/><line style="stroke:#181818;stroke-width:0.5;stroke-dasharray:5,5;" x1="490.229" x2="490.229" y1="81.2969" y2="318.2266"/></g></g><g class="participant-lifeline" data-entity-uid="part5" data-qualified-name="DB" id="part5-lifeline"><g><title>DB</title><rect fill="#000000" fill-opacity="0.00000" height="236.9297" width="8" x="638.9902" y="81.2969"/><line style="stroke:#181818;stroke-width:0.5;stroke-dasharray:5,5;" x1="642.9902" x2="642.9902" y1="81.2969" y2="318.2266"/></g></g><g class="participant participant-head" data-entity-uid="part1" data-qualified-name="Admin" id="part1-head"><text fill="#000000" font-family="sans-serif" font-size="14" lengthAdjust="spacing" textLength="99.0801" x="5" y="77.9951">Administrador</text><ellipse cx="57.54" cy="13.5" fill="#E2E2F0" rx="8" ry="8" style="stroke:#181818;stroke-width:0.5;"/><path d="M57.54,21.5 L57.54,48.5 M44.54,29.5 L70.54,29.5 M57.54,48.5 L44.54,63.5 M57.54,48.5 L70.54,63.5" fill="none" style="stroke:#181818;stroke-width:0.5;"/></g><g class="participant participant-tail" data-entity-uid="part1" data-qualified-name="Admin" id="part1-tail"><text fill="#000000" font-family="sans-serif" font-size="14" lengthAdjust="spacing" textLength="99.0801" x="5" y="330.2217">Administrador</text><ellipse cx="57.54" cy="342.0234" fill="#E2E2F0" rx="8" ry="8" style="stroke:#181818;stroke-width:0.5;"/><path d="M57.54,350.0234 L57.54,377.0234 M44.54,358.0234 L70.54,358.0234 M57.54,377.0234 L44.54,392.0234 M57.54,377.0234 L70.54,392.0234" fill="none" style="stroke:#181818;stroke-width:0.5;"/></g><g class="participant participant-head" data-entity-uid="part2" data-qualified-name="UI" id="part2-head"><rect fill="#E2E2F0" height="30.2969" rx="2.5" ry="2.5" style="stroke:#181818;stroke-width:0.5;" width="119.4854" x="145.0815" y="50"/><text fill="#000000" font-family="sans-serif" font-size="14" lengthAdjust="spacing" textLength="105.4854" x="152.0815" y="69.9951">UI Planificaci?n</text></g><g class="participant participant-tail" data-entity-uid="part2" data-qualified-name="UI" id="part2-tail"><rect fill="#E2E2F0" height="30.2969" rx="2.5" ry="2.5" style="stroke:#181818;stroke-width:0.5;" width="119.4854" x="145.0815" y="317.2266"/><text fill="#000000" font-family="sans-serif" font-size="14" lengthAdjust="spacing" textLength="105.4854" x="152.0815" y="337.2217">UI Planificaci?n</text></g><g class="participant participant-head" data-entity-uid="part3" data-qualified-name="LT" id="part3-head"><rect fill="#E2E2F0" height="30.2969" rx="2.5" ry="2.5" style="stroke:#181818;stroke-width:0.5;" width="84.5469" x="288.6821" y="50"/><text fill="#000000" font-family="sans-serif" font-size="14" lengthAdjust="spacing" textLength="70.5469" x="295.6821" y="69.9951">LoteTarea</text></g><g class="participant participant-tail" data-entity-uid="part3" data-qualified-name="LT" id="part3-tail"><rect fill="#E2E2F0" height="30.2969" rx="2.5" ry="2.5" style="stroke:#181818;stroke-width:0.5;" width="84.5469" x="288.6821" y="317.2266"/><text fill="#000000" font-family="sans-serif" font-size="14" lengthAdjust="spacing" textLength="70.5469" x="295.6821" y="337.2217">LoteTarea</text></g><g class="participant participant-head" data-entity-uid="part4" data-qualified-name="Job" id="part4-head"><rect fill="#E2E2F0" height="30.2969" rx="2.5" ry="2.5" style="stroke:#181818;stroke-width:0.5;" width="215.6738" x="383.229" y="50"/><text fill="#000000" font-family="sans-serif" font-size="14" lengthAdjust="spacing" textLength="201.6738" x="390.229" y="69.9951">GenerateAllocationProposals</text></g><g class="participant participant-tail" data-entity-uid="part4" data-qualified-name="Job" id="part4-tail"><rect fill="#E2E2F0" height="30.2969" rx="2.5" ry="2.5" style="stroke:#181818;stroke-width:0.5;" width="215.6738" x="383.229" y="317.2266"/><text fill="#000000" font-family="sans-serif" font-size="14" lengthAdjust="spacing" textLength="201.6738" x="390.229" y="337.2217">GenerateAllocationProposals</text></g><g class="participant participant-head" data-entity-uid="part5" data-qualified-name="DB" id="part5-head"><text fill="#000000" font-family="sans-serif" font-size="14" lengthAdjust="spacing" textLength="20.3848" x="629.7979" y="77.9951">DB</text><path d="M624.9902,29 C624.9902,19 642.9902,19 642.9902,19 C642.9902,19 660.9902,19 660.9902,29 L660.9902,55 C660.9902,65 642.9902,65 642.9902,65 C642.9902,65 624.9902,65 624.9902,55 L624.9902,29" fill="#E2E2F0" style="stroke:#181818;stroke-width:0.5;"/><path d="M624.9902,29 C624.9902,39 642.9902,39 642.9902,39 C642.9902,39 660.9902,39 660.9902,29" fill="none" style="stroke:#181818;stroke-width:0.5;"/></g><g class="participant participant-tail" data-entity-uid="part5" data-qualified-name="DB" id="part5-tail"><text fill="#000000" font-family="sans-serif" font-size="14" lengthAdjust="spacing" textLength="20.3848" x="629.7979" y="330.2217">DB</text><path d="M624.9902,343.5234 C624.9902,333.5234 642.9902,333.5234 642.9902,333.5234 C642.9902,333.5234 660.9902,333.5234 660.9902,343.5234 L660.9902,369.5234 C660.9902,379.5234 642.9902,379.5234 642.9902,379.5234 C642.9902,379.5234 624.9902,379.5234 624.9902,369.5234 L624.9902,343.5234" fill="#E2E2F0" style="stroke:#181818;stroke-width:0.5;"/><path d="M624.9902,343.5234 C624.9902,353.5234 642.9902,353.5234 642.9902,353.5234 C642.9902,353.5234 660.9902,353.5234 660.9902,343.5234" fill="none" style="stroke:#181818;stroke-width:0.5;"/></g><g class="message" data-entity-1="part1" data-entity-2="part2" id="msg1"><polygon fill="#181818" points="192.8242,108.4297,202.8242,112.4297,192.8242,116.4297,196.8242,112.4297" style="stroke:#181818;stroke-width:1;"/><line style="stroke:#181818;stroke-width:1;" x1="57.54" x2="198.8242" y1="112.4297" y2="112.4297"/><text fill="#000000" font-family="sans-serif" font-size="13" lengthAdjust="spacing" textLength="123.2842" x="64.54" y="107.3638">editar planificaci?n</text></g><g class="message" data-entity-1="part2" data-entity-2="part2" id="msg2"><line style="stroke:#181818;stroke-width:1;" x1="204.8242" x2="246.8242" y1="141.5625" y2="141.5625"/><line style="stroke:#181818;stroke-width:1;" x1="246.8242" x2="246.8242" y1="141.5625" y2="154.5625"/><line style="stroke:#181818;stroke-width:1;" x1="205.8242" x2="246.8242" y1="154.5625" y2="154.5625"/><polygon fill="#181818" points="215.8242,150.5625,205.8242,154.5625,215.8242,158.5625,211.8242,154.5625" style="stroke:#181818;stroke-width:1;"/><text fill="#000000" font-family="sans-serif" font-size="13" lengthAdjust="spacing" textLength="112.1313" x="211.8242" y="136.4966">validar superficie</text></g><g class="message" data-entity-1="part2" data-entity-2="part3" id="msg3"><polygon fill="#181818" points="318.9556,179.6953,328.9556,183.6953,318.9556,187.6953,322.9556,183.6953" style="stroke:#181818;stroke-width:1;"/><line style="stroke:#181818;stroke-width:1;" x1="204.8242" x2="324.9556" y1="183.6953" y2="183.6953"/><text fill="#000000" font-family="sans-serif" font-size="13" lengthAdjust="spacing" textLength="96.6431" x="211.8242" y="178.6294">guardar tareas</text></g><g class="message" data-entity-1="part3" data-entity-2="part5" id="msg4"><polygon fill="#181818" points="630.9902,208.8281,640.9902,212.8281,630.9902,216.8281,634.9902,212.8281" style="stroke:#181818;stroke-width:1;"/><line style="stroke:#181818;stroke-width:1;" x1="330.9556" x2="636.9902" y1="212.8281" y2="212.8281"/><text fill="#000000" font-family="sans-serif" font-size="13" lengthAdjust="spacing" textLength="163.687" x="337.9556" y="207.7622">insert/update lote_tareas</text></g><g class="message" data-entity-1="part2" data-entity-2="part4" id="msg5"><polygon fill="#181818" points="479.0659,237.9609,489.0659,241.9609,479.0659,245.9609,483.0659,241.9609" style="stroke:#181818;stroke-width:1;"/><line style="stroke:#181818;stroke-width:1;" x1="204.8242" x2="485.0659" y1="241.9609" y2="241.9609"/><text fill="#000000" font-family="sans-serif" font-size="13" lengthAdjust="spacing" textLength="65.4824" x="211.8242" y="236.895">dispatch()</text></g><g class="message" data-entity-1="part4" data-entity-2="part5" id="msg6"><polygon fill="#181818" points="630.9902,267.0938,640.9902,271.0938,630.9902,275.0938,634.9902,271.0938" style="stroke:#181818;stroke-width:1;"/><line style="stroke:#181818;stroke-width:1;" x1="491.0659" x2="636.9902" y1="271.0938" y2="271.0938"/><text fill="#000000" font-family="sans-serif" font-size="13" lengthAdjust="spacing" textLength="127.9243" x="498.0659" y="266.0278">generar propuestas</text></g><g class="message" data-entity-1="part2" data-entity-2="part1" id="msg7"><polygon fill="#181818" points="68.54,296.2266,58.54,300.2266,68.54,304.2266,64.54,300.2266" style="stroke:#181818;stroke-width:1;"/><line style="stroke:#181818;stroke-width:1;stroke-dasharray:2,2;" x1="62.54" x2="203.8242" y1="300.2266" y2="300.2266"/><text fill="#000000" font-family="sans-serif" font-size="13" lengthAdjust="spacing" textLength="83.4019" x="74.54" y="295.1606">confirmaci?n</text></g><?plantuml-src LOynRiCm34LtdOBmr0v5TmyjOXWeKdZ8uCm18p4f0KKIABhd3wsuG3EIxnDy7xrcWLsuSUAgWi4ch8-5AoZAdWicXUwuXqF4n1VswFapTMlkk7yEJLbfHY5iT9gVwHSb4bJQnPWzAkTqa5nonLXR_ZkVNK35CrQ2RXpQSXoSQphmzc7_Ug30YWBblumpkmt_OkHWl2w5n3ZJ1gUvX-k2ia9T7QkRvXMCGm-SAec-ByN-4qIhSTeoZsDJwo5mBQZ-v-NLsVntUcsjJCYwB5Hrkp7Qj7lmELrORatq3W00?></g></svg>