<?plantuml 1.2026.2beta3?><svg xmlns="http://www.w3.org/2000/svg" xmlns:xlink="http://www.w3.org/1999/xlink" contentStyleType="text/css" data-diagram-type="SEQUENCE" height="577px" preserveAspectRatio="none" style="width:948px;height:577px;background:#FFFFFF;" version="1.1" viewBox="0 0 948 577" width="948px" zoomAndPan="magnify"><defs/><g><rect fill="none" height="75.3984" style="stroke:#000000;stroke-width:1.5;" width="809.9043" x="131.1147" y="227.8281"/><rect fill="none" height="75.3984" style="stroke:#000000;stroke-width:1.5;" width="809.9043" x="131.1147" y="317.2266"/><g class="participant-lifeline" data-entity-uid="part1" data-qualified-name="Usuario" id="part1-lifeline"><g><title>Usuario</title><rect fill="#000000" fill-opacity="0.00000" height="415.7266" width="8" x="30.6021" y="81.2969"/><line style="stroke:#181818;stroke-width:0.5;stroke-dasharray:5,5;" x1="34" x2="34" y1="81.2969" y2="497.0234"/></g></g><g class="participant-lifeline" data-entity-uid="part2" data-qualified-name="UI" id="part2-lifeline"><g><title>UI.Livewire PartesDiarios</title><rect fill="#000000" fill-opacity="0.00000" height="415.7266" width="8" x="231.4985" y="81.2969"/><line style="stroke:#181818;stroke-width:0.5;stroke-dasharray:5,5;" x1="235.1147" x2="235.1147" y1="81.2969" y2="497.0234"/></g></g><g class="participant-lifeline" data-entity-uid="part3" data-qualified-name="PD" id="part3-lifeline"><g><title>ParteDiario</title><rect fill="#000000" fill-opacity="0.00000" height="415.7266" width="8" x="421.4326" y="81.2969"/><line style="stroke:#181818;stroke-width:0.5;stroke-dasharray:5,5;" x1="425.2627" x2="425.2627" y1="81.2969" y2="497.0234"/></g></g><g class="participant-lifeline" data-entity-uid="part4" data-qualified-name="C" id="part4-lifeline"><g><title>Carga</title><rect fill="#000000" fill-opacity="0.00000" height="415.7266" width="8" x="505.3906" y="81.2969"/><line style="stroke:#181818;stroke-width:0.5;stroke-dasharray:5,5;" x1="508.6025" x2="508.6025" y1="81.2969" y2="497.0234"/></g></g><g class="participant-lifeline" data-entity-uid="part5" data-qualified-name="MS" id="part5-lifeline"><g><title>MovimientoStock</title><rect fill="#000000" fill-opacity="0.00000" height="415.7266" width="8" x="610.4956" y="81.2969"/><line style="stroke:#181818;stroke-width:0.5;stroke-dasharray:5,5;" x1="614.1787" x2="614.1787" y1="81.2969" y2="497.0234"/></g></g><g class="participant-lifeline" data-entity-uid="part6" data-qualified-name="DB" id="part6-lifeline"><g><title>DB</title><rect fill="#000000" fill-opacity="0.00000" height="415.7266" width="8" x="909.019" y="81.2969"/><line style="stroke:#181818;stroke-width:0.5;stroke-dasharray:5,5;" x1="913.019" x2="913.019" y1="81.2969" y2="497.0234"/></g></g><g class="participant participant-head" data-entity-uid="part1" data-qualified-name="Usuario" id="part1-head"><text fill="#000000" font-family="sans-serif" font-size="14" lengthAdjust="spacing" textLength="53.2041" x="5" y="77.9951">Usuario</text><ellipse cx="34.6021" cy="13.5" fill="#E2E2F0" rx="8" ry="8" style="stroke:#181818;stroke-width:0.5;"/><path d="M34.6021,21.5 L34.6021,48.5 M21.6021,29.5 L47.6021,29.5 M34.6021,48.5 L21.6021,63.5 M34.6021,48.5 L47.6021,63.5" fill="none" style="stroke:#181818;stroke-width:0.5;"/></g><g class="participant participant-tail" data-entity-uid="part1" data-qualified-name="Usuario" id="part1-tail"><text fill="#000000" font-family="sans-serif" font-size="14" lengthAdjust="spacing" textLength="53.2041" x="5" y="509.0186">Usuario</text><ellipse cx="34.6021" cy="520.8203" fill="#E2E2F0" rx="8" ry="8" style="stroke:#181818;stroke-width:0.5;"/><path d="M34.6021,528.8203 L34.6021,555.8203 M21.6021,536.8203 L47.6021,536.8203 M34.6021,555.8203 L21.6021,570.8203 M34.6021,555.8203 L47.6021,570.8203" fill="none" style="stroke:#181818;stroke-width:0.5;"/></g><g class="participant participant-head" data-entity-uid="part2" data-qualified-name="UI" id="part2-head"><rect fill="#E2E2F0" height="30.2969" rx="2.5" ry="2.5" style="stroke:#181818;stroke-width:0.5;" width="188.7676" x="141.1147" y="50"/><text fill="#000000" font-family="sans-serif" font-size="14" lengthAdjust="spacing" textLength="174.7676" x="148.1147" y="69.9951">UI/Livewire PartesDiarios</text></g><g class="participant participant-tail" data-entity-uid="part2" data-qualified-name="UI" id="part2-tail"><rect fill="#E2E2F0" height="30.2969" rx="2.5" ry="2.5" style="stroke:#181818;stroke-width:0.5;" width="188.7676" x="141.1147" y="496.0234"/><text fill="#000000" font-family="sans-serif" font-size="14" lengthAdjust="spacing" textLength="174.7676" x="148.1147" y="516.0186">UI/Livewire PartesDiarios</text></g><g class="participant participant-head" data-entity-uid="part3" data-qualified-name="PD" id="part3-head"><rect fill="#E2E2F0" height="30.2969" rx="2.5" ry="2.5" style="stroke:#181818;stroke-width:0.5;" width="92.3398" x="379.2627" y="50"/><text fill="#000000" font-family="sans-serif" font-size="14" lengthAdjust="spacing" textLength="78.3398" x="386.2627" y="69.9951">ParteDiario</text></g><g class="participant participant-tail" data-entity-uid="part3" data-qualified-name="PD" id="part3-tail"><rect fill="#E2E2F0" height="30.2969" rx="2.5" ry="2.5" style="stroke:#181818;stroke-width:0.5;" width="92.3398" x="379.2627" y="496.0234"/><text fill="#000000" font-family="sans-serif" font-size="14" lengthAdjust="spacing" textLength="78.3398" x="386.2627" y="516.0186">ParteDiario</text></g><g class="participant participant-head" data-entity-uid="part4" data-qualified-name="C" id="part4-head"><rect fill="#E2E2F0" height="30.2969" rx="2.5" ry="2.5" style="stroke:#181818;stroke-width:0.5;" width="55.5762" x="481.6025" y="50"/><text fill="#000000" font-family="sans-serif" font-size="14" lengthAdjust="spacing" textLength="41.5762" x="488.6025" y="69.9951">Carga</text></g><g class="participant participant-tail" data-entity-uid="part4" data-qualified-name="C" id="part4-tail"><rect fill="#E2E2F0" height="30.2969" rx="2.5" ry="2.5" style="stroke:#181818;stroke-width:0.5;" width="55.5762" x="481.6025" y="496.0234"/><text fill="#000000" font-family="sans-serif" font-size="14" lengthAdjust="spacing" textLength="41.5762" x="488.6025" y="516.0186">Carga</text></g><g class="participant participant-head" data-entity-uid="part5" data-qualified-name="MS" id="part5-head"><rect fill="#E2E2F0" height="30.2969" rx="2.5" ry="2.5" style="stroke:#181818;stroke-width:0.5;" width="134.6338" x="547.1787" y="50"/><text fill="#000000" font-family="sans-serif" font-size="14" lengthAdjust="spacing" textLength="120.6338" x="554.1787" y="69.9951">MovimientoStock</text></g><g class="participant participant-tail" data-entity-uid="part5" data-qualified-name="MS" id="part5-tail"><rect fill="#E2E2F0" height="30.2969" rx="2.5" ry="2.5" style="stroke:#181818;stroke-width:0.5;" width="134.6338" x="547.1787" y="496.0234"/><text fill="#000000" font-family="sans-serif" font-size="14" lengthAdjust="spacing" textLength="120.6338" x="554.1787" y="516.0186">MovimientoStock</text></g><g class="participant participant-head" data-entity-uid="part6" data-qualified-name="DB" id="part6-head"><text fill="#000000" font-family="sans-serif" font-size="14" lengthAdjust="spacing" textLength="20.3848" x="899.8267" y="77.9951">DB</text><path d="M895.019,29 C895.019,19 913.019,19 913.019,19 C913.019,19 931.019,19 931.019,29 L931.019,55 C931.019,65 913.019,65 913.019,65 C913.019,65 895.019,65 895.019,55 L895.019,29" fill="#E2E2F0" style="stroke:#181818;stroke-width:0.5;"/><path d="M895.019,29 C895.019,39 913.019,39 913.019,39 C913.019,39 931.019,39 931.019,29" fill="none" style="stroke:#181818;stroke-width:0.5;"/></g><g class="participant participant-tail" data-entity-uid="part6" data-qualified-name="DB" id="part6-tail"><text fill="#000000" font-family="sans-serif" font-size="14" lengthAdjust="spacing" textLength="20.3848" x="899.8267" y="509.0186">DB</text><path d="M895.019,522.3203 C895.019,512.3203 913.019,512.3203 913.019,512.3203 C913.019,512.3203 931.019,512.3203 931.019,522.3203 L931.019,548.3203 C931.019,558.3203 913.019,558.3203 913.019,558.3203 C913.019,558.3203 895.019,558.3203 895.019,548.3203 L895.019,522.3203" fill="#E2E2F0" style="stroke:#181818;stroke-width:0.5;"/><path d="M895.019,522.3203 C895.019,532.3203 913.019,532.3203 913.019,532.3203 C913.019,532.3203 931.019,532.3203 931.019,522.3203" fill="none" style="stroke:#181818;stroke-width:0.5;"/></g><g class="message" data-entity-1="part1" data-entity-2="part2" id="msg1"><polygon fill="#181818" points="223.4985,108.4297,233.4985,112.4297,223.4985,116.4297,227.4985,112.4297" style="stroke:#181818;stroke-width:1;"/><line style="stroke:#181818;stroke-width:1;" x1="34.6021" x2="229.4985" y1="112.4297" y2="112.4297"/><text fill="#000000" font-family="sans-serif" font-size="13" lengthAdjust="spacing" textLength="176.8965" x="41.6021" y="107.3638">carga datos de parte diario</text></g><g class="message" data-entity-1="part2" data-entity-2="part2" id="msg2"><line style="stroke:#181818;stroke-width:1;" x1="235.4985" x2="277.4985" y1="141.5625" y2="141.5625"/><line style="stroke:#181818;stroke-width:1;" x1="277.4985" x2="277.4985" y1="141.5625" y2="154.5625"/><line style="stroke:#181818;stroke-width:1;" x1="236.4985" x2="277.4985" y1="154.5625" y2="154.5625"/><polygon fill="#181818" points="246.4985,150.5625,236.4985,154.5625,246.4985,158.5625,242.4985,154.5625" style="stroke:#181818;stroke-width:1;"/><text fill="#000000" font-family="sans-serif" font-size="13" lengthAdjust="spacing" textLength="88.5244" x="242.4985" y="136.4966">validar reglas</text></g><g class="message" data-entity-1="part2" data-entity-2="part3" id="msg3"><polygon fill="#181818" points="413.4326,179.6953,423.4326,183.6953,413.4326,187.6953,417.4326,183.6953" style="stroke:#181818;stroke-width:1;"/><line style="stroke:#181818;stroke-width:1;" x1="235.4985" x2="419.4326" y1="183.6953" y2="183.6953"/><text fill="#000000" font-family="sans-serif" font-size="13" lengthAdjust="spacing" textLength="113.4644" x="242.4985" y="178.6294">crear parte diario</text></g><g class="message" data-entity-1="part3" data-entity-2="part6" id="msg4"><polygon fill="#181818" points="901.019,208.8281,911.019,212.8281,901.019,216.8281,905.019,212.8281" style="stroke:#181818;stroke-width:1;"/><line style="stroke:#181818;stroke-width:1;" x1="425.4326" x2="907.019" y1="212.8281" y2="212.8281"/><text fill="#000000" font-family="sans-serif" font-size="13" lengthAdjust="spacing" textLength="125.8677" x="432.4326" y="207.7622">insert parte_diarios</text></g><path d="M131.1147,227.8281 L195.5576,227.8281 L195.5576,234.9609 L185.5576,244.9609 L131.1147,244.9609 L131.1147,227.8281" fill="#EEEEEE" style="stroke:#000000;stroke-width:1.5;"/><rect fill="none" height="75.3984" style="stroke:#000000;stroke-width:1.5;" width="809.9043" x="131.1147" y="227.8281"/><text fill="#000000" font-family="sans-serif" font-size="13" font-weight="bold" lengthAdjust="spacing" textLength="19.4429" x="146.1147" y="240.895">alt</text><text fill="#000000" font-family="sans-serif" font-size="11" font-weight="bold" lengthAdjust="spacing" textLength="77.0054" x="210.5576" y="240.0386">[con cargas]</text><g class="message" data-entity-1="part2" data-entity-2="part4" id="msg5"><polygon fill="#181818" points="497.3906,262.0938,507.3906,266.0938,497.3906,270.0938,501.3906,266.0938" style="stroke:#181818;stroke-width:1;"/><line style="stroke:#181818;stroke-width:1;" x1="235.4985" x2="503.3906" y1="266.0938" y2="266.0938"/><text fill="#000000" font-family="sans-serif" font-size="13" lengthAdjust="spacing" textLength="180.4829" x="242.4985" y="261.0278">crear cargas y asociaciones</text></g><g class="message" data-entity-1="part4" data-entity-2="part6" id="msg6"><polygon fill="#181818" points="901.019,291.2266,911.019,295.2266,901.019,299.2266,905.019,295.2266" style="stroke:#181818;stroke-width:1;"/><line style="stroke:#181818;stroke-width:1;" x1="509.3906" x2="907.019" y1="295.2266" y2="295.2266"/><text fill="#000000" font-family="sans-serif" font-size="13" lengthAdjust="spacing" textLength="147.9829" x="516.3906" y="290.1606">insert cargas y pivotes</text></g><path d="M131.1147,317.2266 L195.5576,317.2266 L195.5576,324.3594 L185.5576,334.3594 L131.1147,334.3594 L131.1147,317.2266" fill="#EEEEEE" style="stroke:#000000;stroke-width:1.5;"/><rect fill="none" height="75.3984" style="stroke:#000000;stroke-width:1.5;" width="809.9043" x="131.1147" y="317.2266"/><text fill="#000000" font-family="sans-serif" font-size="13" font-weight="bold" lengthAdjust="spacing" textLength="19.4429" x="146.1147" y="330.2935">alt</text><text fill="#000000" font-family="sans-serif" font-size="11" font-weight="bold" lengthAdjust="spacing" textLength="87.3394" x="210.5576" y="329.437">[con insumos]</text><g class="message" data-entity-1="part2" data-entity-2="part5" id="msg7"><polygon fill="#181818" points="602.4956,351.4922,612.4956,355.4922,602.4956,359.4922,606.4956,355.4922" style="stroke:#181818;stroke-width:1;"/><line style="stroke:#181818;stroke-width:1;" x1="235.4985" x2="608.4956" y1="355.4922" y2="355.4922"/><text fill="#000000" font-family="sans-serif" font-size="13" lengthAdjust="spacing" textLength="176.814" x="242.4985" y="350.4263">registrar salida de insumos</text></g><g class="message" data-entity-1="part5" data-entity-2="part6" id="msg8"><polygon fill="#181818" points="901.019,380.625,911.019,384.625,901.019,388.625,905.019,384.625" style="stroke:#181818;stroke-width:1;"/><line style="stroke:#181818;stroke-width:1;" x1="614.4956" x2="907.019" y1="384.625" y2="384.625"/><text fill="#000000" font-family="sans-serif" font-size="13" lengthAdjust="spacing" textLength="274.5234" x="621.4956" y="379.5591">insert movimientos_stock/lotes_inventario</text></g><g class="message" data-entity-1="part2" data-entity-2="part3" id="msg9"><polygon fill="#181818" points="413.4326,416.7578,423.4326,420.7578,413.4326,424.7578,417.4326,420.7578" style="stroke:#181818;stroke-width:1;"/><line style="stroke:#181818;stroke-width:1;" x1="235.4985" x2="419.4326" y1="420.7578" y2="420.7578"/><text fill="#000000" font-family="sans-serif" font-size="13" lengthAdjust="spacing" textLength="165.9341" x="242.4985" y="415.6919">calcularYGuardarCostos()</text></g><g class="message" data-entity-1="part3" data-entity-2="part6" id="msg10"><polygon fill="#181818" points="901.019,445.8906,911.019,449.8906,901.019,453.8906,905.019,449.8906" style="stroke:#181818;stroke-width:1;"/><line style="stroke:#181818;stroke-width:1;" x1="425.4326" x2="907.019" y1="449.8906" y2="449.8906"/><text fill="#000000" font-family="sans-serif" font-size="13" lengthAdjust="spacing" textLength="91.6348" x="432.4326" y="444.8247">update costos</text></g><g class="message" data-entity-1="part2" data-entity-2="part1" id="msg11"><polygon fill="#181818" points="45.6021,475.0234,35.6021,479.0234,45.6021,483.0234,41.6021,479.0234" style="stroke:#181818;stroke-width:1;"/><line style="stroke:#181818;stroke-width:1;stroke-dasharray:2,2;" x1="39.6021" x2="234.4985" y1="479.0234" y2="479.0234"/><text fill="#000000" font-family="sans-serif" font-size="13" lengthAdjust="spacing" textLength="83.4019" x="51.6021" y="473.9575">confirmaci?n</text></g><?plantuml-src NL7BQiGm3BpxAyIUsaFPUmujR0nbeO50oA6de3hk8fhOmN9I-lULdNrbhvhHp6Y49le0BSyOoAi9GoH34xe8k_Qu_w35_bAmK0jWMLDYyGwGeJrksPcn4Z9UworUOZXXHiejKFc5Hh8k-YPwyvCfLQDwZFY5R66d3tcc3qgTSyBBg_WNO98c2DCpz1QIh8K-Pr3jyS9QSA0U0mHx6f3FGArbFLWPRxPgdK1zA80Ssn1Nj5jHLWg72CQxrPaLmAfMNiJMEVn9O6y83Nbd4wryaBto9bgyDAkiws_gGff7VvElcYAb9uv1F3ZVamw-yQhcmM2yjieTfrxtG_Bfo2qopBTcoxisS33pWE7pNJgMlaelU_pqVDV9F4dNLY8c9A-cYjUV52dvDuLHZdvp_m00?></g></svg>