<?plantuml 1.2026.2beta3?><svg xmlns="http://www.w3.org/2000/svg" xmlns:xlink="http://www.w3.org/1999/xlink" contentStyleType="text/css" data-diagram-type="STATE" height="397px" preserveAspectRatio="none" style="width:231px;height:397px;background:#FFFFFF;" version="1.1" viewBox="0 0 231 397" width="231px" zoomAndPan="magnify"><defs/><g><g class="start_entity" data-qualified-name=".start." data-source-line="1" id="ent0002"><ellipse cx="125.6" cy="16" fill="#222222" rx="10" ry="10" style="stroke:#222222;stroke-width:1;"/></g><g class="entity" data-qualified-name="planificada" id="ent0003"><rect fill="#F1F1F1" height="50" rx="12.5" ry="12.5" style="stroke:#181818;stroke-width:0.5;" width="96.6787" x="77.26" y="87"/><line style="stroke:#181818;stroke-width:0.5;" x1="77.26" x2="173.9387" y1="113.2969" y2="113.2969"/><text fill="#000000" font-family="sans-serif" font-size="14" lengthAdjust="spacing" textLength="76.6787" x="87.26" y="104.9951">planificada</text></g><g class="entity" data-qualified-name="en_ejecucion" id="ent0005"><rect fill="#F1F1F1" height="50" rx="12.5" ry="12.5" style="stroke:#181818;stroke-width:0.5;" width="111.1982" x="7" y="214"/><line style="stroke:#181818;stroke-width:0.5;" x1="7" x2="118.1982" y1="240.2969" y2="240.2969"/><text fill="#000000" font-family="sans-serif" font-size="14" lengthAdjust="spacing" textLength="91.1982" x="17" y="231.9951">en_ejecucion</text></g><g class="entity" data-qualified-name="cerrada" id="ent0007"><rect fill="#F1F1F1" height="50" rx="12.5" ry="12.5" style="stroke:#181818;stroke-width:0.5;" width="73.8672" x="88.67" y="341"/><line style="stroke:#181818;stroke-width:0.5;" x1="88.67" x2="162.5372" y1="367.2969" y2="367.2969"/><text fill="#000000" font-family="sans-serif" font-size="14" lengthAdjust="spacing" textLength="53.8672" x="98.67" y="358.9951">cerrada</text></g><!--link *start* to planificada--><g class="link" data-entity-1="ent0002" data-entity-2="ent0003" data-link-type="dependency" data-source-line="1" id="lnk4"><path d="M125.6,26.36 C125.6,40.29 125.6,60.95 125.6,80.65" fill="none" id="*start*-to-planificada" style="stroke:#181818;stroke-width:1;"/><polygon fill="#181818" points="125.6,86.65,129.6,77.65,125.6,81.65,121.6,77.65,125.6,86.65" style="stroke:#181818;stroke-width:1;"/></g><!--link planificada to en_ejecucion--><g class="link" data-entity-1="ent0003" data-entity-2="ent0005" data-link-type="dependency" data-source-line="2" id="lnk6"><path d="M113.3,137.4 C102.2,159.42 88.6627,186.3032 77.5627,208.3032" fill="none" id="planificada-to-en_ejecucion" style="stroke:#181818;stroke-width:1;"/><polygon fill="#181818" points="74.86,213.66,82.4853,207.4266,77.1123,209.196,75.3429,203.823,74.86,213.66" style="stroke:#181818;stroke-width:1;"/><text fill="#000000" font-family="sans-serif" font-size="13" lengthAdjust="spacing" textLength="39.5332" x="99.6" y="180.0669">iniciar</text></g><!--link en_ejecucion to cerrada--><g class="link" data-entity-1="ent0005" data-entity-2="ent0007" data-link-type="dependency" data-source-line="3" id="lnk8"><path d="M74.9,264.4 C86,286.42 99.5392,313.3022 110.6292,335.3022" fill="none" id="en_ejecucion-to-cerrada" style="stroke:#181818;stroke-width:1;"/><polygon fill="#181818" points="113.33,340.66,112.8506,330.8228,111.0793,336.1952,105.707,334.4239,113.33,340.66" style="stroke:#181818;stroke-width:1;"/><text fill="#000000" font-family="sans-serif" font-size="13" lengthAdjust="spacing" textLength="51.7524" x="99.6" y="307.0669">finalizar</text></g><!--link planificada to cerrada--><g class="link" data-entity-1="ent0003" data-entity-2="ent0007" data-link-type="dependency" data-source-line="4" id="lnk9"><path d="M136.76,137.47 C152.45,175.26 177.25,249.84 159.6,311 C156.59,321.43 154.2269,326.7968 148.3569,335.6068" fill="none" id="planificada-to-cerrada" style="stroke:#181818;stroke-width:1;"/><polygon fill="#181818" points="145.03,340.6,153.3491,335.3282,147.8024,336.439,146.6916,330.8923,145.03,340.6" style="stroke:#181818;stroke-width:1;"/><text fill="#000000" font-family="sans-serif" font-size="13" lengthAdjust="spacing" textLength="55.4214" x="167.6" y="243.5669">cancelar</text></g><?plantuml-src YzQALT3LjLCeo4dCoqpBJ4vCIUH2OeFbKlFYKxDIaqkJC_Fp5AmKClCoapCJYxXGX47gabEBYa1wh1JIClCISpAhW8hGpKAeIKxCIqxDIIm20000?></g></svg>