<?plantuml 1.2026.2beta3?><svg xmlns="http://www.w3.org/2000/svg" xmlns:xlink="http://www.w3.org/1999/xlink" contentStyleType="text/css" data-diagram-type="STATE" height="397px" preserveAspectRatio="none" style="width:340px;height:397px;background:#FFFFFF;" version="1.1" viewBox="0 0 340 397" width="340px" zoomAndPan="magnify"><defs/><g><g class="entity" data-qualified-name="programado" id="ent0002"><rect fill="#F1F1F1" height="50" rx="12.5" ry="12.5" style="stroke:#181818;stroke-width:0.5;" width="106.0986" x="109.36" y="87"/><line style="stroke:#181818;stroke-width:0.5;" x1="109.36" x2="215.4586" y1="113.2969" y2="113.2969"/><text fill="#000000" font-family="sans-serif" font-size="14" lengthAdjust="spacing" textLength="86.0986" x="119.36" y="104.9951">programado</text></g><g class="entity" data-qualified-name="en_curso" id="ent0003"><rect fill="#F1F1F1" height="50" rx="12.5" ry="12.5" style="stroke:#181818;stroke-width:0.5;" width="80.1221" x="18.34" y="214"/><line style="stroke:#181818;stroke-width:0.5;" x1="18.34" x2="98.4621" y1="240.2969" y2="240.2969"/><text fill="#000000" font-family="sans-serif" font-size="14" lengthAdjust="spacing" textLength="60.1221" x="28.34" y="231.9951">en curso</text></g><g class="entity" data-qualified-name="vencido" id="ent0004"><rect fill="#F1F1F1" height="50" rx="12.5" ry="12.5" style="stroke:#181818;stroke-width:0.5;" width="74.8105" x="190" y="214"/><line style="stroke:#181818;stroke-width:0.5;" x1="190" x2="264.8105" y1="240.2969" y2="240.2969"/><text fill="#000000" font-family="sans-serif" font-size="14" lengthAdjust="spacing" textLength="54.8105" x="200" y="231.9951">vencido</text></g><g class="entity" data-qualified-name="completado" id="ent0005"><rect fill="#F1F1F1" height="50" rx="12.5" ry="12.5" style="stroke:#181818;stroke-width:0.5;" width="102.8105" x="7" y="341"/><line style="stroke:#181818;stroke-width:0.5;" x1="7" x2="109.8105" y1="367.2969" y2="367.2969"/><text fill="#000000" font-family="sans-serif" font-size="14" lengthAdjust="spacing" textLength="82.8105" x="17" y="358.9951">completado</text></g><g class="start_entity" data-qualified-name=".start." data-source-line="6" id="ent0002"><ellipse cx="162.41" cy="16" fill="#222222" rx="10" ry="10" style="stroke:#222222;stroke-width:1;"/></g><!--link *start* to programado--><g class="link" data-entity-1="ent0002" data-entity-2="ent0002" data-link-type="dependency" data-source-line="6" id="lnk3"><path d="M162.41,26.36 C162.41,40.29 162.41,60.95 162.41,80.65" fill="none" id="*start*-to-programado" style="stroke:#181818;stroke-width:1;"/><polygon fill="#181818" points="162.41,86.65,166.41,77.65,162.41,81.65,158.41,77.65,162.41,86.65" style="stroke:#181818;stroke-width:1;"/></g><!--link programado to en_curso--><g class="link" data-entity-1="ent0002" data-entity-2="ent0003" data-link-type="dependency" data-source-line="7" id="lnk4"><path d="M116.5,137.26 C104.43,145.4 92.31,155.4 83.41,167 C72.9,180.68 68.0333,193.3087 64.3733,207.9687" fill="none" id="programado-to-en_curso" style="stroke:#181818;stroke-width:1;"/><polygon fill="#181818" points="62.92,213.79,68.9809,206.0269,64.1311,208.9389,61.2191,204.0891,62.92,213.79" style="stroke:#181818;stroke-width:1;"/><text fill="#000000" font-family="sans-serif" font-size="13" lengthAdjust="spacing" textLength="62.8481" x="84.41" y="180.0669">confirmar</text></g><!--link en_curso to completado--><g class="link" data-entity-1="ent0003" data-entity-2="ent0005" data-link-type="dependency" data-source-line="8" id="lnk5"><path d="M58.41,264.4 C58.41,286.42 58.41,312.66 58.41,334.66" fill="none" id="en_curso-to-completado" style="stroke:#181818;stroke-width:1;"/><polygon fill="#181818" points="58.41,340.66,62.41,331.66,58.41,335.66,54.41,331.66,58.41,340.66" style="stroke:#181818;stroke-width:1;"/><text fill="#000000" font-family="sans-serif" font-size="13" lengthAdjust="spacing" textLength="66.0347" x="59.41" y="307.0669">completar</text></g><!--link programado to vencido--><g class="link" data-entity-1="ent0002" data-entity-2="ent0004" data-link-type="dependency" data-source-line="9" id="lnk6"><path d="M155.87,137.17 C153.31,151.47 152.43,169.56 159.41,184 C165.96,197.58 172.9025,205.2818 184.8625,213.9018" fill="none" id="programado-to-vencido" style="stroke:#181818;stroke-width:1;"/><polygon fill="#181818" points="189.73,217.41,184.7675,208.9027,185.6737,214.4865,180.0899,215.3927,189.73,217.41" style="stroke:#181818;stroke-width:1;"/><text fill="#000000" font-family="sans-serif" font-size="13" lengthAdjust="spacing" textLength="80.2534" x="160.41" y="180.0669">vencimiento</text></g><!--link vencido to programado--><g class="link" data-entity-1="ent0004" data-entity-2="ent0002" data-link-type="dependency" data-source-line="10" id="lnk7"><path d="M242.07,213.56 C248.59,199.34 253.23,181.42 245.41,167 C238.6,154.46 232.4913,147.6846 220.5713,139.7846" fill="none" id="vencido-to-programado" style="stroke:#181818;stroke-width:1;"/><polygon fill="#181818" points="215.57,136.47,220.8622,144.7762,219.7378,139.2322,225.2817,138.1077,215.57,136.47" style="stroke:#181818;stroke-width:1;"/><text fill="#000000" font-family="sans-serif" font-size="13" lengthAdjust="spacing" textLength="82.4307" x="250.41" y="180.0669">reprogramar</text></g><?plantuml-src NOv13i8m30JlVeNLOwL-W0CVgL1b1OCYDKxb1DvFI682t7QywxLJfimu7HhlIe6kSK9AE11I2x2WUsXgDijMmSmdY_DzjMkpN0p7pjcA1mAiymMNvVnzRCZgs1qybKMvUGsay1c-4wElPXheVq__gKIg2fubHx3fxmybf6oeBm00?></g></svg>