<?plantuml 1.2026.2beta3?><svg xmlns="http://www.w3.org/2000/svg" xmlns:xlink="http://www.w3.org/1999/xlink" contentStyleType="text/css" data-diagram-type="STATE" height="508px" preserveAspectRatio="none" style="width:394px;height:508px;background:#FFFFFF;" version="1.1" viewBox="0 0 394 508" width="394px" zoomAndPan="magnify"><defs/><g><g class="entity" data-qualified-name="activo" id="ent0002"><rect fill="#F1F1F1" height="50" rx="12.5" ry="12.5" style="stroke:#181818;stroke-width:0.5;" width="62.5059" x="173.86" y="87"/><line style="stroke:#181818;stroke-width:0.5;" x1="173.86" x2="236.3659" y1="113.2969" y2="113.2969"/><text fill="#000000" font-family="sans-serif" font-size="14" lengthAdjust="spacing" textLength="42.5059" x="183.86" y="104.9951">activo</text></g><g class="entity" data-qualified-name="en_proceso" id="ent0003"><rect fill="#F1F1F1" height="50" rx="12.5" ry="12.5" style="stroke:#181818;stroke-width:0.5;" width="99.8643" x="9.18" y="214"/><line style="stroke:#181818;stroke-width:0.5;" x1="9.18" x2="109.0443" y1="240.2969" y2="240.2969"/><text fill="#000000" font-family="sans-serif" font-size="14" lengthAdjust="spacing" textLength="79.8643" x="19.18" y="231.9951">en_proceso</text></g><g class="entity" data-qualified-name="inactivo" id="ent0004"><rect fill="#F1F1F1" height="50" rx="12.5" ry="12.5" style="stroke:#181818;stroke-width:0.5;" width="75.2686" x="163.48" y="214"/><line style="stroke:#181818;stroke-width:0.5;" x1="163.48" x2="238.7486" y1="240.2969" y2="240.2969"/><text fill="#000000" font-family="sans-serif" font-size="14" lengthAdjust="spacing" textLength="55.2686" x="173.48" y="231.9951">inactivo</text></g><g class="entity" data-qualified-name="cerrado" id="ent0005"><rect fill="#F1F1F1" height="50" rx="12.5" ry="12.5" style="stroke:#181818;stroke-width:0.5;" width="73.8535" x="30.19" y="341"/><line style="stroke:#181818;stroke-width:0.5;" x1="30.19" x2="104.0435" y1="367.2969" y2="367.2969"/><text fill="#000000" font-family="sans-serif" font-size="14" lengthAdjust="spacing" textLength="53.8535" x="40.19" y="358.9951">cerrado</text></g><g class="entity" data-qualified-name="baja" id="ent0006"><rect fill="#F1F1F1" height="50" rx="12.5" ry="12.5" style="stroke:#181818;stroke-width:0.5;" width="50" x="139.11" y="452"/><line style="stroke:#181818;stroke-width:0.5;" x1="139.11" x2="189.11" y1="478.2969" y2="478.2969"/><text fill="#000000" font-family="sans-serif" font-size="14" lengthAdjust="spacing" textLength="29.9346" x="149.1427" y="469.9951">baja</text></g><g class="start_entity" data-qualified-name=".start." data-source-line="7" id="ent0002"><ellipse cx="205.11" cy="16" fill="#222222" rx="10" ry="10" style="stroke:#222222;stroke-width:1;"/></g><!--link *start* to activo--><g class="link" data-entity-1="ent0002" data-entity-2="ent0002" data-link-type="dependency" data-source-line="7" id="lnk3"><path d="M205.11,26.36 C205.11,40.29 205.11,60.95 205.11,80.65" fill="none" id="*start*-to-activo" style="stroke:#181818;stroke-width:1;"/><polygon fill="#181818" points="205.11,86.65,209.11,77.65,205.11,81.65,201.11,77.65,205.11,86.65" style="stroke:#181818;stroke-width:1;"/></g><!--link activo to en_proceso--><g class="link" data-entity-1="ent0002" data-entity-2="ent0003" data-link-type="dependency" data-source-line="8" id="lnk4"><path d="M173.72,117.43 C125.29,124.97 35.96,141.98 17.11,167 C6,181.76 12.6228,195.3149 26.0228,209.4549" fill="none" id="activo-to-en_proceso" style="stroke:#181818;stroke-width:1;"/><polygon fill="#181818" points="30.15,213.81,26.8627,204.526,26.7107,210.1808,21.0559,210.0288,30.15,213.81" style="stroke:#181818;stroke-width:1;"/><text fill="#000000" font-family="sans-serif" font-size="13" lengthAdjust="spacing" textLength="119.1899" x="18.11" y="180.0669">iniciar explotacion</text></g><!--link en_proceso to cerrado--><g class="link" data-entity-1="ent0003" data-entity-2="ent0005" data-link-type="dependency" data-source-line="9" id="lnk5"><path d="M56.37,264.37 C55.26,278.09 54.55,295.53 56.11,311 C57.1,320.8 57.7946,325.5971 59.8046,334.8371" fill="none" id="en_proceso-to-cerrado" style="stroke:#181818;stroke-width:1;"/><polygon fill="#181818" points="61.08,340.7,63.0755,331.0554,60.0172,335.8143,55.2584,332.7559,61.08,340.7" style="stroke:#181818;stroke-width:1;"/><text fill="#000000" font-family="sans-serif" font-size="13" lengthAdjust="spacing" textLength="80.5454" x="57.11" y="307.0669">finalizar lote</text></g><!--link activo to inactivo--><g class="link" data-entity-1="ent0002" data-entity-2="ent0004" data-link-type="dependency" data-source-line="10" id="lnk6"><path d="M173.41,134.77 C163.37,143.5 153.5,154.48 148.11,167 C140.82,183.96 147.6064,196.5447 161.5564,209.4547" fill="none" id="activo-to-inactivo" style="stroke:#181818;stroke-width:1;"/><polygon fill="#181818" points="165.96,213.53,162.0715,204.4813,162.2903,210.1339,156.6377,210.3528,165.96,213.53" style="stroke:#181818;stroke-width:1;"/><text fill="#000000" font-family="sans-serif" font-size="13" lengthAdjust="spacing" textLength="67.8691" x="149.11" y="180.0669">suspender</text></g><!--link inactivo to activo--><g class="link" data-entity-1="ent0004" data-entity-2="ent0002" data-link-type="dependency" data-source-line="11" id="lnk7"><path d="M212.27,213.51 C215.84,204.44 219.33,193.94 221.11,184 C223.92,168.33 222.0111,156.5642 217.3911,142.8942" fill="none" id="inactivo-to-activo" style="stroke:#181818;stroke-width:1;"/><polygon fill="#181818" points="215.47,137.21,214.5621,147.0169,217.0709,141.9468,222.141,144.4555,215.47,137.21" style="stroke:#181818;stroke-width:1;"/><text fill="#000000" font-family="sans-serif" font-size="13" lengthAdjust="spacing" textLength="58.1699" x="223.11" y="180.0669">reactivar</text></g><!--link activo to baja--><g class="link" data-entity-1="ent0002" data-entity-2="ent0006" data-link-type="dependency" data-source-line="12" id="lnk8"><path d="M236.51,123.92 C255.73,132.43 278.75,146.31 290.11,167 C293.75,173.62 291.52,176.58 290.11,184 C268.85,295.72 246.15,319.87 196.11,422 C191.22,431.98 188.2601,437.449 182.7201,446.589" fill="none" id="activo-to-baja" style="stroke:#181818;stroke-width:1;"/><polygon fill="#181818" points="179.61,451.72,187.6958,446.0968,182.2017,447.4441,180.8544,441.9501,179.61,451.72" style="stroke:#181818;stroke-width:1;"/><text fill="#000000" font-family="sans-serif" font-size="13" lengthAdjust="spacing" textLength="125.8232" x="261.11" y="307.0669">baja administrativa</text></g><!--link en_proceso to baja--><g class="link" data-entity-1="ent0003" data-entity-2="ent0006" data-link-type="dependency" data-source-line="13" id="lnk9"><path d="M109.53,262.93 C122.08,271 134.2,281.31 142.11,294 C172.83,343.3 171.5142,408.8285 167.8942,445.8285" fill="none" id="en_proceso-to-baja" style="stroke:#181818;stroke-width:1;"/><polygon fill="#181818" points="167.31,451.8,172.1673,443.2323,167.7969,446.8238,164.2054,442.4533,167.31,451.8" style="stroke:#181818;stroke-width:1;"/></g><!--link cerrado to baja--><g class="link" data-entity-1="ent0005" data-entity-2="ent0006" data-link-type="dependency" data-source-line="14" id="lnk10"><path d="M88.88,391.46 C104.86,409.41 122.4707,429.2083 138.4307,447.1383" fill="none" id="cerrado-to-baja" style="stroke:#181818;stroke-width:1;"/><polygon fill="#181818" points="142.42,451.62,139.4239,442.2379,139.0956,447.8853,133.4483,447.557,142.42,451.62" style="stroke:#181818;stroke-width:1;"/></g><?plantuml-src NKz13W8X3Bpp2h97a_s01pzYZAbiDy6iG5eqnjTRO2l4KwSpKsRW31dj12xxLvmii6tGS1CmN1D5Xzp4lgh1X-5M5nKT4i7Ij1shT8CxLBu0Oyw7YvtdawQtKPaUQOyIu9q7ilXEMypWV0ncC1J_dYFcLUfi_YDsyUBuflOK4pyvOLYGp8_iFKGdh11el2-THQi3beUquanGRFzjwk-qaX9V?></g></svg>