<?plantuml 1.2026.2beta3?><svg xmlns="http://www.w3.org/2000/svg" xmlns:xlink="http://www.w3.org/1999/xlink" contentStyleType="text/css" data-diagram-type="ACTIVITY" height="470px" preserveAspectRatio="none" style="width:397px;height:470px;background:#FFFFFF;" version="1.1" viewBox="0 0 397 470" width="397px" zoomAndPan="magnify"><defs/><g><ellipse cx="172.9385" cy="20" fill="#222222" rx="10" ry="10" style="stroke:#222222;stroke-width:1;"/><rect fill="#F1F1F1" height="33.9688" rx="12.5" ry="12.5" style="stroke:#181818;stroke-width:0.5;" width="163.9531" x="90.9619" y="50"/><text fill="#000000" font-family="sans-serif" font-size="12" lengthAdjust="spacing" textLength="143.9531" x="100.9619" y="71.1387">Seleccionar lote y fecha</text><rect fill="#F1F1F1" height="33.9688" rx="12.5" ry="12.5" style="stroke:#181818;stroke-width:0.5;" width="219.5176" x="63.1797" y="103.9688"/><text fill="#000000" font-family="sans-serif" font-size="12" lengthAdjust="spacing" textLength="199.5176" x="73.1797" y="125.1074">Cargar empleados y maquinarias</text><polygon fill="#F1F1F1" points="141.5767,157.9375,204.3003,157.9375,216.3003,169.9375,204.3003,181.9375,141.5767,181.9375,129.5767,169.9375,141.5767,157.9375" style="stroke:#181818;stroke-width:0.5;"/><text fill="#000000" font-family="sans-serif" font-size="11" lengthAdjust="spacing" textLength="62.7236" x="141.5767" y="173.7456">D?a ca?do?</text><text fill="#000000" font-family="sans-serif" font-size="11" lengthAdjust="spacing" textLength="11.5693" x="118.0073" y="167.3433">s?</text><text fill="#000000" font-family="sans-serif" font-size="11" lengthAdjust="spacing" textLength="13.7017" x="216.3003" y="167.3433">no</text><rect fill="#F1F1F1" height="33.9688" rx="12.5" ry="12.5" style="stroke:#181818;stroke-width:0.5;" width="126.2012" x="11" y="191.9375"/><text fill="#000000" font-family="sans-serif" font-size="12" lengthAdjust="spacing" textLength="106.2012" x="21" y="213.0762">Registrar jornales</text><rect fill="#F1F1F1" height="33.9688" rx="12.5" ry="12.5" style="stroke:#181818;stroke-width:0.5;" width="118.7715" x="212.3906" y="191.9375"/><text fill="#000000" font-family="sans-serif" font-size="12" lengthAdjust="spacing" textLength="98.7715" x="222.3906" y="213.0762">Registrar cargas</text><rect fill="#F1F1F1" height="33.9688" rx="12.5" ry="12.5" style="stroke:#181818;stroke-width:0.5;" width="229.1504" x="157.2012" y="245.9063"/><text fill="#000000" font-family="sans-serif" font-size="12" lengthAdjust="spacing" textLength="209.1504" x="167.2012" y="267.0449">Registrar movimientos de insumos</text><polygon fill="#F1F1F1" points="172.9385,285.875,184.9385,297.875,172.9385,309.875,160.9385,297.875,172.9385,285.875" style="stroke:#181818;stroke-width:0.5;"/><rect fill="#F1F1F1" height="33.9688" rx="12.5" ry="12.5" style="stroke:#181818;stroke-width:0.5;" width="111.1953" x="117.3408" y="329.875"/><text fill="#000000" font-family="sans-serif" font-size="12" lengthAdjust="spacing" textLength="91.1953" x="127.3408" y="351.0137">Calcular costos</text><rect fill="#F1F1F1" height="33.9688" rx="12.5" ry="12.5" style="stroke:#181818;stroke-width:0.5;" width="142.6309" x="101.623" y="383.8438"/><text fill="#000000" font-family="sans-serif" font-size="12" lengthAdjust="spacing" textLength="122.6309" x="111.623" y="404.9824">Guardar parte diario</text><ellipse cx="172.9385" cy="448.8125" fill="none" rx="11" ry="11" style="stroke:#222222;stroke-width:1;"/><ellipse cx="172.9385" cy="448.8125" fill="#222222" rx="6" ry="6" style="stroke:#222222;stroke-width:1;"/><line style="stroke:#181818;stroke-width:1;" x1="172.9385" x2="172.9385" y1="30" y2="50"/><polygon fill="#181818" points="168.9385,40,172.9385,50,176.9385,40,172.9385,44" style="stroke:#181818;stroke-width:1;"/><line style="stroke:#181818;stroke-width:1;" x1="172.9385" x2="172.9385" y1="83.9688" y2="103.9688"/><polygon fill="#181818" points="168.9385,93.9688,172.9385,103.9688,176.9385,93.9688,172.9385,97.9688" style="stroke:#181818;stroke-width:1;"/><line style="stroke:#181818;stroke-width:1;" x1="271.7764" x2="271.7764" y1="225.9063" y2="245.9063"/><polygon fill="#181818" points="267.7764,235.9063,271.7764,245.9063,275.7764,235.9063,271.7764,239.9063" style="stroke:#181818;stroke-width:1;"/><line style="stroke:#181818;stroke-width:1;" x1="129.5767" x2="74.1006" y1="169.9375" y2="169.9375"/><line style="stroke:#181818;stroke-width:1;" x1="74.1006" x2="74.1006" y1="169.9375" y2="191.9375"/><polygon fill="#181818" points="70.1006,181.9375,74.1006,191.9375,78.1006,181.9375,74.1006,185.9375" style="stroke:#181818;stroke-width:1;"/><line style="stroke:#181818;stroke-width:1;" x1="216.3003" x2="271.7764" y1="169.9375" y2="169.9375"/><line style="stroke:#181818;stroke-width:1;" x1="271.7764" x2="271.7764" y1="169.9375" y2="191.9375"/><polygon fill="#181818" points="267.7764,181.9375,271.7764,191.9375,275.7764,181.9375,271.7764,185.9375" style="stroke:#181818;stroke-width:1;"/><line style="stroke:#181818;stroke-width:1;" x1="74.1006" x2="74.1006" y1="225.9063" y2="297.875"/><line style="stroke:#181818;stroke-width:1;" x1="74.1006" x2="160.9385" y1="297.875" y2="297.875"/><polygon fill="#181818" points="150.9385,293.875,160.9385,297.875,150.9385,301.875,154.9385,297.875" style="stroke:#181818;stroke-width:1;"/><line style="stroke:#181818;stroke-width:1;" x1="271.7764" x2="271.7764" y1="279.875" y2="297.875"/><line style="stroke:#181818;stroke-width:1;" x1="271.7764" x2="184.9385" y1="297.875" y2="297.875"/><polygon fill="#181818" points="194.9385,293.875,184.9385,297.875,194.9385,301.875,190.9385,297.875" style="stroke:#181818;stroke-width:1;"/><line style="stroke:#181818;stroke-width:1;" x1="172.9385" x2="172.9385" y1="137.9375" y2="157.9375"/><polygon fill="#181818" points="168.9385,147.9375,172.9385,157.9375,176.9385,147.9375,172.9385,151.9375" style="stroke:#181818;stroke-width:1;"/><line style="stroke:#181818;stroke-width:1;" x1="172.9385" x2="172.9385" y1="309.875" y2="329.875"/><polygon fill="#181818" points="168.9385,319.875,172.9385,329.875,176.9385,319.875,172.9385,323.875" style="stroke:#181818;stroke-width:1;"/><line style="stroke:#181818;stroke-width:1;" x1="172.9385" x2="172.9385" y1="363.8438" y2="383.8438"/><polygon fill="#181818" points="168.9385,373.8438,172.9385,383.8438,176.9385,373.8438,172.9385,377.8438" style="stroke:#181818;stroke-width:1;"/><line style="stroke:#181818;stroke-width:1;" x1="172.9385" x2="172.9385" y1="417.8125" y2="437.8125"/><polygon fill="#181818" points="168.9385,427.8125,172.9385,437.8125,176.9385,427.8125,172.9385,431.8125" style="stroke:#181818;stroke-width:1;"/><?plantuml-src NO-n3i8m34JtV8N7zXVIeGD8xF05LkAsHabSuWI9lySPONrtvpjhmzgSVr2Y45WALaZI23wmKJXmSVw2TJTA-Ko4KTIaZA_EPcNKnV46qtL52BX6MMTe1nMOT9qTWB_JpjggvPzI2oQo02Kbc8hy6SBeCVa7PdbpPYhDUYC15-rPneqIUHlRKkXfX4NRuFxMiKO3fxr54Db6ok9CFBy0?></g></svg>