<?plantuml 1.2026.2beta3?><svg xmlns="http://www.w3.org/2000/svg" xmlns:xlink="http://www.w3.org/1999/xlink" contentStyleType="text/css" data-diagram-type="SALT" height="219px" preserveAspectRatio="none" style="width:499px;height:219px;background:#FFFFFF;" version="1.1" viewBox="0 0 499 219" width="499px" zoomAndPan="magnify"><defs/><g><line style="stroke:#000000;stroke-width:1;" x1="6" x2="6" y1="6" y2="6"/><line style="stroke:#000000;stroke-width:1;" x1="6" x2="6" y1="6" y2="6"/><line style="stroke:#000000;stroke-width:1;" x1="6" x2="6" y1="6" y2="6"/><line style="stroke:#000000;stroke-width:1;" x1="6" x2="6" y1="6" y2="6"/><text fill="#000000" font-family="sans-serif" font-size="12" lengthAdjust="spacing" textLength="194.25" x="297" y="17.1387">UC-65 Planificacion por lote (ha)</text><text fill="#000000" font-family="sans-serif" font-size="12" lengthAdjust="spacing" textLength="50.4375" x="6" y="33.1074">Lote: [v]</text><text fill="#000000" font-family="sans-serif" font-size="12" lengthAdjust="spacing" textLength="57.7266" x="6" y="49.0762">Periodo: [</text><text fill="#000000" font-family="sans-serif" font-size="12" lengthAdjust="spacing" text-decoration="underline" textLength="6" x="63.7266" y="49.0762">_</text><text fill="#000000" font-family="sans-serif" font-size="12" lengthAdjust="spacing" textLength="22.6816" x="69.7266" y="49.0762">___]</text><line style="stroke:#AAAAAA;stroke-width:1;" x1="6" x2="296" y1="57.4063" y2="57.4063"/><text fill="#000000" font-family="sans-serif" font-size="12" lengthAdjust="spacing" textLength="51.75" x="7" y="74.0449">T Tareas</text><rect fill="#EEEEEE" height="17.9688" rx="5" ry="5" style="stroke:#000000;stroke-width:2.5;" width="284" x="8.5" y="82.375"/><text fill="#000000" font-family="sans-serif" font-size="12" lengthAdjust="spacing" textLength="207.1758" x="46.9121" y="95.5137">Tipo tarea] [Superficie ha] [Estado</text><rect fill="#EEEEEE" height="17.9688" rx="5" ry="5" style="stroke:#000000;stroke-width:2.5;" width="108" x="8.5" y="107.3438"/><text fill="#000000" font-family="sans-serif" font-size="12" lengthAdjust="spacing" textLength="83.5898" x="20.7051" y="120.4824">Agregar tarea</text><line style="stroke:#AAAAAA;stroke-width:1;" x1="6" x2="296" y1="133.3125" y2="133.3125"/><text fill="#000000" font-family="sans-serif" font-size="12" lengthAdjust="spacing" textLength="120.9668" x="7" y="149.9512">T Recomendaciones</text><rect fill="#EEEEEE" height="17.9688" rx="5" ry="5" style="stroke:#000000;stroke-width:2.5;" width="188" x="8.5" y="158.2813"/><text fill="#000000" font-family="sans-serif" font-size="12" lengthAdjust="spacing" textLength="159.123" x="22.9385" y="171.4199">Generar recomendaciones</text><line style="stroke:#AAAAAA;stroke-width:1;" x1="6" x2="296" y1="184.25" y2="184.25"/><rect fill="#EEEEEE" height="17.9688" rx="5" ry="5" style="stroke:#000000;stroke-width:2.5;" width="148" x="8.5" y="191.25"/><text fill="#000000" font-family="sans-serif" font-size="12" lengthAdjust="spacing" textLength="115.2129" x="24.8936" y="204.3887">Guardar] [Cancelar</text><line style="stroke:#000000;stroke-width:1;" x1="5" x2="296" y1="5" y2="5"/><line style="stroke:#000000;stroke-width:1;" x1="296" x2="492.25" y1="5" y2="5"/><line style="stroke:#000000;stroke-width:1;" x1="5" x2="296" y1="212.7188" y2="212.7188"/><line style="stroke:#000000;stroke-width:1;" x1="296" x2="492.25" y1="212.7188" y2="212.7188"/><line style="stroke:#000000;stroke-width:1;" x1="5" x2="5" y1="5" y2="20.9688"/><line style="stroke:#000000;stroke-width:1;" x1="492.25" x2="492.25" y1="36.9375" y2="52.9063"/><line style="stroke:#000000;stroke-width:1;" x1="492.25" x2="492.25" y1="5" y2="20.9688"/><line style="stroke:#000000;stroke-width:1;" x1="5" x2="5" y1="187.75" y2="212.7188"/><line style="stroke:#000000;stroke-width:1;" x1="5" x2="5" y1="154.7813" y2="179.75"/><line style="stroke:#000000;stroke-width:1;" x1="492.25" x2="492.25" y1="187.75" y2="212.7188"/><line style="stroke:#000000;stroke-width:1;" x1="5" x2="5" y1="128.8125" y2="136.8125"/><line style="stroke:#000000;stroke-width:1;" x1="492.25" x2="492.25" y1="154.7813" y2="179.75"/><line style="stroke:#000000;stroke-width:1;" x1="5" x2="5" y1="78.875" y2="103.8438"/><line style="stroke:#000000;stroke-width:1;" x1="492.25" x2="492.25" y1="128.8125" y2="136.8125"/><line style="stroke:#000000;stroke-width:1;" x1="5" x2="5" y1="52.9063" y2="60.9063"/><line style="stroke:#000000;stroke-width:1;" x1="492.25" x2="492.25" y1="78.875" y2="103.8438"/><line style="stroke:#000000;stroke-width:1;" x1="5" x2="5" y1="20.9688" y2="36.9375"/><line style="stroke:#000000;stroke-width:1;" x1="492.25" x2="492.25" y1="52.9063" y2="60.9063"/><line style="stroke:#000000;stroke-width:1;" x1="492.25" x2="492.25" y1="20.9688" y2="36.9375"/><line style="stroke:#000000;stroke-width:1;" x1="5" x2="5" y1="179.75" y2="187.75"/><line style="stroke:#000000;stroke-width:1;" x1="5" x2="5" y1="136.8125" y2="154.7813"/><line style="stroke:#000000;stroke-width:1;" x1="492.25" x2="492.25" y1="179.75" y2="187.75"/><line style="stroke:#000000;stroke-width:1;" x1="5" x2="5" y1="103.8438" y2="128.8125"/><line style="stroke:#000000;stroke-width:1;" x1="492.25" x2="492.25" y1="136.8125" y2="154.7813"/><line style="stroke:#000000;stroke-width:1;" x1="5" x2="5" y1="60.9063" y2="78.875"/><line style="stroke:#000000;stroke-width:1;" x1="492.25" x2="492.25" y1="103.8438" y2="128.8125"/><line style="stroke:#000000;stroke-width:1;" x1="5" x2="5" y1="36.9375" y2="52.9063"/><line style="stroke:#000000;stroke-width:1;" x1="492.25" x2="492.25" y1="60.9063" y2="78.875"/><?plantuml-src LOun2y9038Nt_eg0Yo8TTN2J8bqSYjRfA1BkOZquxqfwTIdzx-QqY6PwN_BoaXvTpCPr1Z0k9hWK-NO3bKDlRrQZji535nXSY0JBEwx4TnIz0_LiH5V4DfWWU9qhTVCynTLG8nFsau2gRHSW9cv0dOUEMF8jmJtneOzeGjfK-vQfHPwjFradqk51thn_eazeIPvOpFm_-wwfSa0so7AYGA_9YSoc5m00?></g></svg>