<?plantuml 1.2026.2beta3?><svg xmlns="http://www.w3.org/2000/svg" xmlns:xlink="http://www.w3.org/1999/xlink" contentStyleType="text/css" data-diagram-type="SEQUENCE" height="636px" preserveAspectRatio="none" style="width:839px;height:636px;background:#FFFFFF;" version="1.1" viewBox="0 0 839 636" width="839px" zoomAndPan="magnify"><defs/><g><rect fill="none" height="75.3984" style="stroke:#000000;stroke-width:1.5;" width="612.79" x="86.5146" y="227.8281"/><rect fill="none" height="75.3984" style="stroke:#000000;stroke-width:1.5;" width="612.79" x="86.5146" y="317.2266"/><g class="participant-lifeline" data-entity-uid="part1" data-qualified-name="Capataz" id="part1-lifeline"><g><title>Capataz</title><rect fill="#000000" fill-opacity="0.00000" height="473.9922" width="8" x="32.6187" y="81.2969"/><line style="stroke:#181818;stroke-width:0.5;stroke-dasharray:5,5;" x1="36" x2="36" y1="81.2969" y2="555.2891"/></g></g><g class="participant-lifeline" data-entity-uid="part2" data-qualified-name="UI" id="part2-lifeline"><g><title>UI Parte Diario</title><rect fill="#000000" fill-opacity="0.00000" height="473.9922" width="8" x="150.3228" y="81.2969"/><line style="stroke:#181818;stroke-width:0.5;stroke-dasharray:5,5;" x1="153.5146" x2="153.5146" y1="81.2969" y2="555.2891"/></g></g><g class="participant-lifeline" data-entity-uid="part3" data-qualified-name="PD" id="part3-lifeline"><g><title>ParteDiario</title><rect fill="#000000" fill-opacity="0.00000" height="473.9922" width="8" x="287.7871" y="81.2969"/><line style="stroke:#181818;stroke-width:0.5;stroke-dasharray:5,5;" x1="291.6172" x2="291.6172" y1="81.2969" y2="555.2891"/></g></g><g class="participant-lifeline" data-entity-uid="part4" data-qualified-name="C" id="part4-lifeline"><g><title>Carga</title><rect fill="#000000" fill-opacity="0.00000" height="473.9922" width="8" x="371.7451" y="81.2969"/><line style="stroke:#181818;stroke-width:0.5;stroke-dasharray:5,5;" x1="374.957" x2="374.957" y1="81.2969" y2="555.2891"/></g></g><g class="participant-lifeline" data-entity-uid="part5" data-qualified-name="MS" id="part5-lifeline"><g><title>MovimientoStock</title><rect fill="#000000" fill-opacity="0.00000" height="473.9922" width="8" x="476.8501" y="81.2969"/><line style="stroke:#181818;stroke-width:0.5;stroke-dasharray:5,5;" x1="480.5332" x2="480.5332" y1="81.2969" y2="555.2891"/></g></g><g class="participant-lifeline" data-entity-uid="part6" data-qualified-name="DB" id="part6-lifeline"><g><title>DB</title><rect fill="#000000" fill-opacity="0.00000" height="473.9922" width="8" x="667.3047" y="81.2969"/><line style="stroke:#181818;stroke-width:0.5;stroke-dasharray:5,5;" x1="671.3047" x2="671.3047" y1="81.2969" y2="555.2891"/></g></g><g class="participant-lifeline" data-entity-uid="part7" data-qualified-name="AUD" id="part7-lifeline"><g><title>Auditoria</title><rect fill="#000000" fill-opacity="0.00000" height="473.9922" width="8" x="790.5439" y="81.2969"/><line style="stroke:#181818;stroke-width:0.5;stroke-dasharray:5,5;" x1="793.791" x2="793.791" y1="81.2969" y2="555.2891"/></g></g><g class="participant participant-head" data-entity-uid="part1" data-qualified-name="Capataz" id="part1-head"><text fill="#000000" font-family="sans-serif" font-size="14" lengthAdjust="spacing" textLength="57.2373" x="5" y="77.9951">Capataz</text><ellipse cx="36.6187" cy="13.5" fill="#E2E2F0" rx="8" ry="8" style="stroke:#181818;stroke-width:0.5;"/><path d="M36.6187,21.5 L36.6187,48.5 M23.6187,29.5 L49.6187,29.5 M36.6187,48.5 L23.6187,63.5 M36.6187,48.5 L49.6187,63.5" fill="none" style="stroke:#181818;stroke-width:0.5;"/></g><g class="participant participant-tail" data-entity-uid="part1" data-qualified-name="Capataz" id="part1-tail"><text fill="#000000" font-family="sans-serif" font-size="14" lengthAdjust="spacing" textLength="57.2373" x="5" y="567.2842">Capataz</text><ellipse cx="36.6187" cy="579.0859" fill="#E2E2F0" rx="8" ry="8" style="stroke:#181818;stroke-width:0.5;"/><path d="M36.6187,587.0859 L36.6187,614.0859 M23.6187,595.0859 L49.6187,595.0859 M36.6187,614.0859 L23.6187,629.0859 M36.6187,614.0859 L49.6187,629.0859" fill="none" style="stroke:#181818;stroke-width:0.5;"/></g><g class="participant participant-head" data-entity-uid="part2" data-qualified-name="UI" id="part2-head"><rect fill="#E2E2F0" height="30.2969" rx="2.5" ry="2.5" style="stroke:#181818;stroke-width:0.5;" width="115.6162" x="96.5146" y="50"/><text fill="#000000" font-family="sans-serif" font-size="14" lengthAdjust="spacing" textLength="101.6162" x="103.5146" y="69.9951">UI Parte Diario</text></g><g class="participant participant-tail" data-entity-uid="part2" data-qualified-name="UI" id="part2-tail"><rect fill="#E2E2F0" height="30.2969" rx="2.5" ry="2.5" style="stroke:#181818;stroke-width:0.5;" width="115.6162" x="96.5146" y="554.2891"/><text fill="#000000" font-family="sans-serif" font-size="14" lengthAdjust="spacing" textLength="101.6162" x="103.5146" y="574.2842">UI Parte Diario</text></g><g class="participant participant-head" data-entity-uid="part3" data-qualified-name="PD" id="part3-head"><rect fill="#E2E2F0" height="30.2969" rx="2.5" ry="2.5" style="stroke:#181818;stroke-width:0.5;" width="92.3398" x="245.6172" y="50"/><text fill="#000000" font-family="sans-serif" font-size="14" lengthAdjust="spacing" textLength="78.3398" x="252.6172" y="69.9951">ParteDiario</text></g><g class="participant participant-tail" data-entity-uid="part3" data-qualified-name="PD" id="part3-tail"><rect fill="#E2E2F0" height="30.2969" rx="2.5" ry="2.5" style="stroke:#181818;stroke-width:0.5;" width="92.3398" x="245.6172" y="554.2891"/><text fill="#000000" font-family="sans-serif" font-size="14" lengthAdjust="spacing" textLength="78.3398" x="252.6172" y="574.2842">ParteDiario</text></g><g class="participant participant-head" data-entity-uid="part4" data-qualified-name="C" id="part4-head"><rect fill="#E2E2F0" height="30.2969" rx="2.5" ry="2.5" style="stroke:#181818;stroke-width:0.5;" width="55.5762" x="347.957" y="50"/><text fill="#000000" font-family="sans-serif" font-size="14" lengthAdjust="spacing" textLength="41.5762" x="354.957" y="69.9951">Carga</text></g><g class="participant participant-tail" data-entity-uid="part4" data-qualified-name="C" id="part4-tail"><rect fill="#E2E2F0" height="30.2969" rx="2.5" ry="2.5" style="stroke:#181818;stroke-width:0.5;" width="55.5762" x="347.957" y="554.2891"/><text fill="#000000" font-family="sans-serif" font-size="14" lengthAdjust="spacing" textLength="41.5762" x="354.957" y="574.2842">Carga</text></g><g class="participant participant-head" data-entity-uid="part5" data-qualified-name="MS" id="part5-head"><rect fill="#E2E2F0" height="30.2969" rx="2.5" ry="2.5" style="stroke:#181818;stroke-width:0.5;" width="134.6338" x="413.5332" y="50"/><text fill="#000000" font-family="sans-serif" font-size="14" lengthAdjust="spacing" textLength="120.6338" x="420.5332" y="69.9951">MovimientoStock</text></g><g class="participant participant-tail" data-entity-uid="part5" data-qualified-name="MS" id="part5-tail"><rect fill="#E2E2F0" height="30.2969" rx="2.5" ry="2.5" style="stroke:#181818;stroke-width:0.5;" width="134.6338" x="413.5332" y="554.2891"/><text fill="#000000" font-family="sans-serif" font-size="14" lengthAdjust="spacing" textLength="120.6338" x="420.5332" y="574.2842">MovimientoStock</text></g><g class="participant participant-head" data-entity-uid="part6" data-qualified-name="DB" id="part6-head"><text fill="#000000" font-family="sans-serif" font-size="14" lengthAdjust="spacing" textLength="20.3848" x="658.1123" y="77.9951">DB</text><path d="M653.3047,29 C653.3047,19 671.3047,19 671.3047,19 C671.3047,19 689.3047,19 689.3047,29 L689.3047,55 C689.3047,65 671.3047,65 671.3047,65 C671.3047,65 653.3047,65 653.3047,55 L653.3047,29" fill="#E2E2F0" style="stroke:#181818;stroke-width:0.5;"/><path d="M653.3047,29 C653.3047,39 671.3047,39 671.3047,39 C671.3047,39 689.3047,39 689.3047,29" fill="none" style="stroke:#181818;stroke-width:0.5;"/></g><g class="participant participant-tail" data-entity-uid="part6" data-qualified-name="DB" id="part6-tail"><text fill="#000000" font-family="sans-serif" font-size="14" lengthAdjust="spacing" textLength="20.3848" x="658.1123" y="567.2842">DB</text><path d="M653.3047,580.5859 C653.3047,570.5859 671.3047,570.5859 671.3047,570.5859 C671.3047,570.5859 689.3047,570.5859 689.3047,580.5859 L689.3047,606.5859 C689.3047,616.5859 671.3047,616.5859 671.3047,616.5859 C671.3047,616.5859 653.3047,616.5859 653.3047,606.5859 L653.3047,580.5859" fill="#E2E2F0" style="stroke:#181818;stroke-width:0.5;"/><path d="M653.3047,580.5859 C653.3047,590.5859 671.3047,590.5859 671.3047,590.5859 C671.3047,590.5859 689.3047,590.5859 689.3047,580.5859" fill="none" style="stroke:#181818;stroke-width:0.5;"/></g><g class="participant participant-head" data-entity-uid="part7" data-qualified-name="AUD" id="part7-head"><rect fill="#E2E2F0" height="30.2969" rx="2.5" ry="2.5" style="stroke:#181818;stroke-width:0.5;" width="77.5059" x="755.791" y="50"/><text fill="#000000" font-family="sans-serif" font-size="14" lengthAdjust="spacing" textLength="63.5059" x="762.791" y="69.9951">Auditoria</text></g><g class="participant participant-tail" data-entity-uid="part7" data-qualified-name="AUD" id="part7-tail"><rect fill="#E2E2F0" height="30.2969" rx="2.5" ry="2.5" style="stroke:#181818;stroke-width:0.5;" width="77.5059" x="755.791" y="554.2891"/><text fill="#000000" font-family="sans-serif" font-size="14" lengthAdjust="spacing" textLength="63.5059" x="762.791" y="574.2842">Auditoria</text></g><g class="message" data-entity-1="part1" data-entity-2="part2" id="msg1"><polygon fill="#181818" points="142.3228,108.4297,152.3228,112.4297,142.3228,116.4297,146.3228,112.4297" style="stroke:#181818;stroke-width:1;"/><line style="stroke:#181818;stroke-width:1;" x1="36.6187" x2="148.3228" y1="112.4297" y2="112.4297"/><text fill="#000000" font-family="sans-serif" font-size="13" lengthAdjust="spacing" textLength="93.7041" x="43.6187" y="107.3638">ingresar datos</text></g><g class="message" data-entity-1="part2" data-entity-2="part2" id="msg2"><line style="stroke:#181818;stroke-width:1;" x1="154.3228" x2="196.3228" y1="141.5625" y2="141.5625"/><line style="stroke:#181818;stroke-width:1;" x1="196.3228" x2="196.3228" y1="141.5625" y2="154.5625"/><line style="stroke:#181818;stroke-width:1;" x1="155.3228" x2="196.3228" y1="154.5625" y2="154.5625"/><polygon fill="#181818" points="165.3228,150.5625,155.3228,154.5625,165.3228,158.5625,161.3228,154.5625" style="stroke:#181818;stroke-width:1;"/><text fill="#000000" font-family="sans-serif" font-size="13" lengthAdjust="spacing" textLength="44.4463" x="161.3228" y="136.4966">validar</text></g><g class="message" data-entity-1="part2" data-entity-2="part3" id="msg3"><polygon fill="#181818" points="279.7871,179.6953,289.7871,183.6953,279.7871,187.6953,283.7871,183.6953" style="stroke:#181818;stroke-width:1;"/><line style="stroke:#181818;stroke-width:1;" x1="154.3228" x2="285.7871" y1="183.6953" y2="183.6953"/><text fill="#000000" font-family="sans-serif" font-size="13" lengthAdjust="spacing" textLength="113.4644" x="161.3228" y="178.6294">crear parte diario</text></g><g class="message" data-entity-1="part3" data-entity-2="part6" id="msg4"><polygon fill="#181818" points="659.3047,208.8281,669.3047,212.8281,659.3047,216.8281,663.3047,212.8281" style="stroke:#181818;stroke-width:1;"/><line style="stroke:#181818;stroke-width:1;" x1="291.7871" x2="665.3047" y1="212.8281" y2="212.8281"/><text fill="#000000" font-family="sans-serif" font-size="13" lengthAdjust="spacing" textLength="125.8677" x="298.7871" y="207.7622">insert parte_diarios</text></g><path d="M86.5146,227.8281 L150.9575,227.8281 L150.9575,234.9609 L140.9575,244.9609 L86.5146,244.9609 L86.5146,227.8281" fill="#EEEEEE" style="stroke:#000000;stroke-width:1.5;"/><rect fill="none" height="75.3984" style="stroke:#000000;stroke-width:1.5;" width="612.79" x="86.5146" y="227.8281"/><text fill="#000000" font-family="sans-serif" font-size="13" font-weight="bold" lengthAdjust="spacing" textLength="19.4429" x="101.5146" y="240.895">alt</text><text fill="#000000" font-family="sans-serif" font-size="11" font-weight="bold" lengthAdjust="spacing" textLength="77.0054" x="165.9575" y="240.0386">[con cargas]</text><g class="message" data-entity-1="part2" data-entity-2="part4" id="msg5"><polygon fill="#181818" points="363.7451,262.0938,373.7451,266.0938,363.7451,270.0938,367.7451,266.0938" style="stroke:#181818;stroke-width:1;"/><line style="stroke:#181818;stroke-width:1;" x1="154.3228" x2="369.7451" y1="266.0938" y2="266.0938"/><text fill="#000000" font-family="sans-serif" font-size="13" lengthAdjust="spacing" textLength="81.3833" x="161.3228" y="261.0278">crear cargas</text></g><g class="message" data-entity-1="part4" data-entity-2="part6" id="msg6"><polygon fill="#181818" points="659.3047,291.2266,669.3047,295.2266,659.3047,299.2266,663.3047,295.2266" style="stroke:#181818;stroke-width:1;"/><line style="stroke:#181818;stroke-width:1;" x1="375.7451" x2="665.3047" y1="295.2266" y2="295.2266"/><text fill="#000000" font-family="sans-serif" font-size="13" lengthAdjust="spacing" textLength="147.9829" x="382.7451" y="290.1606">insert cargas y pivotes</text></g><path d="M86.5146,317.2266 L150.9575,317.2266 L150.9575,324.3594 L140.9575,334.3594 L86.5146,334.3594 L86.5146,317.2266" fill="#EEEEEE" style="stroke:#000000;stroke-width:1.5;"/><rect fill="none" height="75.3984" style="stroke:#000000;stroke-width:1.5;" width="612.79" x="86.5146" y="317.2266"/><text fill="#000000" font-family="sans-serif" font-size="13" font-weight="bold" lengthAdjust="spacing" textLength="19.4429" x="101.5146" y="330.2935">alt</text><text fill="#000000" font-family="sans-serif" font-size="11" font-weight="bold" lengthAdjust="spacing" textLength="87.3394" x="165.9575" y="329.437">[con insumos]</text><g class="message" data-entity-1="part2" data-entity-2="part5" id="msg7"><polygon fill="#181818" points="468.8501,351.4922,478.8501,355.4922,468.8501,359.4922,472.8501,355.4922" style="stroke:#181818;stroke-width:1;"/><line style="stroke:#181818;stroke-width:1;" x1="154.3228" x2="474.8501" y1="355.4922" y2="355.4922"/><text fill="#000000" font-family="sans-serif" font-size="13" lengthAdjust="spacing" textLength="104.8188" x="161.3228" y="350.4263">registrar salidas</text></g><g class="message" data-entity-1="part5" data-entity-2="part6" id="msg8"><polygon fill="#181818" points="659.3047,380.625,669.3047,384.625,659.3047,388.625,663.3047,384.625" style="stroke:#181818;stroke-width:1;"/><line style="stroke:#181818;stroke-width:1;" x1="480.8501" x2="665.3047" y1="384.625" y2="384.625"/><text fill="#000000" font-family="sans-serif" font-size="13" lengthAdjust="spacing" textLength="166.4546" x="487.8501" y="379.5591">insert movimientos_stock</text></g><g class="message" data-entity-1="part2" data-entity-2="part3" id="msg9"><polygon fill="#181818" points="279.7871,416.7578,289.7871,420.7578,279.7871,424.7578,283.7871,420.7578" style="stroke:#181818;stroke-width:1;"/><line style="stroke:#181818;stroke-width:1;" x1="154.3228" x2="285.7871" y1="420.7578" y2="420.7578"/><text fill="#000000" font-family="sans-serif" font-size="13" lengthAdjust="spacing" textLength="96.8652" x="161.3228" y="415.6919">calcular costos</text></g><g class="message" data-entity-1="part3" data-entity-2="part6" id="msg10"><polygon fill="#181818" points="659.3047,445.8906,669.3047,449.8906,659.3047,453.8906,663.3047,449.8906" style="stroke:#181818;stroke-width:1;"/><line style="stroke:#181818;stroke-width:1;" x1="291.7871" x2="665.3047" y1="449.8906" y2="449.8906"/><text fill="#000000" font-family="sans-serif" font-size="13" lengthAdjust="spacing" textLength="91.6348" x="298.7871" y="444.8247">update costos</text></g><g class="message" data-entity-1="part2" data-entity-2="part7" id="msg11"><polygon fill="#181818" points="782.5439,475.0234,792.5439,479.0234,782.5439,483.0234,786.5439,479.0234" style="stroke:#181818;stroke-width:1;"/><line style="stroke:#181818;stroke-width:1;" x1="154.3228" x2="788.5439" y1="479.0234" y2="479.0234"/><text fill="#000000" font-family="sans-serif" font-size="13" lengthAdjust="spacing" textLength="101.9307" x="161.3228" y="473.9575">registrar accion</text></g><g class="message" data-entity-1="part7" data-entity-2="part6" id="msg12"><polygon fill="#181818" points="682.3047,504.1563,672.3047,508.1563,682.3047,512.1563,678.3047,508.1563" style="stroke:#181818;stroke-width:1;"/><line style="stroke:#181818;stroke-width:1;" x1="676.3047" x2="793.5439" y1="508.1563" y2="508.1563"/><text fill="#000000" font-family="sans-serif" font-size="13" lengthAdjust="spacing" textLength="99.2393" x="688.3047" y="503.0903">insert auditoria</text></g><g class="message" data-entity-1="part2" data-entity-2="part1" id="msg13"><polygon fill="#181818" points="47.6187,533.2891,37.6187,537.2891,47.6187,541.2891,43.6187,537.2891" style="stroke:#181818;stroke-width:1;"/><line style="stroke:#181818;stroke-width:1;stroke-dasharray:2,2;" x1="41.6187" x2="153.3228" y1="537.2891" y2="537.2891"/><text fill="#000000" font-family="sans-serif" font-size="13" lengthAdjust="spacing" textLength="84.4556" x="53.6187" y="532.2231">confirmacion</text></g><?plantuml-src NP7DReGm38JlUGgBUr-0GwM5NFQ0X8GuhzoG8gj0K1oGsgTlVc3vEUAnFsOcg9onKEAC3l_4ZDQHeXad1rdxXDf_Qv24bam6oD0-hpjnuQJNyggNQ7kCIdaLAhFII7fofd56_SILgX6Tj_65h26JHPp9udhtM3hoZYb17wqKOZCF7v_UNWuqzLOpMl0imyAds8GL1-hGRfDQvg2izdjp3Dd54AAMGPH5uB2sBgclfB8GE3XGPW8LWh40IBHoXxtdvOsJ1FY5cLRZD0izTGVEBosZENXLauFLFR6p7ihHUL2hveOTtptoYqEJYNlAY8DQXk3CSEZZ2BZClY6zpzE5B_JyOrIAp2JyzFPRt9yXteK2qYFa8SqtsH73uJy0?></g></svg>