<?plantuml 1.2026.2beta3?><svg xmlns="http://www.w3.org/2000/svg" xmlns:xlink="http://www.w3.org/1999/xlink" contentStyleType="text/css" data-diagram-type="CLASS" height="410px" preserveAspectRatio="none" style="width:668px;height:410px;background:#FFFFFF;" version="1.1" viewBox="0 0 668 410" width="668px" zoomAndPan="magnify"><defs/><g><!--class Lote--><g class="entity" data-qualified-name="Lote" data-source-line="1" id="ent0002"><rect fill="#F1F1F1" height="64.2969" rx="2.5" ry="2.5" style="stroke:#181818;stroke-width:0.5;" width="62.4678" x="7" y="148.6"/><ellipse cx="22" cy="164.6" fill="#ADD1B2" rx="11" ry="11" style="stroke:#181818;stroke-width:1;"/><path d="M24.9688,170.2406 Q24.3906,170.5375 23.75,170.6781 Q23.1094,170.8344 22.4063,170.8344 Q19.9063,170.8344 18.5781,169.1938 Q17.2656,167.5375 17.2656,164.4125 Q17.2656,161.2875 18.5781,159.6313 Q19.9063,157.975 22.4063,157.975 Q23.1094,157.975 23.75,158.1313 Q24.4063,158.2875 24.9688,158.5844 L24.9688,161.3031 Q24.3438,160.725 23.75,160.4594 Q23.1563,160.1781 22.5313,160.1781 Q21.1875,160.1781 20.5,161.2563 Q19.8125,162.3188 19.8125,164.4125 Q19.8125,166.5063 20.5,167.5844 Q21.1875,168.6469 22.5313,168.6469 Q23.1563,168.6469 23.75,168.3813 Q24.3438,168.1 24.9688,167.5219 L24.9688,170.2406 Z " fill="#000000"/><text fill="#000000" font-family="sans-serif" font-size="14" lengthAdjust="spacing" textLength="30.4678" x="36" y="169.4467">Lote</text><line style="stroke:#181818;stroke-width:0.5;" x1="8" x2="68.4678" y1="180.6" y2="180.6"/><text fill="#000000" font-family="sans-serif" font-size="14" lengthAdjust="spacing" textLength="46.334" x="13" y="197.5951">id_lote</text><line style="stroke:#181818;stroke-width:0.5;" x1="8" x2="68.4678" y1="204.8969" y2="204.8969"/></g><!--class LoteTarea--><g class="entity" data-qualified-name="LoteTarea" data-source-line="4" id="ent0003"><rect fill="#F1F1F1" height="113.1875" rx="2.5" ry="2.5" style="stroke:#181818;stroke-width:0.5;" width="104.8936" x="69.79" y="289.89"/><ellipse cx="85.846" cy="305.89" fill="#ADD1B2" rx="11" ry="11" style="stroke:#181818;stroke-width:1;"/><path d="M88.8148,311.5306 Q88.2366,311.8275 87.596,311.9681 Q86.9554,312.1244 86.2523,312.1244 Q83.7523,312.1244 82.4241,310.4838 Q81.1116,308.8275 81.1116,305.7025 Q81.1116,302.5775 82.4241,300.9213 Q83.7523,299.265 86.2523,299.265 Q86.9554,299.265 87.596,299.4213 Q88.2523,299.5775 88.8148,299.8744 L88.8148,302.5931 Q88.1898,302.015 87.596,301.7494 Q87.0023,301.4681 86.3773,301.4681 Q85.0335,301.4681 84.346,302.5463 Q83.6585,303.6088 83.6585,305.7025 Q83.6585,307.7963 84.346,308.8744 Q85.0335,309.9369 86.3773,309.9369 Q87.0023,309.9369 87.596,309.6713 Q88.1898,309.39 88.8148,308.8119 L88.8148,311.5306 Z " fill="#000000"/><text fill="#000000" font-family="sans-serif" font-size="14" lengthAdjust="spacing" textLength="70.5469" x="100.0807" y="310.7367">LoteTarea</text><line style="stroke:#181818;stroke-width:0.5;" x1="70.79" x2="173.6836" y1="321.89" y2="321.89"/><text fill="#000000" font-family="sans-serif" font-size="14" lengthAdjust="spacing" textLength="90.3506" x="75.79" y="338.8851">id_lote_tarea</text><text fill="#000000" font-family="sans-serif" font-size="14" lengthAdjust="spacing" textLength="70.8477" x="75.79" y="355.182">tipo_tarea</text><text fill="#000000" font-family="sans-serif" font-size="14" lengthAdjust="spacing" textLength="92.8936" x="75.79" y="371.4789">superficie_ha</text><text fill="#000000" font-family="sans-serif" font-size="14" lengthAdjust="spacing" textLength="47.4277" x="75.79" y="387.7757">estado</text><line style="stroke:#181818;stroke-width:0.5;" x1="70.79" x2="173.6836" y1="395.0775" y2="395.0775"/></g><!--class AllocationProposal--><g class="entity" data-qualified-name="AllocationProposal" data-source-line="10" id="ent0004"><rect fill="#F1F1F1" height="80.5938" rx="2.5" ry="2.5" style="stroke:#181818;stroke-width:0.5;" width="160.9941" x="145.74" y="7"/><ellipse cx="160.74" cy="23" fill="#ADD1B2" rx="11" ry="11" style="stroke:#181818;stroke-width:1;"/><path d="M163.7088,28.6406 Q163.1306,28.9375 162.49,29.0781 Q161.8494,29.2344 161.1463,29.2344 Q158.6463,29.2344 157.3181,27.5938 Q156.0056,25.9375 156.0056,22.8125 Q156.0056,19.6875 157.3181,18.0313 Q158.6463,16.375 161.1463,16.375 Q161.8494,16.375 162.49,16.5313 Q163.1463,16.6875 163.7088,16.9844 L163.7088,19.7031 Q163.0838,19.125 162.49,18.8594 Q161.8963,18.5781 161.2713,18.5781 Q159.9275,18.5781 159.24,19.6563 Q158.5525,20.7188 158.5525,22.8125 Q158.5525,24.9063 159.24,25.9844 Q159.9275,27.0469 161.2713,27.0469 Q161.8963,27.0469 162.49,26.7813 Q163.0838,26.5 163.7088,25.9219 L163.7088,28.6406 Z " fill="#000000"/><text fill="#000000" font-family="sans-serif" font-size="14" lengthAdjust="spacing" textLength="128.9941" x="174.74" y="27.8467">AllocationProposal</text><line style="stroke:#181818;stroke-width:0.5;" x1="146.74" x2="305.7341" y1="39" y2="39"/><text fill="#000000" font-family="sans-serif" font-size="14" lengthAdjust="spacing" textLength="90.7197" x="151.74" y="55.9951">id_propuesta</text><text fill="#000000" font-family="sans-serif" font-size="14" lengthAdjust="spacing" textLength="43.0186" x="151.74" y="72.292">status</text><line style="stroke:#181818;stroke-width:0.5;" x1="146.74" x2="305.7341" y1="79.5938" y2="79.5938"/></g><!--class Empleado--><g class="entity" data-qualified-name="Empleado" data-source-line="14" id="ent0005"><rect fill="#F1F1F1" height="64.2969" rx="2.5" ry="2.5" style="stroke:#181818;stroke-width:0.5;" width="101.9043" x="175.28" y="148.6"/><ellipse cx="190.28" cy="164.6" fill="#ADD1B2" rx="11" ry="11" style="stroke:#181818;stroke-width:1;"/><path d="M193.2488,170.2406 Q192.6706,170.5375 192.03,170.6781 Q191.3894,170.8344 190.6863,170.8344 Q188.1863,170.8344 186.8581,169.1938 Q185.5456,167.5375 185.5456,164.4125 Q185.5456,161.2875 186.8581,159.6313 Q188.1863,157.975 190.6863,157.975 Q191.3894,157.975 192.03,158.1313 Q192.6863,158.2875 193.2488,158.5844 L193.2488,161.3031 Q192.6238,160.725 192.03,160.4594 Q191.4363,160.1781 190.8113,160.1781 Q189.4675,160.1781 188.78,161.2563 Q188.0925,162.3188 188.0925,164.4125 Q188.0925,166.5063 188.78,167.5844 Q189.4675,168.6469 190.8113,168.6469 Q191.4363,168.6469 192.03,168.3813 Q192.6238,168.1 193.2488,167.5219 L193.2488,170.2406 Z " fill="#000000"/><text fill="#000000" font-family="sans-serif" font-size="14" lengthAdjust="spacing" textLength="69.9043" x="204.28" y="169.4467">Empleado</text><line style="stroke:#181818;stroke-width:0.5;" x1="176.28" x2="276.1843" y1="180.6" y2="180.6"/><text fill="#000000" font-family="sans-serif" font-size="14" lengthAdjust="spacing" textLength="89.4482" x="181.28" y="197.5951">id_empleado</text><line style="stroke:#181818;stroke-width:0.5;" x1="176.28" x2="276.1843" y1="204.8969" y2="204.8969"/></g><!--class Maquinaria--><g class="entity" data-qualified-name="Maquinaria" data-source-line="17" id="ent0006"><rect fill="#F1F1F1" height="64.2969" rx="2.5" ry="2.5" style="stroke:#181818;stroke-width:0.5;" width="111.3193" x="312.57" y="148.6"/><ellipse cx="328.1707" cy="164.6" fill="#ADD1B2" rx="11" ry="11" style="stroke:#181818;stroke-width:1;"/><path d="M331.1395,170.2406 Q330.5614,170.5375 329.9207,170.6781 Q329.2801,170.8344 328.577,170.8344 Q326.077,170.8344 324.7489,169.1938 Q323.4364,167.5375 323.4364,164.4125 Q323.4364,161.2875 324.7489,159.6313 Q326.077,157.975 328.577,157.975 Q329.2801,157.975 329.9207,158.1313 Q330.577,158.2875 331.1395,158.5844 L331.1395,161.3031 Q330.5145,160.725 329.9207,160.4594 Q329.327,160.1781 328.702,160.1781 Q327.3582,160.1781 326.6707,161.2563 Q325.9832,162.3188 325.9832,164.4125 Q325.9832,166.5063 326.6707,167.5844 Q327.3582,168.6469 328.702,168.6469 Q329.327,168.6469 329.9207,168.3813 Q330.5145,168.1 331.1395,167.5219 L331.1395,170.2406 Z " fill="#000000"/><text fill="#000000" font-family="sans-serif" font-size="14" lengthAdjust="spacing" textLength="77.9844" x="342.3042" y="169.4467">Maquinaria</text><line style="stroke:#181818;stroke-width:0.5;" x1="313.57" x2="422.8893" y1="180.6" y2="180.6"/><text fill="#000000" font-family="sans-serif" font-size="14" lengthAdjust="spacing" textLength="99.3193" x="318.57" y="197.5951">id_maquinaria</text><line style="stroke:#181818;stroke-width:0.5;" x1="313.57" x2="422.8893" y1="204.8969" y2="204.8969"/></g><!--class Insumo--><g class="entity" data-qualified-name="Insumo" data-source-line="20" id="ent0007"><rect fill="#F1F1F1" height="64.2969" rx="2.5" ry="2.5" style="stroke:#181818;stroke-width:0.5;" width="83.3721" x="458.55" y="148.6"/><ellipse cx="473.55" cy="164.6" fill="#ADD1B2" rx="11" ry="11" style="stroke:#181818;stroke-width:1;"/><path d="M476.5188,170.2406 Q475.9406,170.5375 475.3,170.6781 Q474.6594,170.8344 473.9563,170.8344 Q471.4563,170.8344 470.1281,169.1938 Q468.8156,167.5375 468.8156,164.4125 Q468.8156,161.2875 470.1281,159.6313 Q471.4563,157.975 473.9563,157.975 Q474.6594,157.975 475.3,158.1313 Q475.9563,158.2875 476.5188,158.5844 L476.5188,161.3031 Q475.8938,160.725 475.3,160.4594 Q474.7063,160.1781 474.0813,160.1781 Q472.7375,160.1781 472.05,161.2563 Q471.3625,162.3188 471.3625,164.4125 Q471.3625,166.5063 472.05,167.5844 Q472.7375,168.6469 474.0813,168.6469 Q474.7063,168.6469 475.3,168.3813 Q475.8938,168.1 476.5188,167.5219 L476.5188,170.2406 Z " fill="#000000"/><text fill="#000000" font-family="sans-serif" font-size="14" lengthAdjust="spacing" textLength="51.3721" x="487.55" y="169.4467">Insumo</text><line style="stroke:#181818;stroke-width:0.5;" x1="459.55" x2="540.9221" y1="180.6" y2="180.6"/><text fill="#000000" font-family="sans-serif" font-size="14" lengthAdjust="spacing" textLength="70.9092" x="464.55" y="197.5951">id_insumo</text><line style="stroke:#181818;stroke-width:0.5;" x1="459.55" x2="540.9221" y1="204.8969" y2="204.8969"/></g><!--class Usuario--><g class="entity" data-qualified-name="Usuario" data-source-line="23" id="ent0008"><rect fill="#F1F1F1" height="64.2969" rx="2.5" ry="2.5" style="stroke:#181818;stroke-width:0.5;" width="85.2041" x="576.63" y="148.6"/><ellipse cx="591.63" cy="164.6" fill="#ADD1B2" rx="11" ry="11" style="stroke:#181818;stroke-width:1;"/><path d="M594.5988,170.2406 Q594.0206,170.5375 593.38,170.6781 Q592.7394,170.8344 592.0363,170.8344 Q589.5363,170.8344 588.2081,169.1938 Q586.8956,167.5375 586.8956,164.4125 Q586.8956,161.2875 588.2081,159.6313 Q589.5363,157.975 592.0363,157.975 Q592.7394,157.975 593.38,158.1313 Q594.0363,158.2875 594.5988,158.5844 L594.5988,161.3031 Q593.9738,160.725 593.38,160.4594 Q592.7863,160.1781 592.1613,160.1781 Q590.8175,160.1781 590.13,161.2563 Q589.4425,162.3188 589.4425,164.4125 Q589.4425,166.5063 590.13,167.5844 Q590.8175,168.6469 592.1613,168.6469 Q592.7863,168.6469 593.38,168.3813 Q593.9738,168.1 594.5988,167.5219 L594.5988,170.2406 Z " fill="#000000"/><text fill="#000000" font-family="sans-serif" font-size="14" lengthAdjust="spacing" textLength="53.2041" x="605.63" y="169.4467">Usuario</text><line style="stroke:#181818;stroke-width:0.5;" x1="577.63" x2="660.8341" y1="180.6" y2="180.6"/><text fill="#000000" font-family="sans-serif" font-size="14" lengthAdjust="spacing" textLength="71.6064" x="582.63" y="197.5951">id_usuario</text><line style="stroke:#181818;stroke-width:0.5;" x1="577.63" x2="660.8341" y1="204.8969" y2="204.8969"/></g><!--link Lote to LoteTarea--><g class="link" data-entity-1="ent0002" data-entity-2="ent0003" data-link-type="association" data-source-line="27" id="lnk9"><path codeLine="27" d="M54.43,213.32 C65.49,234.88 80.45,264.03 93.5,289.48" fill="none" id="Lote-LoteTarea" style="stroke:#181818;stroke-width:1;"/><text fill="#000000" font-family="sans-serif" font-size="13" lengthAdjust="spacing" textLength="8.271" x="48.7807" y="233.0382">1</text><text fill="#000000" font-family="sans-serif" font-size="13" lengthAdjust="spacing" textLength="23.0356" x="65.5983" y="278.6936">0..*</text></g><!--link AllocationProposal to Lote--><g class="link" data-entity-1="ent0004" data-entity-2="ent0002" data-link-type="dependency" data-source-line="28" id="lnk10"><path codeLine="28" d="M145.3,86.09 C128.44,95.42 111.25,106.07 96.23,117.6 C84.65,126.49 77.3715,133.3472 67.8615,143.8772" fill="none" id="AllocationProposal-to-Lote" style="stroke:#181818;stroke-width:1;"/><polygon fill="#181818" points="63.84,148.33,72.8408,144.3318,67.1912,144.6193,66.9037,138.9698,63.84,148.33" style="stroke:#181818;stroke-width:1;"/><text fill="#000000" font-family="sans-serif" font-size="13" lengthAdjust="spacing" textLength="23.0356" x="114.6465" y="85.7539">0..*</text><text fill="#000000" font-family="sans-serif" font-size="13" lengthAdjust="spacing" textLength="8.271" x="60.1204" y="137.551">1</text></g><!--link AllocationProposal to LoteTarea--><g class="link" data-entity-1="ent0004" data-entity-2="ent0003" data-link-type="dependency" data-source-line="29" id="lnk11"><path codeLine="29" d="M193.66,88.06 C180.78,105.65 167,127.18 158.23,148.6 C139.68,193.94 131.2972,243.105 126.9172,283.475" fill="none" id="AllocationProposal-to-LoteTarea" style="stroke:#181818;stroke-width:1;"/><polygon fill="#181818" points="126.27,289.44,131.2174,280.924,126.8093,284.4692,123.2641,280.0611,126.27,289.44" style="stroke:#181818;stroke-width:1;"/><text fill="#000000" font-family="sans-serif" font-size="13" lengthAdjust="spacing" textLength="23.0356" x="163.9134" y="107.5274">0..*</text><text fill="#000000" font-family="sans-serif" font-size="13" lengthAdjust="spacing" textLength="24.8066" x="101.3482" y="278.6487">0..1</text></g><!--link AllocationProposal to Empleado--><g class="link" data-entity-1="ent0004" data-entity-2="ent0005" data-link-type="association" data-source-line="30" id="lnk12"><path codeLine="30" d="M226.23,88.09 C226.23,107.44 226.23,130.35 226.23,148.43" fill="none" id="AllocationProposal-Empleado" style="stroke:#181818;stroke-width:1;"/><text fill="#000000" font-family="sans-serif" font-size="13" lengthAdjust="spacing" textLength="23.0356" x="201.4707" y="107.5619">0..*</text><text fill="#000000" font-family="sans-serif" font-size="13" lengthAdjust="spacing" textLength="23.0356" x="200.8614" y="137.298">0..*</text></g><!--link AllocationProposal to Maquinaria--><g class="link" data-entity-1="ent0004" data-entity-2="ent0006" data-link-type="association" data-source-line="31" id="lnk13"><path codeLine="31" d="M269.22,88.09 C290.12,107.44 314.87,130.35 334.4,148.43" fill="none" id="AllocationProposal-Maquinaria" style="stroke:#181818;stroke-width:1;"/><text fill="#000000" font-family="sans-serif" font-size="13" lengthAdjust="spacing" textLength="23.0356" x="251.0436" y="107.5619">0..*</text><text fill="#000000" font-family="sans-serif" font-size="13" lengthAdjust="spacing" textLength="23.0356" x="302.0544" y="137.298">0..*</text></g><!--link AllocationProposal to Insumo--><g class="link" data-entity-1="ent0004" data-entity-2="ent0007" data-link-type="association" data-source-line="32" id="lnk14"><path codeLine="32" d="M307.09,84.87 C347.59,103.48 397.25,126.74 441.23,148.6 C446.73,151.33 452.48,154.26 458.14,157.2" fill="none" id="AllocationProposal-Insumo" style="stroke:#181818;stroke-width:1;"/><text fill="#000000" font-family="sans-serif" font-size="13" lengthAdjust="spacing" textLength="23.0356" x="314.7395" y="84.4328">0..*</text><text fill="#000000" font-family="sans-serif" font-size="13" lengthAdjust="spacing" textLength="23.0356" x="427.6056" y="149.91">0..*</text></g><!--link Usuario to LoteTarea--><g class="link" data-entity-1="ent0008" data-entity-2="ent0003" data-link-type="association" data-source-line="33" id="lnk15"><path codeLine="33" d="M576.42,205.17 C570.72,207.94 564.89,210.59 559.23,212.89 C424.49,267.76 258.39,312.1 175.11,332.81" fill="none" id="Usuario-LoteTarea" style="stroke:#181818;stroke-width:1;"/><text fill="#000000" font-family="sans-serif" font-size="13" lengthAdjust="spacing" textLength="54.9834" x="479.23" y="255.9569">planifica</text><text fill="#000000" font-family="sans-serif" font-size="13" lengthAdjust="spacing" textLength="8.271" x="560.3975" y="205.1567">1</text><text fill="#000000" font-family="sans-serif" font-size="13" lengthAdjust="spacing" textLength="23.0356" x="182.5552" y="327.4364">0..*</text></g><?plantuml-src ZP4n2y8m48Nt_8hGKKYnguFWu20eEEXSZZRYGPh49fd4_sxIDbS7nMxtyhuySY-D0kVuqNZ9dunpR6iLP_PY3HaNw2LykhLF9r5xj8Q42rRsDsnGrlUafVFG6ahQAMKQy6ZqkJVME50vqaOT4fr2FFZWwDA-iqh6b8pAIHDmWaT03JtI0piw8UYWNUWe0mT5vjM529CRHXbjDfHIL0KNWXVhibmLSntiopeJ8yHsk9NOVrWSgwMfUSgTB8BdVXRXOrCiT_9ZURxXLe76-Ddm1W00?></g></svg>