<?plantuml 1.2026.2beta3?><svg xmlns="http://www.w3.org/2000/svg" xmlns:xlink="http://www.w3.org/1999/xlink" contentStyleType="text/css" data-diagram-type="CLASS" height="458px" preserveAspectRatio="none" style="width:764px;height:458px;background:#FFFFFF;" version="1.1" viewBox="0 0 764 458" width="764px" zoomAndPan="magnify"><defs/><g><!--class Lote--><g class="entity" data-qualified-name="Lote" data-source-line="1" id="ent0002"><rect fill="#F1F1F1" height="80.5938" rx="2.5" ry="2.5" style="stroke:#181818;stroke-width:0.5;" width="80.4414" x="189.74" y="7"/><ellipse cx="212.8281" cy="23" fill="#ADD1B2" rx="11" ry="11" style="stroke:#181818;stroke-width:1;"/><path d="M215.7969,28.6406 Q215.2188,28.9375 214.5781,29.0781 Q213.9375,29.2344 213.2344,29.2344 Q210.7344,29.2344 209.4063,27.5938 Q208.0938,25.9375 208.0938,22.8125 Q208.0938,19.6875 209.4063,18.0313 Q210.7344,16.375 213.2344,16.375 Q213.9375,16.375 214.5781,16.5313 Q215.2344,16.6875 215.7969,16.9844 L215.7969,19.7031 Q215.1719,19.125 214.5781,18.8594 Q213.9844,18.5781 213.3594,18.5781 Q212.0156,18.5781 211.3281,19.6563 Q210.6406,20.7188 210.6406,22.8125 Q210.6406,24.9063 211.3281,25.9844 Q212.0156,27.0469 213.3594,27.0469 Q213.9844,27.0469 214.5781,26.7813 Q215.1719,26.5 215.7969,25.9219 L215.7969,28.6406 Z " fill="#000000"/><text fill="#000000" font-family="sans-serif" font-size="14" lengthAdjust="spacing" textLength="30.4678" x="228.6255" y="27.8467">Lote</text><line style="stroke:#181818;stroke-width:0.5;" x1="190.74" x2="269.1814" y1="39" y2="39"/><text fill="#000000" font-family="sans-serif" font-size="14" lengthAdjust="spacing" textLength="46.334" x="195.74" y="55.9951">id_lote</text><text fill="#000000" font-family="sans-serif" font-size="14" lengthAdjust="spacing" textLength="68.4414" x="195.74" y="72.292">superficie</text><line style="stroke:#181818;stroke-width:0.5;" x1="190.74" x2="269.1814" y1="79.5938" y2="79.5938"/></g><!--class ParteDiario--><g class="entity" data-qualified-name="ParteDiario" data-source-line="5" id="ent0003"><rect fill="#F1F1F1" height="96.8906" rx="2.5" ry="2.5" style="stroke:#181818;stroke-width:0.5;" width="115.667" x="231.13" y="164.59"/><ellipse cx="248.5272" cy="180.59" fill="#ADD1B2" rx="11" ry="11" style="stroke:#181818;stroke-width:1;"/><path d="M251.496,186.2306 Q250.9178,186.5275 250.2772,186.6681 Q249.6366,186.8244 248.9335,186.8244 Q246.4335,186.8244 245.1053,185.1838 Q243.7928,183.5275 243.7928,180.4025 Q243.7928,177.2775 245.1053,175.6213 Q246.4335,173.965 248.9335,173.965 Q249.6366,173.965 250.2772,174.1213 Q250.9335,174.2775 251.496,174.5744 L251.496,177.2931 Q250.871,176.715 250.2772,176.4494 Q249.6835,176.1681 249.0585,176.1681 Q247.7147,176.1681 247.0272,177.2463 Q246.3397,178.3088 246.3397,180.4025 Q246.3397,182.4963 247.0272,183.5744 Q247.7147,184.6369 249.0585,184.6369 Q249.6835,184.6369 250.2772,184.3713 Q250.871,184.09 251.496,183.5119 L251.496,186.2306 Z " fill="#000000"/><text fill="#000000" font-family="sans-serif" font-size="14" lengthAdjust="spacing" textLength="78.3398" x="263.0599" y="185.4367">ParteDiario</text><line style="stroke:#181818;stroke-width:0.5;" x1="232.13" x2="345.797" y1="196.59" y2="196.59"/><text fill="#000000" font-family="sans-serif" font-size="14" lengthAdjust="spacing" textLength="103.667" x="237.13" y="213.5851">id_parte_diario</text><text fill="#000000" font-family="sans-serif" font-size="14" lengthAdjust="spacing" textLength="38.6914" x="237.13" y="229.882">fecha</text><text fill="#000000" font-family="sans-serif" font-size="14" lengthAdjust="spacing" textLength="88.8809" x="237.13" y="246.1789">es_dia_caido</text><line style="stroke:#181818;stroke-width:0.5;" x1="232.13" x2="345.797" y1="253.4806" y2="253.4806"/></g><!--class Carga--><g class="entity" data-qualified-name="Carga" data-source-line="10" id="ent0004"><rect fill="#F1F1F1" height="113.1875" rx="2.5" ry="2.5" style="stroke:#181818;stroke-width:0.5;" width="89.9297" x="7" y="338.48"/><ellipse cx="29.3591" cy="354.48" fill="#ADD1B2" rx="11" ry="11" style="stroke:#181818;stroke-width:1;"/><path d="M32.3278,360.1206 Q31.7497,360.4175 31.1091,360.5581 Q30.4685,360.7144 29.7653,360.7144 Q27.2653,360.7144 25.9372,359.0738 Q24.6247,357.4175 24.6247,354.2925 Q24.6247,351.1675 25.9372,349.5113 Q27.2653,347.855 29.7653,347.855 Q30.4685,347.855 31.1091,348.0113 Q31.7653,348.1675 32.3278,348.4644 L32.3278,351.1831 Q31.7028,350.605 31.1091,350.3394 Q30.5153,350.0581 29.8903,350.0581 Q28.5466,350.0581 27.8591,351.1363 Q27.1716,352.1988 27.1716,354.2925 Q27.1716,356.3863 27.8591,357.4644 Q28.5466,358.5269 29.8903,358.5269 Q30.5153,358.5269 31.1091,358.2613 Q31.7028,357.98 32.3278,357.4019 L32.3278,360.1206 Z " fill="#000000"/><text fill="#000000" font-family="sans-serif" font-size="14" lengthAdjust="spacing" textLength="41.5762" x="44.9944" y="359.3267">Carga</text><line style="stroke:#181818;stroke-width:0.5;" x1="8" x2="95.9297" y1="370.48" y2="370.48"/><text fill="#000000" font-family="sans-serif" font-size="14" lengthAdjust="spacing" textLength="59.2744" x="13" y="387.4751">id_carga</text><text fill="#000000" font-family="sans-serif" font-size="14" lengthAdjust="spacing" textLength="77.9297" x="13" y="403.772">peso_bruto</text><text fill="#000000" font-family="sans-serif" font-size="14" lengthAdjust="spacing" textLength="28.4033" x="13" y="420.0689">tara</text><text fill="#000000" font-family="sans-serif" font-size="14" lengthAdjust="spacing" textLength="71.9004" x="13" y="436.3657">peso_neto</text><line style="stroke:#181818;stroke-width:0.5;" x1="8" x2="95.9297" y1="443.6675" y2="443.6675"/></g><!--class MovimientoStock--><g class="entity" data-qualified-name="MovimientoStock" data-source-line="16" id="ent0005"><rect fill="#F1F1F1" height="96.8906" rx="2.5" ry="2.5" style="stroke:#181818;stroke-width:0.5;" width="152.6338" x="131.65" y="346.63"/><ellipse cx="146.65" cy="362.63" fill="#ADD1B2" rx="11" ry="11" style="stroke:#181818;stroke-width:1;"/><path d="M149.6188,368.2706 Q149.0406,368.5675 148.4,368.7081 Q147.7594,368.8644 147.0563,368.8644 Q144.5563,368.8644 143.2281,367.2238 Q141.9156,365.5675 141.9156,362.4425 Q141.9156,359.3175 143.2281,357.6613 Q144.5563,356.005 147.0563,356.005 Q147.7594,356.005 148.4,356.1613 Q149.0563,356.3175 149.6188,356.6144 L149.6188,359.3331 Q148.9938,358.755 148.4,358.4894 Q147.8063,358.2081 147.1813,358.2081 Q145.8375,358.2081 145.15,359.2863 Q144.4625,360.3488 144.4625,362.4425 Q144.4625,364.5363 145.15,365.6144 Q145.8375,366.6769 147.1813,366.6769 Q147.8063,366.6769 148.4,366.4113 Q148.9938,366.13 149.6188,365.5519 L149.6188,368.2706 Z " fill="#000000"/><text fill="#000000" font-family="sans-serif" font-size="14" lengthAdjust="spacing" textLength="120.6338" x="160.65" y="367.4767">MovimientoStock</text><line style="stroke:#181818;stroke-width:0.5;" x1="132.65" x2="283.2838" y1="378.63" y2="378.63"/><text fill="#000000" font-family="sans-serif" font-size="14" lengthAdjust="spacing" textLength="103.2227" x="137.65" y="395.6251">id_movimiento</text><text fill="#000000" font-family="sans-serif" font-size="14" lengthAdjust="spacing" textLength="26.8311" x="137.65" y="411.922">tipo</text><text fill="#000000" font-family="sans-serif" font-size="14" lengthAdjust="spacing" textLength="60.8809" x="137.65" y="428.2189">cantidad</text><line style="stroke:#181818;stroke-width:0.5;" x1="132.65" x2="283.2838" y1="435.5206" y2="435.5206"/></g><!--class Empleado--><g class="entity" data-qualified-name="Empleado" data-source-line="21" id="ent0006"><rect fill="#F1F1F1" height="64.2969" rx="2.5" ry="2.5" style="stroke:#181818;stroke-width:0.5;" width="101.9043" x="319.01" y="362.93"/><ellipse cx="334.01" cy="378.93" fill="#ADD1B2" rx="11" ry="11" style="stroke:#181818;stroke-width:1;"/><path d="M336.9788,384.5706 Q336.4006,384.8675 335.76,385.0081 Q335.1194,385.1644 334.4163,385.1644 Q331.9163,385.1644 330.5881,383.5238 Q329.2756,381.8675 329.2756,378.7425 Q329.2756,375.6175 330.5881,373.9613 Q331.9163,372.305 334.4163,372.305 Q335.1194,372.305 335.76,372.4613 Q336.4163,372.6175 336.9788,372.9144 L336.9788,375.6331 Q336.3538,375.055 335.76,374.7894 Q335.1663,374.5081 334.5413,374.5081 Q333.1975,374.5081 332.51,375.5863 Q331.8225,376.6488 331.8225,378.7425 Q331.8225,380.8363 332.51,381.9144 Q333.1975,382.9769 334.5413,382.9769 Q335.1663,382.9769 335.76,382.7113 Q336.3538,382.43 336.9788,381.8519 L336.9788,384.5706 Z " fill="#000000"/><text fill="#000000" font-family="sans-serif" font-size="14" lengthAdjust="spacing" textLength="69.9043" x="348.01" y="383.7767">Empleado</text><line style="stroke:#181818;stroke-width:0.5;" x1="320.01" x2="419.9143" y1="394.93" y2="394.93"/><text fill="#000000" font-family="sans-serif" font-size="14" lengthAdjust="spacing" textLength="89.4482" x="325.01" y="411.9251">id_empleado</text><line style="stroke:#181818;stroke-width:0.5;" x1="320.01" x2="419.9143" y1="419.2269" y2="419.2269"/></g><!--class Maquinaria--><g class="entity" data-qualified-name="Maquinaria" data-source-line="24" id="ent0007"><rect fill="#F1F1F1" height="64.2969" rx="2.5" ry="2.5" style="stroke:#181818;stroke-width:0.5;" width="111.3193" x="456.31" y="362.93"/><ellipse cx="471.9107" cy="378.93" fill="#ADD1B2" rx="11" ry="11" style="stroke:#181818;stroke-width:1;"/><path d="M474.8795,384.5706 Q474.3014,384.8675 473.6607,385.0081 Q473.0201,385.1644 472.317,385.1644 Q469.817,385.1644 468.4889,383.5238 Q467.1764,381.8675 467.1764,378.7425 Q467.1764,375.6175 468.4889,373.9613 Q469.817,372.305 472.317,372.305 Q473.0201,372.305 473.6607,372.4613 Q474.317,372.6175 474.8795,372.9144 L474.8795,375.6331 Q474.2545,375.055 473.6607,374.7894 Q473.067,374.5081 472.442,374.5081 Q471.0982,374.5081 470.4107,375.5863 Q469.7232,376.6488 469.7232,378.7425 Q469.7232,380.8363 470.4107,381.9144 Q471.0982,382.9769 472.442,382.9769 Q473.067,382.9769 473.6607,382.7113 Q474.2545,382.43 474.8795,381.8519 L474.8795,384.5706 Z " fill="#000000"/><text fill="#000000" font-family="sans-serif" font-size="14" lengthAdjust="spacing" textLength="77.9844" x="486.0442" y="383.7767">Maquinaria</text><line style="stroke:#181818;stroke-width:0.5;" x1="457.31" x2="566.6293" y1="394.93" y2="394.93"/><text fill="#000000" font-family="sans-serif" font-size="14" lengthAdjust="spacing" textLength="99.3193" x="462.31" y="411.9251">id_maquinaria</text><line style="stroke:#181818;stroke-width:0.5;" x1="457.31" x2="566.6293" y1="419.2269" y2="419.2269"/></g><!--class Asignacion--><g class="entity" data-qualified-name="Asignacion" data-source-line="27" id="ent0008"><rect fill="#F1F1F1" height="48" rx="2.5" ry="2.5" style="stroke:#181818;stroke-width:0.5;" width="108.125" x="425.9" y="23.29"/><ellipse cx="440.9" cy="39.29" fill="#ADD1B2" rx="11" ry="11" style="stroke:#181818;stroke-width:1;"/><path d="M443.8688,44.9306 Q443.2906,45.2275 442.65,45.3681 Q442.0094,45.5244 441.3063,45.5244 Q438.8063,45.5244 437.4781,43.8838 Q436.1656,42.2275 436.1656,39.1025 Q436.1656,35.9775 437.4781,34.3213 Q438.8063,32.665 441.3063,32.665 Q442.0094,32.665 442.65,32.8213 Q443.3063,32.9775 443.8688,33.2744 L443.8688,35.9931 Q443.2438,35.415 442.65,35.1494 Q442.0563,34.8681 441.4313,34.8681 Q440.0875,34.8681 439.4,35.9463 Q438.7125,37.0088 438.7125,39.1025 Q438.7125,41.1963 439.4,42.2744 Q440.0875,43.3369 441.4313,43.3369 Q442.0563,43.3369 442.65,43.0713 Q443.2438,42.79 443.8688,42.2119 L443.8688,44.9306 Z " fill="#000000"/><text fill="#000000" font-family="sans-serif" font-size="14" lengthAdjust="spacing" textLength="76.125" x="454.9" y="44.1367">Asignacion</text><line style="stroke:#181818;stroke-width:0.5;" x1="426.9" x2="533.025" y1="55.29" y2="55.29"/><line style="stroke:#181818;stroke-width:0.5;" x1="426.9" x2="533.025" y1="63.29" y2="63.29"/></g><!--class MaquinariaParteDiario--><g class="entity" data-qualified-name="MaquinariaParteDiario" data-source-line="28" id="ent0009"><rect fill="#F1F1F1" height="48" rx="2.5" ry="2.5" style="stroke:#181818;stroke-width:0.5;" width="188.3242" x="568.8" y="23.29"/><ellipse cx="583.8" cy="39.29" fill="#ADD1B2" rx="11" ry="11" style="stroke:#181818;stroke-width:1;"/><path d="M586.7688,44.9306 Q586.1906,45.2275 585.55,45.3681 Q584.9094,45.5244 584.2063,45.5244 Q581.7063,45.5244 580.3781,43.8838 Q579.0656,42.2275 579.0656,39.1025 Q579.0656,35.9775 580.3781,34.3213 Q581.7063,32.665 584.2063,32.665 Q584.9094,32.665 585.55,32.8213 Q586.2063,32.9775 586.7688,33.2744 L586.7688,35.9931 Q586.1438,35.415 585.55,35.1494 Q584.9563,34.8681 584.3313,34.8681 Q582.9875,34.8681 582.3,35.9463 Q581.6125,37.0088 581.6125,39.1025 Q581.6125,41.1963 582.3,42.2744 Q582.9875,43.3369 584.3313,43.3369 Q584.9563,43.3369 585.55,43.0713 Q586.1438,42.79 586.7688,42.2119 L586.7688,44.9306 Z " fill="#000000"/><text fill="#000000" font-family="sans-serif" font-size="14" lengthAdjust="spacing" textLength="156.3242" x="597.8" y="44.1367">MaquinariaParteDiario</text><line style="stroke:#181818;stroke-width:0.5;" x1="569.8" x2="756.1242" y1="55.29" y2="55.29"/><line style="stroke:#181818;stroke-width:0.5;" x1="569.8" x2="756.1242" y1="63.29" y2="63.29"/></g><!--class Usuario--><g class="entity" data-qualified-name="Usuario" data-source-line="29" id="ent0010"><rect fill="#F1F1F1" height="64.2969" rx="2.5" ry="2.5" style="stroke:#181818;stroke-width:0.5;" width="85.2041" x="305.36" y="15.15"/><ellipse cx="320.36" cy="31.15" fill="#ADD1B2" rx="11" ry="11" style="stroke:#181818;stroke-width:1;"/><path d="M323.3288,36.7906 Q322.7506,37.0875 322.11,37.2281 Q321.4694,37.3844 320.7663,37.3844 Q318.2663,37.3844 316.9381,35.7438 Q315.6256,34.0875 315.6256,30.9625 Q315.6256,27.8375 316.9381,26.1813 Q318.2663,24.525 320.7663,24.525 Q321.4694,24.525 322.11,24.6813 Q322.7663,24.8375 323.3288,25.1344 L323.3288,27.8531 Q322.7038,27.275 322.11,27.0094 Q321.5163,26.7281 320.8913,26.7281 Q319.5475,26.7281 318.86,27.8063 Q318.1725,28.8688 318.1725,30.9625 Q318.1725,33.0563 318.86,34.1344 Q319.5475,35.1969 320.8913,35.1969 Q321.5163,35.1969 322.11,34.9313 Q322.7038,34.65 323.3288,34.0719 L323.3288,36.7906 Z " fill="#000000"/><text fill="#000000" font-family="sans-serif" font-size="14" lengthAdjust="spacing" textLength="53.2041" x="334.36" y="35.9967">Usuario</text><line style="stroke:#181818;stroke-width:0.5;" x1="306.36" x2="389.5641" y1="47.15" y2="47.15"/><text fill="#000000" font-family="sans-serif" font-size="14" lengthAdjust="spacing" textLength="71.6064" x="311.36" y="64.1451">id_usuario</text><line style="stroke:#181818;stroke-width:0.5;" x1="306.36" x2="389.5641" y1="71.4469" y2="71.4469"/></g><!--link Lote to ParteDiario--><g class="link" data-entity-1="ent0002" data-entity-2="ent0003" data-link-type="association" data-source-line="33" id="lnk11"><path codeLine="33" d="M244.25,87.93 C252.53,110.93 263.03,140.05 271.77,164.31" fill="none" id="Lote-ParteDiario" style="stroke:#181818;stroke-width:1;"/><text fill="#000000" font-family="sans-serif" font-size="13" lengthAdjust="spacing" textLength="8.271" x="237.9115" y="107.6787">1</text><text fill="#000000" font-family="sans-serif" font-size="13" lengthAdjust="spacing" textLength="23.0356" x="244.7375" y="153.4795">0..*</text></g><!--link ParteDiario to Carga--><g class="link" data-entity-1="ent0003" data-entity-2="ent0004" data-link-type="association" data-source-line="34" id="lnk12"><path codeLine="34" d="M231.02,252.8 C196.35,276.6 151.81,308.21 113.96,338.48 C108.43,342.91 102.75,347.67 97.17,352.49" fill="none" id="ParteDiario-Carga" style="stroke:#181818;stroke-width:1;"/><text fill="#000000" font-family="sans-serif" font-size="13" lengthAdjust="spacing" textLength="8.271" x="214.7146" y="254.2114">1</text><text fill="#000000" font-family="sans-serif" font-size="13" lengthAdjust="spacing" textLength="23.0356" x="100.6389" y="340.2648">0..*</text></g><!--link ParteDiario to Empleado--><g class="link" data-entity-1="ent0003" data-entity-2="ent0006" data-link-type="association" data-source-line="35" id="lnk13"><path codeLine="35" d="M310.46,261.81 C324.8,293.69 343.25,334.71 355.78,362.55" fill="none" id="ParteDiario-Empleado" style="stroke:#181818;stroke-width:1;"/><text fill="#000000" font-family="sans-serif" font-size="13" lengthAdjust="spacing" textLength="69.7607" x="329.96" y="304.5469">asignacion</text><text fill="#000000" font-family="sans-serif" font-size="13" lengthAdjust="spacing" textLength="23.0356" x="288.8057" y="281.4477">0..*</text><text fill="#000000" font-family="sans-serif" font-size="13" lengthAdjust="spacing" textLength="23.0356" x="327.7273" y="351.7494">0..*</text></g><!--link ParteDiario to Maquinaria--><g class="link" data-entity-1="ent0003" data-entity-2="ent0007" data-link-type="association" data-source-line="36" id="lnk14"><path codeLine="36" d="M347.19,248.62 C367.08,261.28 389.05,276.26 407.96,291.48 C435.23,313.43 463.32,341.53 483.42,362.77" fill="none" id="ParteDiario-Maquinaria" style="stroke:#181818;stroke-width:1;"/><text fill="#000000" font-family="sans-serif" font-size="13" lengthAdjust="spacing" textLength="158.2598" x="426.96" y="304.5469">maquinaria_parte_diario</text><text fill="#000000" font-family="sans-serif" font-size="13" lengthAdjust="spacing" textLength="23.0356" x="354.8183" y="248.7659">0..*</text><text fill="#000000" font-family="sans-serif" font-size="13" lengthAdjust="spacing" textLength="23.0356" x="452.1634" y="351.6401">0..*</text></g><!--link ParteDiario to MovimientoStock--><g class="link" data-entity-1="ent0003" data-entity-2="ent0005" data-link-type="association" data-source-line="37" id="lnk15"><path codeLine="37" d="M267.47,261.81 C255.71,287.96 241.18,320.26 229.42,346.39" fill="none" id="ParteDiario-MovimientoStock" style="stroke:#181818;stroke-width:1;"/><text fill="#000000" font-family="sans-serif" font-size="13" lengthAdjust="spacing" textLength="54.2534" x="254.96" y="304.5469">insumos</text><text fill="#000000" font-family="sans-serif" font-size="13" lengthAdjust="spacing" textLength="23.0356" x="240.0389" y="281.4477">0..*</text><text fill="#000000" font-family="sans-serif" font-size="13" lengthAdjust="spacing" textLength="23.0356" x="207.8222" y="335.5652">0..*</text></g><!--link Usuario to ParteDiario--><g class="link" data-entity-1="ent0010" data-entity-2="ent0003" data-link-type="association" data-source-line="38" id="lnk16"><path codeLine="38" d="M336.59,79.87 C327.98,103.75 316.02,136.96 306.23,164.11" fill="none" id="Usuario-ParteDiario" style="stroke:#181818;stroke-width:1;"/><text fill="#000000" font-family="sans-serif" font-size="13" lengthAdjust="spacing" textLength="50.3877" x="322.96" y="130.6569">registra</text><text fill="#000000" font-family="sans-serif" font-size="13" lengthAdjust="spacing" textLength="8.271" x="325.6855" y="99.5882">1</text><text fill="#000000" font-family="sans-serif" font-size="13" lengthAdjust="spacing" textLength="23.0356" x="284.0073" y="153.6037">0..*</text></g><?plantuml-src VL6nJiGm3Dtp5L57f3l1sWq16qWd8URA9BvYqIOXJbWG_qxIkoOfY9jYFxzd-Rse2PZbemqeluIKf8SfrQdYwD0VIH6ARw4MrW5ym7i2JtObkmmDUi4ISaJr1kb5pjYWWBGjyZlm8wn2bPjKEcGxlFeOiZo0BvZ1KALFzfDcGXFiSx3gVLqo5pYBoUL7WGcaGHVjm-mc15rEndDVbyD799CSbEFcWXJIBTDeG94rVrHDBEVP2ySsf7Xgqown1DtTT7AtaztrVd_LjQcADk4jQmblEpyDAgKOxINKQozA6kkzhAwtttfvmw-VwIKPZhDbiORmhzl4zJWI1my_?></g></svg>