<?plantuml 1.2026.2beta3?><svg xmlns="http://www.w3.org/2000/svg" xmlns:xlink="http://www.w3.org/1999/xlink" contentStyleType="text/css" data-diagram-type="CLASS" height="410px" preserveAspectRatio="none" style="width:706px;height:410px;background:#FFFFFF;" version="1.1" viewBox="0 0 706 410" width="706px" zoomAndPan="magnify"><defs/><g><!--class Maquinaria--><g class="entity" data-qualified-name="Maquinaria" data-source-line="1" id="ent0002"><rect fill="#F1F1F1" height="80.5938" rx="2.5" ry="2.5" style="stroke:#181818;stroke-width:0.5;" width="111.3193" x="364.8" y="7"/><ellipse cx="380.4007" cy="23" fill="#ADD1B2" rx="11" ry="11" style="stroke:#181818;stroke-width:1;"/><path d="M383.3695,28.6406 Q382.7914,28.9375 382.1507,29.0781 Q381.5101,29.2344 380.807,29.2344 Q378.307,29.2344 376.9789,27.5938 Q375.6664,25.9375 375.6664,22.8125 Q375.6664,19.6875 376.9789,18.0313 Q378.307,16.375 380.807,16.375 Q381.5101,16.375 382.1507,16.5313 Q382.807,16.6875 383.3695,16.9844 L383.3695,19.7031 Q382.7445,19.125 382.1507,18.8594 Q381.557,18.5781 380.932,18.5781 Q379.5882,18.5781 378.9007,19.6563 Q378.2132,20.7188 378.2132,22.8125 Q378.2132,24.9063 378.9007,25.9844 Q379.5882,27.0469 380.932,27.0469 Q381.557,27.0469 382.1507,26.7813 Q382.7445,26.5 383.3695,25.9219 L383.3695,28.6406 Z " fill="#000000"/><text fill="#000000" font-family="sans-serif" font-size="14" lengthAdjust="spacing" textLength="77.9844" x="394.5342" y="27.8467">Maquinaria</text><line style="stroke:#181818;stroke-width:0.5;" x1="365.8" x2="475.1193" y1="39" y2="39"/><text fill="#000000" font-family="sans-serif" font-size="14" lengthAdjust="spacing" textLength="99.3193" x="370.8" y="55.9951">id_maquinaria</text><text fill="#000000" font-family="sans-serif" font-size="14" lengthAdjust="spacing" textLength="47.4277" x="370.8" y="72.292">estado</text><line style="stroke:#181818;stroke-width:0.5;" x1="365.8" x2="475.1193" y1="79.5938" y2="79.5938"/></g><!--class Mantenimiento--><g class="entity" data-qualified-name="Mantenimiento" data-source-line="5" id="ent0003"><rect fill="#F1F1F1" height="96.8906" rx="2.5" ry="2.5" style="stroke:#181818;stroke-width:0.5;" width="143.8037" x="233.56" y="148.6"/><ellipse cx="251.4125" cy="164.6" fill="#ADD1B2" rx="11" ry="11" style="stroke:#181818;stroke-width:1;"/><path d="M254.3812,170.2406 Q253.8031,170.5375 253.1625,170.6781 Q252.5219,170.8344 251.8187,170.8344 Q249.3187,170.8344 247.9906,169.1938 Q246.6781,167.5375 246.6781,164.4125 Q246.6781,161.2875 247.9906,159.6313 Q249.3187,157.975 251.8187,157.975 Q252.5219,157.975 253.1625,158.1313 Q253.8187,158.2875 254.3812,158.5844 L254.3812,161.3031 Q253.7562,160.725 253.1625,160.4594 Q252.5687,160.1781 251.9437,160.1781 Q250.6,160.1781 249.9125,161.2563 Q249.225,162.3188 249.225,164.4125 Q249.225,166.5063 249.9125,167.5844 Q250.6,168.6469 251.9437,168.6469 Q252.5687,168.6469 253.1625,168.3813 Q253.7562,168.1 254.3812,167.5219 L254.3812,170.2406 Z " fill="#000000"/><text fill="#000000" font-family="sans-serif" font-size="14" lengthAdjust="spacing" textLength="105.4648" x="266.0464" y="169.4467">Mantenimiento</text><line style="stroke:#181818;stroke-width:0.5;" x1="234.56" x2="376.3637" y1="180.6" y2="180.6"/><text fill="#000000" font-family="sans-serif" font-size="14" lengthAdjust="spacing" textLength="126.7998" x="239.56" y="197.5951">id_mantenimiento</text><text fill="#000000" font-family="sans-serif" font-size="14" lengthAdjust="spacing" textLength="47.4277" x="239.56" y="213.892">estado</text><text fill="#000000" font-family="sans-serif" font-size="14" lengthAdjust="spacing" textLength="131.8037" x="239.56" y="230.1889">fecha_programada</text><line style="stroke:#181818;stroke-width:0.5;" x1="234.56" x2="376.3637" y1="237.4906" y2="237.4906"/></g><!--class TipoMantenimiento--><g class="entity" data-qualified-name="TipoMantenimiento" data-source-line="10" id="ent0004"><rect fill="#F1F1F1" height="80.5938" rx="2.5" ry="2.5" style="stroke:#181818;stroke-width:0.5;" width="172.6309" x="213.15" y="322.49"/><ellipse cx="230.5226" cy="338.49" fill="#ADD1B2" rx="11" ry="11" style="stroke:#181818;stroke-width:1;"/><path d="M233.4914,344.1306 Q232.9132,344.4275 232.2726,344.5681 Q231.632,344.7244 230.9289,344.7244 Q228.4289,344.7244 227.1007,343.0837 Q225.7882,341.4275 225.7882,338.3025 Q225.7882,335.1775 227.1007,333.5212 Q228.4289,331.865 230.9289,331.865 Q231.632,331.865 232.2726,332.0212 Q232.9289,332.1775 233.4914,332.4744 L233.4914,335.1931 Q232.8664,334.615 232.2726,334.3494 Q231.6789,334.0681 231.0539,334.0681 Q229.7101,334.0681 229.0226,335.1462 Q228.3351,336.2087 228.3351,338.3025 Q228.3351,340.3962 229.0226,341.4744 Q229.7101,342.5369 231.0539,342.5369 Q231.6789,342.5369 232.2726,342.2712 Q232.8664,341.99 233.4914,341.4119 L233.4914,344.1306 Z " fill="#000000"/><text fill="#000000" font-family="sans-serif" font-size="14" lengthAdjust="spacing" textLength="135.3584" x="245.0499" y="343.3367">TipoMantenimiento</text><line style="stroke:#181818;stroke-width:0.5;" x1="214.15" x2="384.7809" y1="354.49" y2="354.49"/><text fill="#000000" font-family="sans-serif" font-size="14" lengthAdjust="spacing" textLength="160.6309" x="219.15" y="371.4851">id_tipo_mantenimiento</text><text fill="#000000" font-family="sans-serif" font-size="14" lengthAdjust="spacing" textLength="54.332" x="219.15" y="387.782">nombre</text><line style="stroke:#181818;stroke-width:0.5;" x1="214.15" x2="384.7809" y1="395.0837" y2="395.0837"/></g><!--class MantenimientoInsumo--><g class="entity" data-qualified-name="MantenimientoInsumo" data-source-line="14" id="ent0005"><rect fill="#F1F1F1" height="48" rx="2.5" ry="2.5" style="stroke:#181818;stroke-width:0.5;" width="188.8369" x="511.04" y="23.3"/><ellipse cx="526.04" cy="39.3" fill="#ADD1B2" rx="11" ry="11" style="stroke:#181818;stroke-width:1;"/><path d="M529.0088,44.9406 Q528.4306,45.2375 527.79,45.3781 Q527.1494,45.5344 526.4463,45.5344 Q523.9463,45.5344 522.6181,43.8938 Q521.3056,42.2375 521.3056,39.1125 Q521.3056,35.9875 522.6181,34.3313 Q523.9463,32.675 526.4463,32.675 Q527.1494,32.675 527.79,32.8313 Q528.4463,32.9875 529.0088,33.2844 L529.0088,36.0031 Q528.3838,35.425 527.79,35.1594 Q527.1963,34.8781 526.5713,34.8781 Q525.2275,34.8781 524.54,35.9563 Q523.8525,37.0188 523.8525,39.1125 Q523.8525,41.2063 524.54,42.2844 Q525.2275,43.3469 526.5713,43.3469 Q527.1963,43.3469 527.79,43.0813 Q528.3838,42.8 529.0088,42.2219 L529.0088,44.9406 Z " fill="#000000"/><text fill="#000000" font-family="sans-serif" font-size="14" lengthAdjust="spacing" textLength="156.8369" x="540.04" y="44.1467">MantenimientoInsumo</text><line style="stroke:#181818;stroke-width:0.5;" x1="512.04" x2="698.8769" y1="55.3" y2="55.3"/><line style="stroke:#181818;stroke-width:0.5;" x1="512.04" x2="698.8769" y1="63.3" y2="63.3"/></g><!--class Insumo--><g class="entity" data-qualified-name="Insumo" data-source-line="15" id="ent0006"><rect fill="#F1F1F1" height="64.2969" rx="2.5" ry="2.5" style="stroke:#181818;stroke-width:0.5;" width="83.3721" x="460.78" y="330.63"/><ellipse cx="475.78" cy="346.63" fill="#ADD1B2" rx="11" ry="11" style="stroke:#181818;stroke-width:1;"/><path d="M478.7488,352.2706 Q478.1706,352.5675 477.53,352.7081 Q476.8894,352.8644 476.1863,352.8644 Q473.6863,352.8644 472.3581,351.2238 Q471.0456,349.5675 471.0456,346.4425 Q471.0456,343.3175 472.3581,341.6613 Q473.6863,340.005 476.1863,340.005 Q476.8894,340.005 477.53,340.1613 Q478.1863,340.3175 478.7488,340.6144 L478.7488,343.3331 Q478.1238,342.755 477.53,342.4894 Q476.9363,342.2081 476.3113,342.2081 Q474.9675,342.2081 474.28,343.2863 Q473.5925,344.3488 473.5925,346.4425 Q473.5925,348.5363 474.28,349.6144 Q474.9675,350.6769 476.3113,350.6769 Q476.9363,350.6769 477.53,350.4113 Q478.1238,350.13 478.7488,349.5519 L478.7488,352.2706 Z " fill="#000000"/><text fill="#000000" font-family="sans-serif" font-size="14" lengthAdjust="spacing" textLength="51.3721" x="489.78" y="351.4767">Insumo</text><line style="stroke:#181818;stroke-width:0.5;" x1="461.78" x2="543.1521" y1="362.63" y2="362.63"/><text fill="#000000" font-family="sans-serif" font-size="14" lengthAdjust="spacing" textLength="70.9092" x="466.78" y="379.6251">id_insumo</text><line style="stroke:#181818;stroke-width:0.5;" x1="461.78" x2="543.1521" y1="386.9269" y2="386.9269"/></g><!--class NotificacionSistema--><g class="entity" data-qualified-name="NotificacionSistema" data-source-line="18" id="ent0007"><rect fill="#F1F1F1" height="80.5938" rx="2.5" ry="2.5" style="stroke:#181818;stroke-width:0.5;" width="170.9268" x="7" y="322.49"/><ellipse cx="22" cy="338.49" fill="#ADD1B2" rx="11" ry="11" style="stroke:#181818;stroke-width:1;"/><path d="M24.9688,344.1306 Q24.3906,344.4275 23.75,344.5681 Q23.1094,344.7244 22.4063,344.7244 Q19.9063,344.7244 18.5781,343.0837 Q17.2656,341.4275 17.2656,338.3025 Q17.2656,335.1775 18.5781,333.5212 Q19.9063,331.865 22.4063,331.865 Q23.1094,331.865 23.75,332.0212 Q24.4063,332.1775 24.9688,332.4744 L24.9688,335.1931 Q24.3438,334.615 23.75,334.3494 Q23.1563,334.0681 22.5313,334.0681 Q21.1875,334.0681 20.5,335.1462 Q19.8125,336.2087 19.8125,338.3025 Q19.8125,340.3962 20.5,341.4744 Q21.1875,342.5369 22.5313,342.5369 Q23.1563,342.5369 23.75,342.2712 Q24.3438,341.99 24.9688,341.4119 L24.9688,344.1306 Z " fill="#000000"/><text fill="#000000" font-family="sans-serif" font-size="14" lengthAdjust="spacing" textLength="138.9268" x="36" y="343.3367">NotificacionSistema</text><line style="stroke:#181818;stroke-width:0.5;" x1="8" x2="176.9268" y1="354.49" y2="354.49"/><text fill="#000000" font-family="sans-serif" font-size="14" lengthAdjust="spacing" textLength="100.7139" x="13" y="371.4851">id_notificacion</text><text fill="#000000" font-family="sans-serif" font-size="14" lengthAdjust="spacing" textLength="47.4277" x="13" y="387.782">estado</text><line style="stroke:#181818;stroke-width:0.5;" x1="8" x2="176.9268" y1="395.0837" y2="395.0837"/></g><!--class Usuario--><g class="entity" data-qualified-name="Usuario" data-source-line="22" id="ent0008"><rect fill="#F1F1F1" height="64.2969" rx="2.5" ry="2.5" style="stroke:#181818;stroke-width:0.5;" width="85.2041" x="49.86" y="164.89"/><ellipse cx="64.86" cy="180.89" fill="#ADD1B2" rx="11" ry="11" style="stroke:#181818;stroke-width:1;"/><path d="M67.8288,186.5306 Q67.2506,186.8275 66.61,186.9681 Q65.9694,187.1244 65.2663,187.1244 Q62.7663,187.1244 61.4381,185.4838 Q60.1256,183.8275 60.1256,180.7025 Q60.1256,177.5775 61.4381,175.9213 Q62.7663,174.265 65.2663,174.265 Q65.9694,174.265 66.61,174.4213 Q67.2663,174.5775 67.8288,174.8744 L67.8288,177.5931 Q67.2038,177.015 66.61,176.7494 Q66.0163,176.4681 65.3913,176.4681 Q64.0475,176.4681 63.36,177.5463 Q62.6725,178.6088 62.6725,180.7025 Q62.6725,182.7963 63.36,183.8744 Q64.0475,184.9369 65.3913,184.9369 Q66.0163,184.9369 66.61,184.6713 Q67.2038,184.39 67.8288,183.8119 L67.8288,186.5306 Z " fill="#000000"/><text fill="#000000" font-family="sans-serif" font-size="14" lengthAdjust="spacing" textLength="53.2041" x="78.86" y="185.7367">Usuario</text><line style="stroke:#181818;stroke-width:0.5;" x1="50.86" x2="134.0641" y1="196.89" y2="196.89"/><text fill="#000000" font-family="sans-serif" font-size="14" lengthAdjust="spacing" textLength="71.6064" x="55.86" y="213.8851">id_usuario</text><line style="stroke:#181818;stroke-width:0.5;" x1="50.86" x2="134.0641" y1="221.1869" y2="221.1869"/></g><!--class KitMantenimientoPreventivo--><g class="entity" data-qualified-name="KitMantenimientoPreventivo" data-source-line="25" id="ent0009"><rect fill="#F1F1F1" height="48" rx="2.5" ry="2.5" style="stroke:#181818;stroke-width:0.5;" width="230.8369" x="422.04" y="173.04"/><ellipse cx="437.04" cy="189.04" fill="#ADD1B2" rx="11" ry="11" style="stroke:#181818;stroke-width:1;"/><path d="M440.0088,194.6806 Q439.4306,194.9775 438.79,195.1181 Q438.1494,195.2744 437.4463,195.2744 Q434.9463,195.2744 433.6181,193.6338 Q432.3056,191.9775 432.3056,188.8525 Q432.3056,185.7275 433.6181,184.0713 Q434.9463,182.415 437.4463,182.415 Q438.1494,182.415 438.79,182.5713 Q439.4463,182.7275 440.0088,183.0244 L440.0088,185.7431 Q439.3838,185.165 438.79,184.8994 Q438.1963,184.6181 437.5713,184.6181 Q436.2275,184.6181 435.54,185.6963 Q434.8525,186.7588 434.8525,188.8525 Q434.8525,190.9463 435.54,192.0244 Q436.2275,193.0869 437.5713,193.0869 Q438.1963,193.0869 438.79,192.8213 Q439.3838,192.54 440.0088,191.9619 L440.0088,194.6806 Z " fill="#000000"/><text fill="#000000" font-family="sans-serif" font-size="14" lengthAdjust="spacing" textLength="198.8369" x="451.04" y="193.8867">KitMantenimientoPreventivo</text><line style="stroke:#181818;stroke-width:0.5;" x1="423.04" x2="651.8769" y1="205.04" y2="205.04"/><line style="stroke:#181818;stroke-width:0.5;" x1="423.04" x2="651.8769" y1="213.04" y2="213.04"/></g><!--link Maquinaria to Mantenimiento--><g class="link" data-entity-1="ent0002" data-entity-2="ent0003" data-link-type="association" data-source-line="27" id="lnk10"><path codeLine="27" d="M389.65,87.89 C375.21,106.44 357.89,128.69 342.72,148.18" fill="none" id="Maquinaria-Mantenimiento" style="stroke:#181818;stroke-width:1;"/><text fill="#000000" font-family="sans-serif" font-size="13" lengthAdjust="spacing" textLength="8.271" x="376.1238" y="107.6323">1</text><text fill="#000000" font-family="sans-serif" font-size="13" lengthAdjust="spacing" textLength="23.0356" x="323.1836" y="137.6817">0..*</text></g><!--link Mantenimiento to TipoMantenimiento--><g class="link" data-entity-1="ent0003" data-entity-2="ent0004" data-link-type="association" data-source-line="28" id="lnk11"><path codeLine="28" d="M303.71,245.84 C302.82,270.1 301.76,299.22 300.91,322.21" fill="none" id="Mantenimiento-TipoMantenimiento" style="stroke:#181818;stroke-width:1;"/><text fill="#000000" font-family="sans-serif" font-size="13" lengthAdjust="spacing" textLength="8.271" x="294.9553" y="265.4804">1</text><text fill="#000000" font-family="sans-serif" font-size="13" lengthAdjust="spacing" textLength="24.8066" x="275.2286" y="311.3252">0..1</text></g><!--link Mantenimiento to Insumo--><g class="link" data-entity-1="ent0003" data-entity-2="ent0006" data-link-type="association" data-source-line="29" id="lnk12"><path codeLine="29" d="M320.59,245.84 C327.62,262.21 337.38,279.62 350.46,292.49 C358.92,300.8 418.57,326.76 460.58,344.43" fill="none" id="Mantenimiento-Insumo" style="stroke:#181818;stroke-width:1;"/><text fill="#000000" font-family="sans-serif" font-size="13" lengthAdjust="spacing" textLength="160.1323" x="351.46" y="288.5569">mantenimiento_insumos</text><text fill="#000000" font-family="sans-serif" font-size="13" lengthAdjust="spacing" textLength="23.0356" x="324.1706" y="265.4804">0..*</text><text fill="#000000" font-family="sans-serif" font-size="13" lengthAdjust="spacing" textLength="23.0356" x="429.7415" y="337.7102">0..*</text></g><!--link Mantenimiento to NotificacionSistema--><g class="link" data-entity-1="ent0003" data-entity-2="ent0007" data-link-type="association" data-source-line="30" id="lnk13"><path codeLine="30" d="M243.28,245.84 C211.72,270.1 173.85,299.22 143.95,322.21" fill="none" id="Mantenimiento-NotificacionSistema" style="stroke:#181818;stroke-width:1;"/><text fill="#000000" font-family="sans-serif" font-size="13" lengthAdjust="spacing" textLength="8.271" x="226.405" y="265.4804">1</text><text fill="#000000" font-family="sans-serif" font-size="13" lengthAdjust="spacing" textLength="23.0356" x="127.5757" y="311.3252">0..*</text></g><!--link Usuario to NotificacionSistema--><g class="link" data-entity-1="ent0008" data-entity-2="ent0007" data-link-type="association" data-source-line="31" id="lnk14"><path codeLine="31" d="M92.46,229.61 C92.46,256 92.46,293.78 92.46,322.2" fill="none" id="Usuario-NotificacionSistema" style="stroke:#181818;stroke-width:1;"/><text fill="#000000" font-family="sans-serif" font-size="13" lengthAdjust="spacing" textLength="8.271" x="83.7229" y="249.3282">1</text><text fill="#000000" font-family="sans-serif" font-size="13" lengthAdjust="spacing" textLength="23.0356" x="67.5577" y="311.3135">0..*</text></g><!--link Maquinaria to KitMantenimientoPreventivo--><g class="link" data-entity-1="ent0002" data-entity-2="ent0009" data-link-type="association" data-source-line="32" id="lnk15"><path codeLine="32" d="M451.82,87.89 C473.34,115.07 501.17,150.21 519.16,172.93" fill="none" id="Maquinaria-KitMantenimientoPreventivo" style="stroke:#181818;stroke-width:1;"/><text fill="#000000" font-family="sans-serif" font-size="13" lengthAdjust="spacing" textLength="8.271" x="448.2021" y="107.6323">1</text><text fill="#000000" font-family="sans-serif" font-size="13" lengthAdjust="spacing" textLength="23.0356" x="488.5287" y="161.9138">0..*</text></g><!--link KitMantenimientoPreventivo to Insumo--><g class="link" data-entity-1="ent0009" data-entity-2="ent0006" data-link-type="association" data-source-line="33" id="lnk16"><path codeLine="33" d="M533.76,221.43 C530.61,240.6 525.75,268.4 520.46,292.49 C517.74,304.87 514.33,318.39 511.22,330.17" fill="none" id="KitMantenimientoPreventivo-Insumo" style="stroke:#181818;stroke-width:1;"/><text fill="#000000" font-family="sans-serif" font-size="13" lengthAdjust="spacing" textLength="23.0356" x="507.0597" y="241.2863">0..*</text><text fill="#000000" font-family="sans-serif" font-size="13" lengthAdjust="spacing" textLength="8.271" x="504.1521" y="319.6039">1</text></g><?plantuml-src XP312i8m38RlVOgmew3erJSGKGJrBB6h6h3DR3iluhjRsDPrRjDJc_p9t_wVlADpiC57IGOj8Rm40EKd7JkXLivZpk8jP3rjl3AaIHdFxKBIR7S0BahUy5HOlbhKc6EqEL31WrO-23q_m_firV0VLiQLcckbAXelggHcRSkUBYHH4fizEQzqJ6mIgP_vwCe08zgMLHdbDVdEZtPMFSD9JnOYWPijCfXE8PlFPfEicq5qKIIJuTP3zJrT6RRMDOGbT33MDDpuMs5r095eql-V70txWz2ub0PRDAa-?></g></svg>