<?plantuml 1.2026.2beta3?><svg xmlns="http://www.w3.org/2000/svg" xmlns:xlink="http://www.w3.org/1999/xlink" contentStyleType="text/css" data-diagram-type="SALT" height="124px" preserveAspectRatio="none" style="width:384px;height:124px;background:#FFFFFF;" version="1.1" viewBox="0 0 384 124" width="384px" zoomAndPan="magnify"><defs/><g><line style="stroke:#000000;stroke-width:1;" x1="6" x2="6" y1="6" y2="6"/><line style="stroke:#000000;stroke-width:1;" x1="6" x2="6" y1="6" y2="6"/><line style="stroke:#000000;stroke-width:1;" x1="6" x2="6" y1="6" y2="6"/><line style="stroke:#000000;stroke-width:1;" x1="6" x2="6" y1="6" y2="6"/><text fill="#000000" font-family="sans-serif" font-size="12" lengthAdjust="spacing" textLength="199.5176" x="177" y="17.1387">UC-63 Programar mantenimiento</text><text fill="#000000" font-family="sans-serif" font-size="12" lengthAdjust="spacing" textLength="75.5449" x="6" y="33.1074">Maquina: [v]</text><text fill="#000000" font-family="sans-serif" font-size="12" lengthAdjust="spacing" textLength="49.9453" x="6" y="49.0762">Tipo: [v]</text><text fill="#000000" font-family="sans-serif" font-size="12" lengthAdjust="spacing" textLength="126.0059" x="6" y="65.0449">Fecha programada: [</text><text fill="#000000" font-family="sans-serif" font-size="12" lengthAdjust="spacing" text-decoration="underline" textLength="16.3301" x="132.0059" y="65.0449">__-</text><text fill="#000000" font-family="sans-serif" font-size="12" lengthAdjust="spacing" textLength="21.0117" x="148.3359" y="65.0449">-__]</text><text fill="#000000" font-family="sans-serif" font-size="12" lengthAdjust="spacing" textLength="101.1387" x="6" y="81.0137">Observaciones: [</text><text fill="#000000" font-family="sans-serif" font-size="12" lengthAdjust="spacing" text-decoration="underline" textLength="6" x="107.1387" y="81.0137">_</text><text fill="#000000" font-family="sans-serif" font-size="12" lengthAdjust="spacing" text-decoration="underline" textLength="6" x="113.1387" y="81.0137">_</text><text fill="#000000" font-family="sans-serif" font-size="12" lengthAdjust="spacing" text-decoration="underline" textLength="6" x="119.1387" y="81.0137">_</text><text fill="#000000" font-family="sans-serif" font-size="12" lengthAdjust="spacing" text-decoration="underline" textLength="6" x="125.1387" y="81.0137">_</text><text fill="#000000" font-family="sans-serif" font-size="12" lengthAdjust="spacing" textLength="10.6816" x="131.1387" y="81.0137">_]</text><line style="stroke:#AAAAAA;stroke-width:1;" x1="6" x2="176" y1="89.3438" y2="89.3438"/><rect fill="#EEEEEE" height="17.9688" rx="5" ry="5" style="stroke:#000000;stroke-width:2.5;" width="164" x="8.5" y="96.3438"/><text fill="#000000" font-family="sans-serif" font-size="12" lengthAdjust="spacing" textLength="129.5098" x="25.7451" y="109.4824">Programar] [Cancelar</text><line style="stroke:#000000;stroke-width:1;" x1="5" x2="176" y1="5" y2="5"/><line style="stroke:#000000;stroke-width:1;" x1="176" x2="377.5176" y1="5" y2="5"/><line style="stroke:#000000;stroke-width:1;" x1="5" x2="176" y1="117.8125" y2="117.8125"/><line style="stroke:#000000;stroke-width:1;" x1="176" x2="377.5176" y1="117.8125" y2="117.8125"/><line style="stroke:#000000;stroke-width:1;" x1="5" x2="5" y1="5" y2="20.9688"/><line style="stroke:#000000;stroke-width:1;" x1="377.5176" x2="377.5176" y1="36.9375" y2="52.9063"/><line style="stroke:#000000;stroke-width:1;" x1="377.5176" x2="377.5176" y1="5" y2="20.9688"/><line style="stroke:#000000;stroke-width:1;" x1="5" x2="5" y1="84.8438" y2="92.8438"/><line style="stroke:#000000;stroke-width:1;" x1="5" x2="5" y1="52.9063" y2="68.875"/><line style="stroke:#000000;stroke-width:1;" x1="377.5176" x2="377.5176" y1="84.8438" y2="92.8438"/><line style="stroke:#000000;stroke-width:1;" x1="5" x2="5" y1="20.9688" y2="36.9375"/><line style="stroke:#000000;stroke-width:1;" x1="377.5176" x2="377.5176" y1="52.9063" y2="68.875"/><line style="stroke:#000000;stroke-width:1;" x1="377.5176" x2="377.5176" y1="20.9688" y2="36.9375"/><line style="stroke:#000000;stroke-width:1;" x1="5" x2="5" y1="92.8438" y2="117.8125"/><line style="stroke:#000000;stroke-width:1;" x1="5" x2="5" y1="68.875" y2="84.8438"/><line style="stroke:#000000;stroke-width:1;" x1="377.5176" x2="377.5176" y1="92.8438" y2="117.8125"/><line style="stroke:#000000;stroke-width:1;" x1="5" x2="5" y1="36.9375" y2="52.9063"/><line style="stroke:#000000;stroke-width:1;" x1="377.5176" x2="377.5176" y1="68.875" y2="84.8438"/><?plantuml-src AqxCAU6grkPIKAXMhbK8TTOrCrO8ACfFBqhCJInIo4tCAqdDoypDJCqhoGUgyKqiBCtCIxHIY2wB1N93CWloOMotrEICH8K2gDOKa9fu8D058v02_wJYrAAonEJC_BpKOgWi1W0frDK54j5mHyGgH3idvYMdvW2PNBK0?></g></svg>