<?plantuml 1.2026.2beta3?><svg xmlns="http://www.w3.org/2000/svg" xmlns:xlink="http://www.w3.org/1999/xlink" contentStyleType="text/css" data-diagram-type="SEQUENCE" height="399px" preserveAspectRatio="none" style="width:679px;height:399px;background:#FFFFFF;" version="1.1" viewBox="0 0 679 399" width="679px" zoomAndPan="magnify"><defs/><g><g class="participant-lifeline" data-entity-uid="part1" data-qualified-name="Admin" id="part1-lifeline"><g><title>Administrador</title><rect fill="#000000" fill-opacity="0.00000" height="236.9297" width="8" x="53.54" y="81.2969"/><line style="stroke:#181818;stroke-width:0.5;stroke-dasharray:5,5;" x1="57" x2="57" y1="81.2969" y2="318.2266"/></g></g><g class="participant-lifeline" data-entity-uid="part2" data-qualified-name="UI" id="part2-lifeline"><g><title>UI Planificacion</title><rect fill="#000000" fill-opacity="0.00000" height="236.9297" width="8" x="201.8779" y="81.2969"/><line style="stroke:#181818;stroke-width:0.5;stroke-dasharray:5,5;" x1="205.5679" x2="205.5679" y1="81.2969" y2="318.2266"/></g></g><g class="participant-lifeline" data-entity-uid="part3" data-qualified-name="LT" id="part3-lifeline"><g><title>LoteTarea</title><rect fill="#000000" fill-opacity="0.00000" height="236.9297" width="8" x="328.0093" y="81.2969"/><line style="stroke:#181818;stroke-width:0.5;stroke-dasharray:5,5;" x1="331.7358" x2="331.7358" y1="81.2969" y2="318.2266"/></g></g><g class="participant-lifeline" data-entity-uid="part4" data-qualified-name="Job" id="part4-lifeline"><g><title>GenerateAllocationProposals</title><rect fill="#000000" fill-opacity="0.00000" height="236.9297" width="8" x="488.1196" y="81.2969"/><line style="stroke:#181818;stroke-width:0.5;stroke-dasharray:5,5;" x1="491.2827" x2="491.2827" y1="81.2969" y2="318.2266"/></g></g><g class="participant-lifeline" data-entity-uid="part5" data-qualified-name="DB" id="part5-lifeline"><g><title>DB</title><rect fill="#000000" fill-opacity="0.00000" height="236.9297" width="8" x="640.0439" y="81.2969"/><line style="stroke:#181818;stroke-width:0.5;stroke-dasharray:5,5;" x1="644.0439" x2="644.0439" y1="81.2969" y2="318.2266"/></g></g><g class="participant participant-head" data-entity-uid="part1" data-qualified-name="Admin" id="part1-head"><text fill="#000000" font-family="sans-serif" font-size="14" lengthAdjust="spacing" textLength="99.0801" x="5" y="77.9951">Administrador</text><ellipse cx="57.54" cy="13.5" fill="#E2E2F0" rx="8" ry="8" style="stroke:#181818;stroke-width:0.5;"/><path d="M57.54,21.5 L57.54,48.5 M44.54,29.5 L70.54,29.5 M57.54,48.5 L44.54,63.5 M57.54,48.5 L70.54,63.5" fill="none" style="stroke:#181818;stroke-width:0.5;"/></g><g class="participant participant-tail" data-entity-uid="part1" data-qualified-name="Admin" id="part1-tail"><text fill="#000000" font-family="sans-serif" font-size="14" lengthAdjust="spacing" textLength="99.0801" x="5" y="330.2217">Administrador</text><ellipse cx="57.54" cy="342.0234" fill="#E2E2F0" rx="8" ry="8" style="stroke:#181818;stroke-width:0.5;"/><path d="M57.54,350.0234 L57.54,377.0234 M44.54,358.0234 L70.54,358.0234 M57.54,377.0234 L44.54,392.0234 M57.54,377.0234 L70.54,392.0234" fill="none" style="stroke:#181818;stroke-width:0.5;"/></g><g class="participant participant-head" data-entity-uid="part2" data-qualified-name="UI" id="part2-head"><rect fill="#E2E2F0" height="30.2969" rx="2.5" ry="2.5" style="stroke:#181818;stroke-width:0.5;" width="120.6201" x="145.5679" y="50"/><text fill="#000000" font-family="sans-serif" font-size="14" lengthAdjust="spacing" textLength="106.6201" x="152.5679" y="69.9951">UI Planificacion</text></g><g class="participant participant-tail" data-entity-uid="part2" data-qualified-name="UI" id="part2-tail"><rect fill="#E2E2F0" height="30.2969" rx="2.5" ry="2.5" style="stroke:#181818;stroke-width:0.5;" width="120.6201" x="145.5679" y="317.2266"/><text fill="#000000" font-family="sans-serif" font-size="14" lengthAdjust="spacing" textLength="106.6201" x="152.5679" y="337.2217">UI Planificacion</text></g><g class="participant participant-head" data-entity-uid="part3" data-qualified-name="LT" id="part3-head"><rect fill="#E2E2F0" height="30.2969" rx="2.5" ry="2.5" style="stroke:#181818;stroke-width:0.5;" width="84.5469" x="289.7358" y="50"/><text fill="#000000" font-family="sans-serif" font-size="14" lengthAdjust="spacing" textLength="70.5469" x="296.7358" y="69.9951">LoteTarea</text></g><g class="participant participant-tail" data-entity-uid="part3" data-qualified-name="LT" id="part3-tail"><rect fill="#E2E2F0" height="30.2969" rx="2.5" ry="2.5" style="stroke:#181818;stroke-width:0.5;" width="84.5469" x="289.7358" y="317.2266"/><text fill="#000000" font-family="sans-serif" font-size="14" lengthAdjust="spacing" textLength="70.5469" x="296.7358" y="337.2217">LoteTarea</text></g><g class="participant participant-head" data-entity-uid="part4" data-qualified-name="Job" id="part4-head"><rect fill="#E2E2F0" height="30.2969" rx="2.5" ry="2.5" style="stroke:#181818;stroke-width:0.5;" width="215.6738" x="384.2827" y="50"/><text fill="#000000" font-family="sans-serif" font-size="14" lengthAdjust="spacing" textLength="201.6738" x="391.2827" y="69.9951">GenerateAllocationProposals</text></g><g class="participant participant-tail" data-entity-uid="part4" data-qualified-name="Job" id="part4-tail"><rect fill="#E2E2F0" height="30.2969" rx="2.5" ry="2.5" style="stroke:#181818;stroke-width:0.5;" width="215.6738" x="384.2827" y="317.2266"/><text fill="#000000" font-family="sans-serif" font-size="14" lengthAdjust="spacing" textLength="201.6738" x="391.2827" y="337.2217">GenerateAllocationProposals</text></g><g class="participant participant-head" data-entity-uid="part5" data-qualified-name="DB" id="part5-head"><text fill="#000000" font-family="sans-serif" font-size="14" lengthAdjust="spacing" textLength="20.3848" x="630.8516" y="77.9951">DB</text><path d="M626.0439,29 C626.0439,19 644.0439,19 644.0439,19 C644.0439,19 662.0439,19 662.0439,29 L662.0439,55 C662.0439,65 644.0439,65 644.0439,65 C644.0439,65 626.0439,65 626.0439,55 L626.0439,29" fill="#E2E2F0" style="stroke:#181818;stroke-width:0.5;"/><path d="M626.0439,29 C626.0439,39 644.0439,39 644.0439,39 C644.0439,39 662.0439,39 662.0439,29" fill="none" style="stroke:#181818;stroke-width:0.5;"/></g><g class="participant participant-tail" data-entity-uid="part5" data-qualified-name="DB" id="part5-tail"><text fill="#000000" font-family="sans-serif" font-size="14" lengthAdjust="spacing" textLength="20.3848" x="630.8516" y="330.2217">DB</text><path d="M626.0439,343.5234 C626.0439,333.5234 644.0439,333.5234 644.0439,333.5234 C644.0439,333.5234 662.0439,333.5234 662.0439,343.5234 L662.0439,369.5234 C662.0439,379.5234 644.0439,379.5234 644.0439,379.5234 C644.0439,379.5234 626.0439,379.5234 626.0439,369.5234 L626.0439,343.5234" fill="#E2E2F0" style="stroke:#181818;stroke-width:0.5;"/><path d="M626.0439,343.5234 C626.0439,353.5234 644.0439,353.5234 644.0439,353.5234 C644.0439,353.5234 662.0439,353.5234 662.0439,343.5234" fill="none" style="stroke:#181818;stroke-width:0.5;"/></g><g class="message" data-entity-1="part1" data-entity-2="part2" id="msg1"><polygon fill="#181818" points="193.8779,108.4297,203.8779,112.4297,193.8779,116.4297,197.8779,112.4297" style="stroke:#181818;stroke-width:1;"/><line style="stroke:#181818;stroke-width:1;" x1="57.54" x2="199.8779" y1="112.4297" y2="112.4297"/><text fill="#000000" font-family="sans-serif" font-size="13" lengthAdjust="spacing" textLength="124.3379" x="64.54" y="107.3638">editar planificacion</text></g><g class="message" data-entity-1="part2" data-entity-2="part2" id="msg2"><line style="stroke:#181818;stroke-width:1;" x1="205.8779" x2="247.8779" y1="141.5625" y2="141.5625"/><line style="stroke:#181818;stroke-width:1;" x1="247.8779" x2="247.8779" y1="141.5625" y2="154.5625"/><line style="stroke:#181818;stroke-width:1;" x1="206.8779" x2="247.8779" y1="154.5625" y2="154.5625"/><polygon fill="#181818" points="216.8779,150.5625,206.8779,154.5625,216.8779,158.5625,212.8779,154.5625" style="stroke:#181818;stroke-width:1;"/><text fill="#000000" font-family="sans-serif" font-size="13" lengthAdjust="spacing" textLength="112.1313" x="212.8779" y="136.4966">validar superficie</text></g><g class="message" data-entity-1="part2" data-entity-2="part3" id="msg3"><polygon fill="#181818" points="320.0093,179.6953,330.0093,183.6953,320.0093,187.6953,324.0093,183.6953" style="stroke:#181818;stroke-width:1;"/><line style="stroke:#181818;stroke-width:1;" x1="205.8779" x2="326.0093" y1="183.6953" y2="183.6953"/><text fill="#000000" font-family="sans-serif" font-size="13" lengthAdjust="spacing" textLength="96.6431" x="212.8779" y="178.6294">guardar tareas</text></g><g class="message" data-entity-1="part3" data-entity-2="part5" id="msg4"><polygon fill="#181818" points="632.0439,208.8281,642.0439,212.8281,632.0439,216.8281,636.0439,212.8281" style="stroke:#181818;stroke-width:1;"/><line style="stroke:#181818;stroke-width:1;" x1="332.0093" x2="638.0439" y1="212.8281" y2="212.8281"/><text fill="#000000" font-family="sans-serif" font-size="13" lengthAdjust="spacing" textLength="163.687" x="339.0093" y="207.7622">insert/update lote_tareas</text></g><g class="message" data-entity-1="part2" data-entity-2="part4" id="msg5"><polygon fill="#181818" points="480.1196,237.9609,490.1196,241.9609,480.1196,245.9609,484.1196,241.9609" style="stroke:#181818;stroke-width:1;"/><line style="stroke:#181818;stroke-width:1;" x1="205.8779" x2="486.1196" y1="241.9609" y2="241.9609"/><text fill="#000000" font-family="sans-serif" font-size="13" lengthAdjust="spacing" textLength="65.4824" x="212.8779" y="236.895">dispatch()</text></g><g class="message" data-entity-1="part4" data-entity-2="part5" id="msg6"><polygon fill="#181818" points="632.0439,267.0938,642.0439,271.0938,632.0439,275.0938,636.0439,271.0938" style="stroke:#181818;stroke-width:1;"/><line style="stroke:#181818;stroke-width:1;" x1="492.1196" x2="638.0439" y1="271.0938" y2="271.0938"/><text fill="#000000" font-family="sans-serif" font-size="13" lengthAdjust="spacing" textLength="127.9243" x="499.1196" y="266.0278">generar propuestas</text></g><g class="message" data-entity-1="part2" data-entity-2="part1" id="msg7"><polygon fill="#181818" points="68.54,296.2266,58.54,300.2266,68.54,304.2266,64.54,300.2266" style="stroke:#181818;stroke-width:1;"/><line style="stroke:#181818;stroke-width:1;stroke-dasharray:2,2;" x1="62.54" x2="204.8779" y1="300.2266" y2="300.2266"/><text fill="#000000" font-family="sans-serif" font-size="13" lengthAdjust="spacing" textLength="84.4556" x="74.54" y="295.1606">confirmacion</text></g><?plantuml-src LO-nQWCn38PtFuMugHrAzniAEGvAoWqPBdDGR2KLEBQHTNd-w9mhDAFq_P8-eTSii0itJbnLC5Y5zTbm1KNPSy6aq1ttS8YO-C8UFUVKhRdZ_ZKqPQKPXR3HQNwbtvH8K6aNO_QejkGWkUIAiRRyJpwxW8fdh0JTEBJcE3ZNTE3Zo-xrG84L1Sf_6MTs6xvZv62yBeN4EDC6fxc7wuAoGbqTgvlc5On33vmgYNuknUuJH7lZj6MUmwRMG-1QKFtlsxkp-c_qshuo8VjbeQhRZD6ctOFFwS9oQw8F?></g></svg>