<svg xmlns="http://www.w3.org/2000/svg" xmlns:xlink="http://www.w3.org/1999/xlink" contentStyleType="text/css" data-diagram-type="DESCRIPTION" height="504px" preserveAspectRatio="none" style="width:463px;height:504px;background:#FFFFFF;" version="1.1" viewBox="0 0 463 504" width="463px" zoomAndPan="magnify"><defs/><g><!--cluster Maquinaria y Equipos--><g class="cluster" data-entity="Maquinaria y Equipos" data-source-line="4" data-uid="ent0004" id="cluster_Maquinaria y Equipos"><rect fill="none" height="491" rx="2.5" ry="2.5" style="stroke:#181818;stroke-width:1;" width="240.55" x="216.56" y="7"/><text fill="#000000" font-family="sans-serif" font-size="14" font-weight="bold" lengthAdjust="spacing" textLength="169.9277" x="251.8711" y="21.9951">Maquinaria y Equipos</text></g><!--entity UM1--><g class="entity" data-entity="UM1" data-source-line="5" data-uid="ent0005" id="entity_UM1"><ellipse cx="336.8358" cy="298.9952" fill="#F1F1F1" rx="91.7258" ry="20.7452" style="stroke:#181818;stroke-width:0.5;"/><text fill="#000000" font-family="sans-serif" font-size="14" lengthAdjust="spacing" textLength="157.6367" x="258.0174" y="303.6436">Gestionar Maquinarias</text></g><!--entity UM2--><g class="entity" data-entity="UM2" data-source-line="6" data-uid="ent0006" id="entity_UM2"><ellipse cx="336.8381" cy="62.0036" fill="#F1F1F1" rx="85.6681" ry="19.5336" style="stroke:#181818;stroke-width:0.5;"/><text fill="#000000" font-family="sans-serif" font-size="14" lengthAdjust="spacing" textLength="143.8623" x="264.907" y="66.6521">Configurar umbrales</text></g><!--entity UM3--><g class="entity" data-entity="UM3" data-source-line="7" data-uid="ent0007" id="entity_UM3"><ellipse cx="336.8426" cy="220.0045" fill="#F1F1F1" rx="104.2726" ry="23.2545" style="stroke:#181818;stroke-width:0.5;"/><text fill="#000000" font-family="sans-serif" font-size="14" lengthAdjust="spacing" textLength="185.4316" x="244.1268" y="224.653">Programar mantenimiento</text></g><!--entity UM4--><g class="entity" data-entity="UM4" data-source-line="8" data-uid="ent0008" id="entity_UM4"><ellipse cx="336.8423" cy="459.0045" fill="#F1F1F1" rx="103.9223" ry="23.1845" style="stroke:#181818;stroke-width:0.5;"/><text fill="#000000" font-family="sans-serif" font-size="14" lengthAdjust="spacing" textLength="184.666" x="244.5093" y="463.6529">Completar mantenimiento</text></g><!--entity UM5--><g class="entity" data-entity="UM5" data-source-line="9" data-uid="ent0009" id="entity_UM5"><ellipse cx="336.8416" cy="377.9963" fill="#F1F1F1" rx="103.6816" ry="23.1363" style="stroke:#181818;stroke-width:0.5;"/><text fill="#000000" font-family="sans-serif" font-size="14" lengthAdjust="spacing" textLength="184.1396" x="244.7717" y="382.6448">Gestionar kits preventivos</text></g><!--entity UM6--><g class="entity" data-entity="UM6" data-source-line="10" data-uid="ent0010" id="entity_UM6"><ellipse cx="336.8409" cy="139.0002" fill="#F1F1F1" rx="99.6009" ry="22.3202" style="stroke:#181818;stroke-width:0.5;"/><text fill="#000000" font-family="sans-serif" font-size="14" lengthAdjust="spacing" textLength="175.1777" x="249.252" y="143.6486">Configurar notificaciones</text></g><!--entity Admin--><g class="entity" data-entity="Admin" data-source-line="2" data-uid="ent0002" id="entity_Admin"><ellipse cx="89.28" cy="174.35" fill="#F1F1F1" rx="8" ry="8" style="stroke:#181818;stroke-width:0.5;"/><path d="M89.28,182.35 L89.28,209.35 M76.28,190.35 L102.28,190.35 M89.28,209.35 L76.28,224.35 M89.28,209.35 L102.28,224.35" fill="none" style="stroke:#181818;stroke-width:0.5;"/><text fill="#000000" font-family="sans-serif" font-size="14" lengthAdjust="spacing" textLength="99.0801" x="39.74" y="238.8451">Administrador</text></g><!--entity PA--><g class="entity" data-entity="PA" data-source-line="3" data-uid="ent0003" id="entity_PA"><ellipse cx="89.2822" cy="285.35" fill="#F1F1F1" rx="8" ry="8" style="stroke:#181818;stroke-width:0.5;"/><path d="M89.2822,293.35 L89.2822,320.35 M76.2822,301.35 L102.2822,301.35 M89.2822,320.35 L76.2822,335.35 M89.2822,320.35 L102.2822,335.35" fill="none" style="stroke:#181818;stroke-width:0.5;"/><text fill="#000000" font-family="sans-serif" font-size="14" lengthAdjust="spacing" textLength="166.5645" x="6" y="349.8451">Personal Administrativo</text></g><!--link Admin to UM1--><g class="link" data-entity-1="Admin" data-entity-2="UM1" data-source-line="12" data-uid="lnk11" id="link_Admin_UM1"><path d="M139.29,229.78 C160.28,240.25 185.29,251.98 208.56,261 C230.07,269.33 248.4266,275.2818 269.8466,281.4818" fill="none" id="Admin-to-UM1" style="stroke:#181818;stroke-width:1;"/><polygon fill="#181818" points="275.61,283.15,268.077,276.8054,270.8071,281.7598,265.8527,284.49,275.61,283.15" style="stroke:#181818;stroke-width:1;"/></g><!--link Admin to UM2--><g class="link" data-entity-1="Admin" data-entity-2="UM2" data-source-line="13" data-uid="lnk12" id="link_Admin_UM2"><path d="M125.07,165.53 C147.07,143.27 177.19,116.32 208.56,99 C227.8,88.38 244.6111,82.1075 265.3811,76.4475" fill="none" id="Admin-to-UM2" style="stroke:#181818;stroke-width:1;"/><polygon fill="#181818" points="271.17,74.87,261.435,73.377,266.3459,76.1846,263.5383,81.0956,271.17,74.87" style="stroke:#181818;stroke-width:1;"/></g><!--link Admin to UM3--><g class="link" data-entity-1="Admin" data-entity-2="UM3" data-source-line="14" data-uid="lnk13" id="link_Admin_UM3"><path d="M139.09,207.18 C166.85,208.99 196.6727,210.9297 230.1127,213.1097" fill="none" id="Admin-to-UM3" style="stroke:#181818;stroke-width:1;"/><polygon fill="#181818" points="236.1,213.5,227.3793,208.923,231.1106,213.1747,226.8589,216.906,236.1,213.5" style="stroke:#181818;stroke-width:1;"/></g><!--link Admin to UM4--><g class="link" data-entity-1="Admin" data-entity-2="UM4" data-source-line="15" data-uid="lnk14" id="link_Admin_UM4"><path d="M139.03,227.86 C151.61,236.14 164.01,246.53 172.56,259 C213.81,319.1 159.21,365.36 208.56,419 C219.86,431.27 229.2441,437.6978 244.9841,443.6178" fill="none" id="Admin-to-UM4" style="stroke:#181818;stroke-width:1;"/><polygon fill="#181818" points="250.6,445.73,243.5843,438.8177,245.9201,443.9698,240.768,446.3056,250.6,445.73" style="stroke:#181818;stroke-width:1;"/></g><!--link Admin to UM6--><g class="link" data-entity-1="Admin" data-entity-2="UM6" data-source-line="16" data-uid="lnk15" id="link_Admin_UM6"><path d="M139.09,191.08 C176.99,181.05 224.0895,168.5742 265.4895,157.6242" fill="none" id="Admin-to-UM6" style="stroke:#181818;stroke-width:1;"/><polygon fill="#181818" points="271.29,156.09,261.5664,154.5243,266.4562,157.3685,263.612,162.2583,271.29,156.09" style="stroke:#181818;stroke-width:1;"/></g><!--link PA to UM1--><g class="link" data-entity-1="PA" data-entity-2="UM1" data-source-line="17" data-uid="lnk16" id="link_PA_UM1"><path d="M172.73,309.63 C196.97,308.05 217.5927,306.7001 242.1527,305.1001" fill="none" id="PA-to-UM1" style="stroke:#181818;stroke-width:1;"/><polygon fill="#181818" points="248.14,304.71,238.899,301.3035,243.1506,305.035,239.4191,309.2866,248.14,304.71" style="stroke:#181818;stroke-width:1;"/></g><!--link PA to UM3--><g class="link" data-entity-1="PA" data-entity-2="UM3" data-source-line="18" data-uid="lnk17" id="link_PA_UM3"><path d="M171.52,276.41 C183.83,271 196.46,265.69 208.56,261 C229.23,252.98 246.4703,247.0525 267.1403,240.5025" fill="none" id="PA-to-UM3" style="stroke:#181818;stroke-width:1;"/><polygon fill="#181818" points="272.86,238.69,263.0721,237.5956,268.0936,240.2004,265.4888,245.2219,272.86,238.69" style="stroke:#181818;stroke-width:1;"/></g><!--link PA to UM4--><g class="link" data-entity-1="PA" data-entity-2="UM4" data-source-line="19" data-uid="lnk18" id="link_PA_UM4"><path d="M126.04,353.61 C148.03,375.42 177.83,401.69 208.56,419 C225.62,428.6 239.5583,434.4238 258.2483,440.3238" fill="none" id="PA-to-UM4" style="stroke:#181818;stroke-width:1;"/><polygon fill="#181818" points="263.97,442.13,256.5916,435.6062,259.2019,440.6248,254.1833,443.2352,263.97,442.13" style="stroke:#181818;stroke-width:1;"/></g><!--SRC=[TP3DQiGm38JlVWgH-nwwIVTO2ANqj91B7q1Db5GqjhAoib1AtxtUqFn1zpPZVnwDt5DhO0BAtOT1mqgriGI7jOb2LZQU0qTJR4Gpm0ZJoNnTaKO9sCFA6Lzb0glItS8mT3r1TiRBo06L4RxW9Ub1OWRV3c2CL6DCo2l5ssXKME4uHRsT7xRWiuIMkr4JEVftnPvcxBZ5AfLEqIVAOp0Ax9c2oH-QxnFzq9FTGOl_MtwoHHYKhWbDIyyT7kzK3MBSSerrUhqKFhaVD_qT70vFqvvRTzovVEUAdJkvgbmY5fclilW5]--></g></svg>