<?plantuml 1.2026.2beta3?><svg xmlns="http://www.w3.org/2000/svg" xmlns:xlink="http://www.w3.org/1999/xlink" contentStyleType="text/css" data-diagram-type="DESCRIPTION" height="358px" preserveAspectRatio="none" style="width:1188px;height:358px;background:#FFFFFF;" version="1.1" viewBox="0 0 1188 358" width="1188px" zoomAndPan="magnify"><defs/><g><!--entity UI--><g class="entity" data-qualified-name="UI" data-source-line="2" id="ent0002"><rect fill="#F1F1F1" height="36.2969" rx="2.5" ry="2.5" style="stroke:#181818;stroke-width:0.5;" width="70.1689" x="622.23" y="7"/><text fill="#000000" font-family="sans-serif" font-size="14" lengthAdjust="spacing" textLength="50.1689" x="632.23" y="29.9951">UI Web</text></g><!--entity Prod--><g class="entity" data-qualified-name="Prod" data-source-line="3" id="ent0003"><rect fill="#F1F1F1" height="36.2969" rx="2.5" ry="2.5" style="stroke:#181818;stroke-width:0.5;" width="152.5557" x="303.04" y="103.3"/><text fill="#000000" font-family="sans-serif" font-size="14" lengthAdjust="spacing" textLength="132.5557" x="313.04" y="126.2951">Modulo Produccion</text></g><!--entity Maq--><g class="entity" data-qualified-name="Maq" data-source-line="4" id="ent0004"><rect fill="#F1F1F1" height="36.2969" rx="2.5" ry="2.5" style="stroke:#181818;stroke-width:0.5;" width="153.2939" x="490.67" y="103.3"/><text fill="#000000" font-family="sans-serif" font-size="14" lengthAdjust="spacing" textLength="133.2939" x="500.67" y="126.2951">Modulo Maquinaria</text></g><!--entity RRHH--><g class="entity" data-qualified-name="RRHH" data-source-line="5" id="ent0005"><rect fill="#F1F1F1" height="36.2969" rx="2.5" ry="2.5" style="stroke:#181818;stroke-width:0.5;" width="115.8193" x="1066.41" y="103.3"/><text fill="#000000" font-family="sans-serif" font-size="14" lengthAdjust="spacing" textLength="95.8193" x="1076.41" y="126.2951">Modulo RRHH</text></g><!--entity Fin--><g class="entity" data-qualified-name="Fin" data-source-line="6" id="ent0006"><rect fill="#F1F1F1" height="36.2969" rx="2.5" ry="2.5" style="stroke:#181818;stroke-width:0.5;" width="136.7988" x="678.92" y="103.3"/><text fill="#000000" font-family="sans-serif" font-size="14" lengthAdjust="spacing" textLength="116.7988" x="688.92" y="126.2951">Modulo Finanzas</text></g><!--entity Adm--><g class="entity" data-qualified-name="Adm" data-source-line="7" id="ent0007"><rect fill="#F1F1F1" height="36.2969" rx="2.5" ry="2.5" style="stroke:#181818;stroke-width:0.5;" width="180.207" x="851.21" y="103.3"/><text fill="#000000" font-family="sans-serif" font-size="14" lengthAdjust="spacing" textLength="160.207" x="861.21" y="126.2951">Modulo Administracion</text></g><!--entity Sec--><g class="entity" data-qualified-name="Sec" data-source-line="8" id="ent0008"><rect fill="#F1F1F1" height="36.2969" rx="2.5" ry="2.5" style="stroke:#181818;stroke-width:0.5;" width="214.79" x="52.92" y="103.3"/><text fill="#000000" font-family="sans-serif" font-size="14" lengthAdjust="spacing" textLength="194.79" x="62.92" y="126.2951">Modulo Seguridad/Auditoria</text></g><!--entity Rep--><g class="entity" data-qualified-name="Rep" data-source-line="9" id="ent0009"><rect fill="#F1F1F1" height="36.2969" rx="2.5" ry="2.5" style="stroke:#181818;stroke-width:0.5;" width="116.708" x="632.96" y="199.6"/><text fill="#000000" font-family="sans-serif" font-size="14" lengthAdjust="spacing" textLength="96.708" x="642.96" y="222.5951">Reportes/KPIs</text></g><!--entity Notif--><g class="entity" data-qualified-name="Notif" data-source-line="10" id="ent0010"><rect fill="#F1F1F1" height="36.2969" rx="2.5" ry="2.5" style="stroke:#181818;stroke-width:0.5;" width="118.4443" x="88.09" y="199.6"/><text fill="#000000" font-family="sans-serif" font-size="14" lengthAdjust="spacing" textLength="98.4443" x="98.09" y="222.5951">Notificaciones</text></g><!--entity ClimaInt--><g class="entity" data-qualified-name="ClimaInt" data-source-line="11" id="ent0011"><rect fill="#F1F1F1" height="36.2969" rx="2.5" ry="2.5" style="stroke:#181818;stroke-width:0.5;" width="143.5732" x="241.53" y="199.6"/><text fill="#000000" font-family="sans-serif" font-size="14" lengthAdjust="spacing" textLength="123.5732" x="251.53" y="222.5951">Integracion Clima</text></g><!--entity Jobs--><g class="entity" data-qualified-name="Jobs" data-source-line="12" id="ent0012"><rect fill="#F1F1F1" height="36.2969" rx="2.5" ry="2.5" style="stroke:#181818;stroke-width:0.5;" width="123.6807" x="317.47" y="7"/><text fill="#000000" font-family="sans-serif" font-size="14" lengthAdjust="spacing" textLength="103.6807" x="327.47" y="29.9951">Scheduler/Jobs</text></g><!--entity DB--><g class="entity" data-qualified-name="DB" data-source-line="13" id="ent0013"><path d="M584.94,305.89 C584.94,295.89 635.3165,295.89 635.3165,295.89 C635.3165,295.89 685.6929,295.89 685.6929,305.89 L685.6929,331.1869 C685.6929,341.1869 635.3165,341.1869 635.3165,341.1869 C635.3165,341.1869 584.94,341.1869 584.94,331.1869 L584.94,305.89" fill="#F1F1F1" style="stroke:#181818;stroke-width:0.5;"/><path d="M584.94,305.89 C584.94,315.89 635.3165,315.89 635.3165,315.89 C635.3165,315.89 685.6929,315.89 685.6929,305.89" fill="none" style="stroke:#181818;stroke-width:0.5;"/><text fill="#000000" font-family="sans-serif" font-size="14" lengthAdjust="spacing" textLength="80.7529" x="594.94" y="332.8851">PostgreSQL</text></g><!--entity Clima--><g class="entity" data-qualified-name="Clima" data-source-line="14" id="ent0014"><rect fill="#F1F1F1" height="36.2969" rx="2.5" ry="2.5" style="stroke:#181818;stroke-width:0.5;" width="155.9395" x="235.35" y="300.39"/><text fill="#000000" font-family="sans-serif" font-size="14" lengthAdjust="spacing" textLength="135.9395" x="245.35" y="323.3851">API Clima (externo)</text></g><!--link UI to Prod--><g class="link" data-entity-1="ent0002" data-entity-2="ent0003" data-link-type="dependency" data-source-line="16" id="lnk15"><path d="M621.82,38.19 C573.52,54.57 492.4219,82.0823 436.8319,100.9423" fill="none" id="UI-to-Prod" style="stroke:#181818;stroke-width:1;"/><polygon fill="#181818" points="431.15,102.87,440.958,103.7664,435.8849,101.2636,438.3877,96.1905,431.15,102.87" style="stroke:#181818;stroke-width:1;"/></g><!--link UI to Maq--><g class="link" data-entity-1="ent0002" data-entity-2="ent0004" data-link-type="dependency" data-source-line="17" id="lnk16"><path d="M640.81,43.45 C624.67,60.35 604.3731,81.6201 588.1631,98.6001" fill="none" id="UI-to-Maq" style="stroke:#181818;stroke-width:1;"/><polygon fill="#181818" points="584.02,102.94,593.1279,99.1922,587.4726,99.3234,587.3414,93.6681,584.02,102.94" style="stroke:#181818;stroke-width:1;"/></g><!--link UI to RRHH--><g class="link" data-entity-1="ent0002" data-entity-2="ent0005" data-link-type="dependency" data-source-line="18" id="lnk17"><path d="M692.79,32.76 C761.66,45.67 918.21,75.42 1049.31,103.3 C1054.8,104.47 1054.6536,104.4052 1060.3536,105.6752" fill="none" id="UI-to-RRHH" style="stroke:#181818;stroke-width:1;"/><polygon fill="#181818" points="1066.21,106.98,1058.2953,101.1185,1061.3297,105.8926,1056.5555,108.927,1066.21,106.98" style="stroke:#181818;stroke-width:1;"/></g><!--link UI to Fin--><g class="link" data-entity-1="ent0002" data-entity-2="ent0006" data-link-type="dependency" data-source-line="19" id="lnk18"><path d="M673.82,43.45 C689.96,60.35 710.2569,81.6201 726.4669,98.6001" fill="none" id="UI-to-Fin" style="stroke:#181818;stroke-width:1;"/><polygon fill="#181818" points="730.61,102.94,727.2886,93.6681,727.1574,99.3234,721.5021,99.1922,730.61,102.94" style="stroke:#181818;stroke-width:1;"/></g><!--link UI to Adm--><g class="link" data-entity-1="ent0002" data-entity-2="ent0007" data-link-type="dependency" data-source-line="20" id="lnk19"><path d="M692.71,37.9 C741.85,54.22 825.4454,81.9801 882.5754,100.9401" fill="none" id="UI-to-Adm" style="stroke:#181818;stroke-width:1;"/><polygon fill="#181818" points="888.27,102.83,880.988,96.1988,883.5245,101.2551,878.4682,103.7916,888.27,102.83" style="stroke:#181818;stroke-width:1;"/></g><!--link UI to Sec--><g class="link" data-entity-1="ent0002" data-entity-2="ent0008" data-link-type="dependency" data-source-line="21" id="lnk20"><path d="M621.97,32.86 C545.9,47.29 370.4648,80.5711 259.0348,101.7211" fill="none" id="UI-to-Sec" style="stroke:#181818;stroke-width:1;"/><polygon fill="#181818" points="253.14,102.84,262.728,105.0916,258.0523,101.9076,261.2362,97.2319,253.14,102.84" style="stroke:#181818;stroke-width:1;"/></g><!--link Prod to ClimaInt--><g class="link" data-entity-1="ent0003" data-entity-2="ent0011" data-link-type="dependency" data-source-line="23" id="lnk21"><path d="M367.21,139.74 C355.38,156.65 340.8896,177.3438 329.0096,194.3238" fill="none" id="Prod-to-ClimaInt" style="stroke:#181818;stroke-width:1;"/><polygon fill="#181818" points="325.57,199.24,334.0069,194.1588,328.4363,195.1432,327.4519,189.5726,325.57,199.24" style="stroke:#181818;stroke-width:1;"/></g><!--link Prod to Rep--><g class="link" data-entity-1="ent0003" data-entity-2="ent0009" data-link-type="dependency" data-source-line="24" id="lnk22"><path d="M437.63,140.07 C493.46,156.95 571.4566,180.5242 627.2766,197.3942" fill="none" id="Prod-to-Rep" style="stroke:#181818;stroke-width:1;"/><polygon fill="#181818" points="633.02,199.13,625.562,192.6974,628.2338,197.6835,623.2477,200.3553,633.02,199.13" style="stroke:#181818;stroke-width:1;"/></g><!--link Maq to Rep--><g class="link" data-entity-1="ent0004" data-entity-2="ent0009" data-link-type="dependency" data-source-line="25" id="lnk23"><path d="M590.35,139.96 C612.62,156.9 641.3928,178.7898 663.6328,195.6898" fill="none" id="Maq-to-Rep" style="stroke:#181818;stroke-width:1;"/><polygon fill="#181818" points="668.41,199.32,663.6643,190.6899,664.429,196.2949,658.8241,197.0596,668.41,199.32" style="stroke:#181818;stroke-width:1;"/></g><!--link RRHH to Rep--><g class="link" data-entity-1="ent0005" data-entity-2="ent0009" data-link-type="dependency" data-source-line="26" id="lnk24"><path d="M1066.19,135.81 C1060.49,137.1 1054.79,138.38 1049.31,139.6 C943.95,162.99 826.7792,188.0342 755.8292,203.0942" fill="none" id="RRHH-to-Rep" style="stroke:#181818;stroke-width:1;"/><polygon fill="#181818" points="749.96,204.34,759.5944,206.3841,754.851,203.3018,757.9333,198.5585,749.96,204.34" style="stroke:#181818;stroke-width:1;"/></g><!--link Fin to Rep--><g class="link" data-entity-1="ent0006" data-entity-2="ent0009" data-link-type="dependency" data-source-line="27" id="lnk25"><path d="M737.04,139.74 C727,156.65 714.8528,177.1006 704.7728,194.0806" fill="none" id="Fin-to-Rep" style="stroke:#181818;stroke-width:1;"/><polygon fill="#181818" points="701.71,199.24,709.7438,193.5428,704.2623,194.9405,702.8646,189.4591,701.71,199.24" style="stroke:#181818;stroke-width:1;"/></g><!--link Adm to Rep--><g class="link" data-entity-1="ent0007" data-entity-2="ent0009" data-link-type="dependency" data-source-line="28" id="lnk26"><path d="M894.58,140.07 C849.78,156.97 788.1538,180.2223 743.4338,197.0923" fill="none" id="Adm-to-Rep" style="stroke:#181818;stroke-width:1;"/><polygon fill="#181818" points="737.82,199.21,747.6526,199.7759,742.4982,197.4452,744.8289,192.2908,737.82,199.21" style="stroke:#181818;stroke-width:1;"/></g><!--link Jobs to Prod--><g class="link" data-entity-1="ent0012" data-entity-2="ent0003" data-link-type="dependency" data-source-line="30" id="lnk27"><path d="M379.31,43.45 C379.31,60.35 379.31,79.96 379.31,96.94" fill="none" id="Jobs-to-Prod" style="stroke:#181818;stroke-width:1;"/><polygon fill="#181818" points="379.31,102.94,383.31,93.94,379.31,97.94,375.31,93.94,379.31,102.94" style="stroke:#181818;stroke-width:1;"/></g><!--link Jobs to Maq--><g class="link" data-entity-1="ent0012" data-entity-2="ent0004" data-link-type="dependency" data-source-line="31" id="lnk28"><path d="M414.24,43.67 C447.9,60.55 493.1973,83.2691 526.8973,100.1791" fill="none" id="Jobs-to-Maq" style="stroke:#181818;stroke-width:1;"/><polygon fill="#181818" points="532.26,102.87,526.0098,95.2585,527.7911,100.6276,522.4219,102.4088,532.26,102.87" style="stroke:#181818;stroke-width:1;"/></g><!--link Jobs to Notif--><g class="link" data-entity-1="ent0012" data-entity-2="ent0010" data-link-type="dependency" data-source-line="32" id="lnk29"><path d="M317.32,30.97 C228,39.34 69.98,60 35.31,103.3 C6,139.92 59.2297,175.1042 102.1797,196.5042" fill="none" id="Jobs-to-Notif" style="stroke:#181818;stroke-width:1;"/><polygon fill="#181818" points="107.55,199.18,101.2784,191.5861,103.0747,196.9502,97.7107,198.7465,107.55,199.18" style="stroke:#181818;stroke-width:1;"/></g><!--link Sec to Notif--><g class="link" data-entity-1="ent0008" data-entity-2="ent0010" data-link-type="dependency" data-source-line="33" id="lnk30"><path d="M157.93,139.74 C155.6,156.65 152.8891,176.3162 150.5491,193.2962" fill="none" id="Sec-to-Notif" style="stroke:#181818;stroke-width:1;"/><polygon fill="#181818" points="149.73,199.24,154.9212,190.8703,150.4126,194.2868,146.9961,189.7782,149.73,199.24" style="stroke:#181818;stroke-width:1;"/></g><!--link Prod to DB--><g class="link" data-entity-1="ent0003" data-entity-2="ent0013" data-link-type="dependency" data-source-line="35" id="lnk31"><path d="M402.03,139.76 C448.66,175.29 550.2978,252.7533 601.6978,291.9233" fill="none" id="Prod-to-DB" style="stroke:#181818;stroke-width:1;"/><polygon fill="#181818" points="606.47,295.56,601.7361,286.9234,602.4931,292.5294,596.8872,293.2864,606.47,295.56" style="stroke:#181818;stroke-width:1;"/></g><!--link Maq to DB--><g class="link" data-entity-1="ent0004" data-entity-2="ent0013" data-link-type="dependency" data-source-line="36" id="lnk32"><path d="M573.35,139.76 C585.73,175.29 612.0256,250.7242 625.6756,289.8942" fill="none" id="Maq-to-DB" style="stroke:#181818;stroke-width:1;"/><polygon fill="#181818" points="627.65,295.56,628.4656,285.745,626.0046,290.8385,620.9111,288.3775,627.65,295.56" style="stroke:#181818;stroke-width:1;"/></g><!--link RRHH to DB--><g class="link" data-entity-1="ent0005" data-entity-2="ent0013" data-link-type="dependency" data-source-line="37" id="lnk33"><path d="M1082.36,140.06 C1028.37,162.64 931.61,202.81 848.31,235.89 C792.92,257.89 734.6526,280.119 691.4126,296.459" fill="none" id="RRHH-to-DB" style="stroke:#181818;stroke-width:1;"/><polygon fill="#181818" points="685.8,298.58,695.6329,299.1403,690.4772,296.8125,692.805,291.6568,685.8,298.58" style="stroke:#181818;stroke-width:1;"/></g><!--link Fin to DB--><g class="link" data-entity-1="ent0006" data-entity-2="ent0013" data-link-type="dependency" data-source-line="38" id="lnk34"><path d="M756.97,139.75 C768.57,163.06 784.45,205.15 767.31,235.89 C750,266.96 720.9518,285.3063 691.5318,298.1063" fill="none" id="Fin-to-DB" style="stroke:#181818;stroke-width:1;"/><polygon fill="#181818" points="686.03,300.5,695.8786,300.5773,690.6149,298.5052,692.6869,293.2415,686.03,300.5" style="stroke:#181818;stroke-width:1;"/></g><!--link Adm to DB--><g class="link" data-entity-1="ent0007" data-entity-2="ent0013" data-link-type="dependency" data-source-line="39" id="lnk35"><path d="M921.76,139.94 C894.91,163.47 844.56,205.81 797.31,235.89 C761.32,258.82 723.4833,277.8261 690.7233,293.0161" fill="none" id="Adm-to-DB" style="stroke:#181818;stroke-width:1;"/><polygon fill="#181818" points="685.28,295.54,695.1276,295.383,689.8161,293.4367,691.7624,288.1252,685.28,295.54" style="stroke:#181818;stroke-width:1;"/></g><!--link Sec to DB--><g class="link" data-entity-1="ent0008" data-entity-2="ent0013" data-link-type="dependency" data-source-line="40" id="lnk36"><path d="M225.26,140.09 C274.57,154.21 343.65,175.58 402.31,199.6 C421.38,207.4 525.4882,260.8183 587.3582,292.7483" fill="none" id="Sec-to-DB" style="stroke:#181818;stroke-width:1;"/><polygon fill="#181818" points="592.69,295.5,586.5267,287.818,588.2468,293.207,582.8578,294.9271,592.69,295.5" style="stroke:#181818;stroke-width:1;"/></g><!--link Rep to DB--><g class="link" data-entity-1="ent0009" data-entity-2="ent0013" data-link-type="dependency" data-source-line="41" id="lnk37"><path d="M681.56,235.95 C672.16,252.54 660.8593,272.4806 650.6593,290.4706" fill="none" id="Rep-to-DB" style="stroke:#181818;stroke-width:1;"/><polygon fill="#181818" points="647.7,295.69,655.6186,289.8337,650.1661,291.3405,648.6594,285.888,647.7,295.69" style="stroke:#181818;stroke-width:1;"/></g><!--link Notif to DB--><g class="link" data-entity-1="ent0010" data-entity-2="ent0013" data-link-type="dependency" data-source-line="42" id="lnk38"><path d="M206.98,232.17 C212.83,233.45 218.69,234.71 224.31,235.89 C353.87,263.19 501.0577,291.8081 578.7277,306.7281" fill="none" id="Notif-to-DB" style="stroke:#181818;stroke-width:1;"/><polygon fill="#181818" points="584.62,307.86,576.5362,302.234,579.7098,306.9168,575.027,310.0904,584.62,307.86" style="stroke:#181818;stroke-width:1;"/></g><!--link ClimaInt to Clima--><g class="link" data-entity-1="ent0011" data-entity-2="ent0014" data-link-type="dependency" data-source-line="43" id="lnk39"><path d="M313.31,235.95 C313.31,253.98 313.31,276.13 313.31,294.2" fill="none" id="ClimaInt-to-Clima" style="stroke:#181818;stroke-width:1;"/><polygon fill="#181818" points="313.31,300.2,317.31,291.2,313.31,295.2,309.31,291.2,313.31,300.2" style="stroke:#181818;stroke-width:1;"/></g><?plantuml-src RL71JiGW4BttAqXFUjZi7vYi6hDLrzHjDfufdQt45YhGHFrwPw1G3ZtntipZlM6mNr9DtF2H2JrEMe5oZViTW1aGZgj-W28rM7cfs0Uq9UEMNQgySTBTF6XM6po5a5fv3T4DrOb_pr9n8xbN8TqGdS_7esyJsEW_eOFwuzPha6n83jqebRJEy3GHbZQ43VIpaHtlzeUvaqx7oHeGkVeCapOExFwbha8kLdB1ctRoAeMFWw3mfLnJAGTzc8Wz378CIHvXArSsuXDmF33xPzq6Dm95nnrlkGLMrjgwta3p_kgxZ_VvzKDT1Ljs0pyEZDAtQrHHu5VkTdVXYnPC7x50l_G5qt8NIEjR8EsceDkUfVbJXLQ3XWcJOo9ecJ1w9bpG0zUv4gF94WahnVoChRcuX1YBCAKYZg48OoR2w4DYc2Bqhf74nwql_GS0?></g></svg>