<svg xmlns="http://www.w3.org/2000/svg" xmlns:xlink="http://www.w3.org/1999/xlink" contentStyleType="text/css" data-diagram-type="DESCRIPTION" height="517px" preserveAspectRatio="none" style="width:854px;height:517px;background:#FFFFFF;" version="1.1" viewBox="0 0 854 517" width="854px" zoomAndPan="magnify"><defs/><g><!--cluster Produccion--><g class="cluster" data-entity="Produccion" data-source-line="6" data-uid="ent0006" id="cluster_Produccion"><rect fill="none" height="410" rx="2.5" ry="2.5" style="stroke:#181818;stroke-width:1;" width="628.86" x="219.56" y="7"/><text fill="#000000" font-family="sans-serif" font-size="14" font-weight="bold" lengthAdjust="spacing" textLength="87.7529" x="490.1135" y="21.9951">Produccion</text></g><!--entity UC1--><g class="entity" data-entity="UC1" data-source-line="7" data-uid="ent0007" id="entity_UC1"><ellipse cx="374.5048" cy="58.999" fill="#F1F1F1" rx="71.4948" ry="16.699" style="stroke:#181818;stroke-width:0.5;"/><text fill="#000000" font-family="sans-serif" font-size="14" lengthAdjust="spacing" textLength="110.1201" x="319.4447" y="63.6474">Gestionar Lotes</text></g><!--entity UC2--><g class="entity" data-entity="UC2" data-source-line="8" data-uid="ent0008" id="entity_UC2"><ellipse cx="374.5043" cy="127.9969" fill="#F1F1F1" rx="76.0343" ry="17.6069" style="stroke:#181818;stroke-width:0.5;"/><text fill="#000000" font-family="sans-serif" font-size="14" lengthAdjust="spacing" textLength="121.2285" x="313.8901" y="132.6453">Gestionar Cargas</text></g><!--entity UC3--><g class="entity" data-entity="UC3" data-source-line="9" data-uid="ent0009" id="entity_UC3"><ellipse cx="374.5033" cy="285.9987" fill="#F1F1F1" rx="88.8933" ry="20.1787" style="stroke:#181818;stroke-width:0.5;"/><text fill="#000000" font-family="sans-serif" font-size="14" lengthAdjust="spacing" textLength="151.2314" x="298.8876" y="290.6471">Registrar Parte Diario</text></g><!--entity UC4--><g class="entity" data-entity="UC4" data-source-line="10" data-uid="ent0010" id="entity_UC4"><ellipse cx="374.4969" cy="205.9994" fill="#F1F1F1" rx="113.1969" ry="25.0394" style="stroke:#181818;stroke-width:0.5;"/><text fill="#000000" font-family="sans-serif" font-size="14" lengthAdjust="spacing" textLength="204.7773" x="272.1083" y="210.6478">Planificar tareas por lote (ha)</text></g><!--entity UC5--><g class="entity" data-entity="UC5" data-source-line="11" data-uid="ent0011" id="entity_UC5"><ellipse cx="723.4228" cy="331.9986" fill="#F1F1F1" rx="108.9928" ry="24.1986" style="stroke:#181818;stroke-width:0.5;"/><text fill="#000000" font-family="sans-serif" font-size="14" lengthAdjust="spacing" textLength="195.6992" x="625.5732" y="336.647">Consultar recomendaciones</text></g><!--entity UC6--><g class="entity" data-entity="UC6" data-source-line="12" data-uid="ent0012" id="entity_UC6"><ellipse cx="374.5039" cy="370.9968" fill="#F1F1F1" rx="138.9339" ry="30.1868" style="stroke:#181818;stroke-width:0.5;"/><text fill="#000000" font-family="sans-serif" font-size="14" lengthAdjust="spacing" textLength="259.3691" x="244.8193" y="375.6452">Gestionar Asignaciones y Propuestas</text></g><!--entity PA--><g class="entity" data-entity="PA" data-source-line="2" data-uid="ent0002" id="entity_PA"><ellipse cx="89.2822" cy="122.35" fill="#F1F1F1" rx="8" ry="8" style="stroke:#181818;stroke-width:0.5;"/><path d="M89.2822,130.35 L89.2822,157.35 M76.2822,138.35 L102.2822,138.35 M89.2822,157.35 L76.2822,172.35 M89.2822,157.35 L102.2822,172.35" fill="none" style="stroke:#181818;stroke-width:0.5;"/><text fill="#000000" font-family="sans-serif" font-size="14" lengthAdjust="spacing" textLength="166.5645" x="6" y="186.8451">Personal Administrativo</text></g><!--entity Capataz--><g class="entity" data-entity="Capataz" data-source-line="3" data-uid="ent0003" id="entity_Capataz"><ellipse cx="89.2787" cy="243.35" fill="#F1F1F1" rx="8" ry="8" style="stroke:#181818;stroke-width:0.5;"/><path d="M89.2787,251.35 L89.2787,278.35 M76.2787,259.35 L102.2787,259.35 M89.2787,278.35 L76.2787,293.35 M89.2787,278.35 L102.2787,293.35" fill="none" style="stroke:#181818;stroke-width:0.5;"/><text fill="#000000" font-family="sans-serif" font-size="14" lengthAdjust="spacing" textLength="57.2373" x="60.66" y="307.8451">Capataz</text></g><!--entity Admin--><g class="entity" data-entity="Admin" data-source-line="4" data-uid="ent0004" id="entity_Admin"><ellipse cx="89.28" cy="354.35" fill="#F1F1F1" rx="8" ry="8" style="stroke:#181818;stroke-width:0.5;"/><path d="M89.28,362.35 L89.28,389.35 M76.28,370.35 L102.28,370.35 M89.28,389.35 L76.28,404.35 M89.28,389.35 L102.28,404.35" fill="none" style="stroke:#181818;stroke-width:0.5;"/><text fill="#000000" font-family="sans-serif" font-size="14" lengthAdjust="spacing" textLength="99.0801" x="39.74" y="418.8451">Administrador</text></g><!--entity Clima--><g class="entity" data-entity="Clima" data-source-line="5" data-uid="ent0005" id="entity_Clima"><ellipse cx="374.4952" cy="444.35" fill="#F1F1F1" rx="8" ry="8" style="stroke:#181818;stroke-width:0.5;"/><path d="M374.4952,452.35 L374.4952,479.35 M361.4952,460.35 L387.4952,460.35 M374.4952,479.35 L361.4952,494.35 M374.4952,479.35 L387.4952,494.35" fill="none" style="stroke:#181818;stroke-width:0.5;"/><text fill="#000000" font-family="sans-serif" font-size="14" lengthAdjust="spacing" textLength="140.6904" x="304.15" y="508.8451">API Clima (opcional)</text></g><!--link PA to UC1--><g class="link" data-entity-1="PA" data-entity-2="UC1" data-source-line="14" data-uid="lnk13" id="link_PA_UC1"><path d="M162.16,113.45 C178.12,105.91 195.17,98.61 211.56,93 C244.45,81.74 276.5138,74.5867 307.4238,69.0567" fill="none" id="PA-to-UC1" style="stroke:#181818;stroke-width:1;"/><polygon fill="#181818" points="313.33,68,303.7662,65.6475,308.4081,68.8806,305.1751,73.5225,313.33,68" style="stroke:#181818;stroke-width:1;"/></g><!--link PA to UC2--><g class="link" data-entity-1="PA" data-entity-2="UC2" data-source-line="15" data-uid="lnk14" id="link_PA_UC2"><path d="M172.96,145 C214.11,141.51 257.3515,137.8471 296.7315,134.5071" fill="none" id="PA-to-UC2" style="stroke:#181818;stroke-width:1;"/><polygon fill="#181818" points="302.71,134,293.4042,130.7749,297.7279,134.4226,294.0802,138.7463,302.71,134" style="stroke:#181818;stroke-width:1;"/></g><!--link PA to UC3--><g class="link" data-entity-1="PA" data-entity-2="UC3" data-source-line="16" data-uid="lnk15" id="link_PA_UC3"><path d="M139.13,190.35 C150.16,199.07 161.79,208.32 172.56,217 C190.03,231.06 191.43,239.13 211.56,249 C237.85,261.89 262.8568,269.1921 290.5768,274.7421" fill="none" id="PA-to-UC3" style="stroke:#181818;stroke-width:1;"/><polygon fill="#181818" points="296.46,275.92,288.4204,270.231,291.5573,274.9384,286.8499,278.0753,296.46,275.92" style="stroke:#181818;stroke-width:1;"/></g><!--link PA to UC4--><g class="link" data-entity-1="PA" data-entity-2="UC4" data-source-line="17" data-uid="lnk16" id="link_PA_UC4"><path d="M172.96,167.77 C209.04,174.65 245.4461,181.5869 281.8661,188.5269" fill="none" id="PA-to-UC4" style="stroke:#181818;stroke-width:1;"/><polygon fill="#181818" points="287.76,189.65,279.6678,184.036,282.8484,188.7141,278.1703,191.8946,287.76,189.65" style="stroke:#181818;stroke-width:1;"/></g><!--link Capataz to UC3--><g class="link" data-entity-1="Capataz" data-entity-2="UC3" data-source-line="18" data-uid="lnk17" id="link_Capataz_UC3"><path d="M118.21,274.28 C157.08,276.07 223.2063,279.1047 280.8963,281.7547" fill="none" id="Capataz-to-UC3" style="stroke:#181818;stroke-width:1;"/><polygon fill="#181818" points="286.89,282.03,278.083,277.6212,281.8953,281.8006,277.7159,285.6128,286.89,282.03" style="stroke:#181818;stroke-width:1;"/></g><!--link Admin to UC6--><g class="link" data-entity-1="Admin" data-entity-2="UC6" data-source-line="19" data-uid="lnk18" id="link_Admin_UC6"><path d="M139.29,381.75 C166.84,380.49 196.7163,379.1146 232.0763,377.4946" fill="none" id="Admin-to-UC6" style="stroke:#181818;stroke-width:1;"/><polygon fill="#181818" points="238.07,377.22,228.8964,373.6361,233.0752,377.4488,229.2625,381.6277,238.07,377.22" style="stroke:#181818;stroke-width:1;"/></g><!--link Clima to UC5--><g class="link" data-entity-1="Clima" data-entity-2="UC5" data-source-line="20" data-uid="lnk19" id="link_Clima_UC5"><path d="M445.29,445.44 C511.67,418.26 604.4972,380.273 664.4472,355.733" fill="none" id="Clima-to-UC5" style="stroke:#181818;stroke-width:1;"/><polygon fill="#181818" points="670,353.46,660.1555,353.1676,665.3727,355.3542,663.1861,360.5713,670,353.46" style="stroke:#181818;stroke-width:1;"/></g><!--link UC4 to UC5--><g class="link" data-entity-1="UC4" data-entity-2="UC5" data-source-line="21" data-uid="lnk20" id="link_UC4_UC5"><path d="M444.99,225.88 C467.01,232.52 491.36,240.22 513.43,248 C568.38,267.37 624.6425,290.3162 666.6825,308.0662" fill="none" id="UC4-to-UC5" style="stroke:#181818;stroke-width:1;stroke-dasharray:7,7;"/><polygon fill="#181818" points="672.21,310.4,665.4746,303.2143,667.6037,308.4552,662.3629,310.5843,672.21,310.4" style="stroke:#181818;stroke-width:1;"/><text fill="#000000" font-family="sans-serif" font-size="13" lengthAdjust="spacing" textLength="39.8188" x="544.43" y="257.0669">apoyo</text></g><!--SRC=[RP7BQiGm34Nt_WgHrSnY1ZglHHU5a48fT14A_G2HU382nmgoKvYM_diTntaiPYVh7jdtMaPVFNW6eURceIRHbIUs2YlF0bcfnR550tdTaYNd1JrzSmReeCmdgi0EFVx4RgedQPchMI8GExDSlaDXg4NOS5VHyDHsl6Pegi4DsiReu4Iuxgi1oU1N0VHEL-Y2yARTu1W5FjXh5wU_YgV7I87IuCGSriodRg9DWHB5QtWb5E947jTaQT3IbQg0UXGTW2v4CU5nsDnmcqPEwv62hUjDe24aubRR6eSaizlpOxUveyOc4kuGlg3hWpW7kAW_LUQmsxt4n7DvMChZKfvKsiqinLMaqqMDUnXFPnLusEzZ3S-07T_v7m00]--></g></svg>