<?plantuml 1.2026.2beta3?><svg xmlns="http://www.w3.org/2000/svg" xmlns:xlink="http://www.w3.org/1999/xlink" contentStyleType="text/css" data-diagram-type="DESCRIPTION" height="358px" preserveAspectRatio="none" style="width:747px;height:358px;background:#FFFFFF;" version="1.1" viewBox="0 0 747 358" width="747px" zoomAndPan="magnify"><defs/><g><!--entity UI--><g class="entity" data-qualified-name="UI" data-source-line="2" id="ent0002"><rect fill="#F1F1F1" height="36.2969" rx="2.5" ry="2.5" style="stroke:#181818;stroke-width:0.5;" width="188.1299" x="203.49" y="7"/><text fill="#000000" font-family="sans-serif" font-size="14" lengthAdjust="spacing" textLength="168.1299" x="213.49" y="29.9951">UI Web (Livewire/Blade)</text></g><!--entity S--><g class="entity" data-qualified-name="S" data-source-line="3" id="ent0003"><rect fill="#F1F1F1" height="36.2969" rx="2.5" ry="2.5" style="stroke:#181818;stroke-width:0.5;" width="180.8223" x="302.15" y="103.3"/><text fill="#000000" font-family="sans-serif" font-size="14" lengthAdjust="spacing" textLength="160.8223" x="312.15" y="126.2951">Servicios de Aplicacion</text></g><!--entity CDS--><g class="entity" data-qualified-name="CDS" data-source-line="4" id="ent0004"><rect fill="#F1F1F1" height="36.2969" rx="2.5" ry="2.5" style="stroke:#181818;stroke-width:0.5;" width="171.1152" x="7" y="199.6"/><text fill="#000000" font-family="sans-serif" font-size="14" lengthAdjust="spacing" textLength="151.1152" x="17" y="222.5951">ClimaDecisionService</text></g><!--entity MS--><g class="entity" data-qualified-name="MS" data-source-line="5" id="ent0005"><rect fill="#F1F1F1" height="36.2969" rx="2.5" ry="2.5" style="stroke:#181818;stroke-width:0.5;" width="177.2061" x="212.95" y="199.6"/><text fill="#000000" font-family="sans-serif" font-size="14" lengthAdjust="spacing" textLength="157.2061" x="222.95" y="222.5951">MantenimientoService</text></g><!--entity JS--><g class="entity" data-qualified-name="JS" data-source-line="6" id="ent0006"><rect fill="#F1F1F1" height="36.2969" rx="2.5" ry="2.5" style="stroke:#181818;stroke-width:0.5;" width="123.6807" x="426.72" y="7"/><text fill="#000000" font-family="sans-serif" font-size="14" lengthAdjust="spacing" textLength="103.6807" x="436.72" y="29.9951">Jobs/Scheduler</text></g><!--entity ORM--><g class="entity" data-qualified-name="ORM" data-source-line="7" id="ent0007"><rect fill="#F1F1F1" height="36.2969" rx="2.5" ry="2.5" style="stroke:#181818;stroke-width:0.5;" width="119.5791" x="424.77" y="199.6"/><text fill="#000000" font-family="sans-serif" font-size="14" lengthAdjust="spacing" textLength="99.5791" x="434.77" y="222.5951">ORM/Eloquent</text></g><!--entity DB--><g class="entity" data-qualified-name="DB" data-source-line="8" id="ent0008"><path d="M434.18,305.89 C434.18,295.89 484.5565,295.89 484.5565,295.89 C484.5565,295.89 534.9329,295.89 534.9329,305.89 L534.9329,331.1869 C534.9329,341.1869 484.5565,341.1869 484.5565,341.1869 C484.5565,341.1869 434.18,341.1869 434.18,331.1869 L434.18,305.89" fill="#F1F1F1" style="stroke:#181818;stroke-width:0.5;"/><path d="M434.18,305.89 C434.18,315.89 484.5565,315.89 484.5565,315.89 C484.5565,315.89 534.9329,315.89 534.9329,305.89" fill="none" style="stroke:#181818;stroke-width:0.5;"/><text fill="#000000" font-family="sans-serif" font-size="14" lengthAdjust="spacing" textLength="80.7529" x="444.18" y="332.8851">PostgreSQL</text></g><!--entity Mail--><g class="entity" data-qualified-name="Mail" data-source-line="9" id="ent0009"><rect fill="#F1F1F1" height="36.2969" rx="2.5" ry="2.5" style="stroke:#181818;stroke-width:0.5;" width="162.2559" x="579.43" y="199.6"/><text fill="#000000" font-family="sans-serif" font-size="14" lengthAdjust="spacing" textLength="142.2559" x="589.43" y="222.5951">Notificaciones (Mail)</text></g><!--entity Clima--><g class="entity" data-qualified-name="Clima" data-source-line="10" id="ent0010"><rect fill="#F1F1F1" height="36.2969" rx="2.5" ry="2.5" style="stroke:#181818;stroke-width:0.5;" width="155.9395" x="14.59" y="300.39"/><text fill="#000000" font-family="sans-serif" font-size="14" lengthAdjust="spacing" textLength="135.9395" x="24.59" y="323.3851">API Clima (externo)</text></g><!--link UI to S--><g class="link" data-entity-1="ent0002" data-entity-2="ent0003" data-link-type="dependency" data-source-line="12" id="lnk11"><path d="M314.98,43.45 C332.02,60.35 353.5624,81.7323 370.6624,98.7123" fill="none" id="UI-to-S" style="stroke:#181818;stroke-width:1;"/><polygon fill="#181818" points="374.92,102.94,371.3521,93.7601,371.372,99.4169,365.7152,99.4369,374.92,102.94" style="stroke:#181818;stroke-width:1;"/></g><!--link S to MS--><g class="link" data-entity-1="ent0003" data-entity-2="ent0005" data-link-type="dependency" data-source-line="13" id="lnk12"><path d="M375.87,139.74 C359.55,156.65 339.007,177.943 322.617,194.923" fill="none" id="S-to-MS" style="stroke:#181818;stroke-width:1;"/><polygon fill="#181818" points="318.45,199.24,327.5785,195.5425,321.9225,195.6425,321.8225,189.9865,318.45,199.24" style="stroke:#181818;stroke-width:1;"/></g><!--link S to CDS--><g class="link" data-entity-1="ent0003" data-entity-2="ent0004" data-link-type="dependency" data-source-line="14" id="lnk13"><path d="M336.48,140.07 C282.81,156.95 208.0039,180.4608 154.3339,197.3308" fill="none" id="S-to-CDS" style="stroke:#181818;stroke-width:1;"/><polygon fill="#181818" points="148.61,199.13,158.3953,200.2472,153.3799,197.6307,155.9964,192.6153,148.61,199.13" style="stroke:#181818;stroke-width:1;"/></g><!--link S to ORM--><g class="link" data-entity-1="ent0003" data-entity-2="ent0007" data-link-type="dependency" data-source-line="15" id="lnk14"><path d="M409.43,139.74 C425.93,156.65 446.7195,177.9658 463.2895,194.9458" fill="none" id="S-to-ORM" style="stroke:#181818;stroke-width:1;"/><polygon fill="#181818" points="467.48,199.24,464.0571,190.0051,463.9879,195.6615,458.3315,195.5924,467.48,199.24" style="stroke:#181818;stroke-width:1;"/></g><!--link ORM to DB--><g class="link" data-entity-1="ent0007" data-entity-2="ent0008" data-link-type="dependency" data-source-line="16" id="lnk15"><path d="M484.56,235.95 C484.56,252.54 484.56,271.7 484.56,289.69" fill="none" id="ORM-to-DB" style="stroke:#181818;stroke-width:1;"/><polygon fill="#181818" points="484.56,295.69,488.56,286.69,484.56,290.69,480.56,286.69,484.56,295.69" style="stroke:#181818;stroke-width:1;"/></g><!--link JS to S--><g class="link" data-entity-1="ent0006" data-entity-2="ent0003" data-link-type="dependency" data-source-line="17" id="lnk16"><path d="M470.95,43.45 C453.74,60.35 431.9396,81.7547 414.6596,98.7347" fill="none" id="JS-to-S" style="stroke:#181818;stroke-width:1;"/><polygon fill="#181818" points="410.38,102.94,419.603,99.4851,413.9464,99.4356,413.9959,93.7789,410.38,102.94" style="stroke:#181818;stroke-width:1;"/></g><!--link S to Mail--><g class="link" data-entity-1="ent0003" data-entity-2="ent0009" data-link-type="dependency" data-source-line="18" id="lnk17"><path d="M442.65,140.07 C490.68,156.97 557.1102,180.3483 605.0502,197.2183" fill="none" id="S-to-Mail" style="stroke:#181818;stroke-width:1;"/><polygon fill="#181818" points="610.71,199.21,603.5481,192.4493,605.9935,197.5503,600.8925,199.9957,610.71,199.21" style="stroke:#181818;stroke-width:1;"/></g><!--link CDS to Clima--><g class="link" data-entity-1="ent0004" data-entity-2="ent0010" data-link-type="dependency" data-source-line="19" id="lnk18"><path d="M92.56,235.95 C92.56,253.98 92.56,276.13 92.56,294.2" fill="none" id="CDS-to-Clima" style="stroke:#181818;stroke-width:1;"/><polygon fill="#181818" points="92.56,300.2,96.56,291.2,92.56,295.2,88.56,291.2,92.56,300.2" style="stroke:#181818;stroke-width:1;"/></g><?plantuml-src LP31JiCm38RlVGghftAO-WP8sygXrGg3QEBifcQpI9EIP0FUdYG5b1wY_BO_9_xjtbdFQ742QQRPQD9U-6z5O4bwr6T5nNy1obCBhpH0TU0RVRAbUgTmfBiIqC6fpKb1ziQIZOEHO3ihbXWYdKYHWtl54pOasONoqaM9sZShhaVjIVF48J8vrw-mpWok5l92urMHJK2t0fvU-lf1cOzhY58v98eHFGxe2CgZSVviIJmVKh7PvRsFnlFRhnDoKFN8QZ4VLKvkZoqaPr3HboUhpSAbN564FMuszs4H8jtzduYU5nMd2YVfC4GdrWtnkm0lJV7D7m00?></g></svg>