<?plantuml 1.2026.2beta3?><svg xmlns="http://www.w3.org/2000/svg" xmlns:xlink="http://www.w3.org/1999/xlink" contentStyleType="text/css" data-diagram-type="DESCRIPTION" height="522px" preserveAspectRatio="none" style="width:545px;height:522px;background:#FFFFFF;" version="1.1" viewBox="0 0 545 522" width="545px" zoomAndPan="magnify"><defs/><g><!--cluster Sistema Gestion Rennova--><g class="cluster" data-qualified-name="Sistema Gestion Rennova" data-source-line="7" id="ent0006"><rect fill="none" height="509" rx="2.5" ry="2.5" style="stroke:#181818;stroke-width:1;" width="322.9" x="216.56" y="7"/><text fill="#000000" font-family="sans-serif" font-size="14" font-weight="bold" lengthAdjust="spacing" textLength="201.9814" x="277.0193" y="21.9951">Sistema Gestion Rennova</text></g><!--entity UCProd--><g class="entity" data-qualified-name="Sistema Gestion Rennova.UCProd" data-source-line="8" id="ent0007"><ellipse cx="378.0081" cy="221.9956" fill="#F1F1F1" rx="88.1781" ry="20.0356" style="stroke:#181818;stroke-width:0.5;"/><text fill="#000000" font-family="sans-serif" font-size="14" lengthAdjust="spacing" textLength="149.6045" x="303.2058" y="226.644">Gestionar Produccion</text></g><!--entity UCMaq--><g class="entity" data-qualified-name="Sistema Gestion Rennova.UCMaq" data-source-line="9" id="ent0008"><ellipse cx="378.0073" cy="468.9995" fill="#F1F1F1" rx="145.4473" ry="31.4895" style="stroke:#181818;stroke-width:0.5;"/><text fill="#000000" font-family="sans-serif" font-size="14" lengthAdjust="spacing" textLength="272.9932" x="241.5108" y="473.6479">Gestionar Maquinaria y Mantenimiento</text></g><!--entity UCRRHH--><g class="entity" data-qualified-name="Sistema Gestion Rennova.UCRRHH" data-source-line="10" id="ent0009"><ellipse cx="378.0103" cy="302.0041" fill="#F1F1F1" rx="114.2203" ry="25.2441" style="stroke:#181818;stroke-width:0.5;"/><text fill="#000000" font-family="sans-serif" font-size="14" lengthAdjust="spacing" textLength="206.9785" x="274.521" y="306.6525">Gestionar Recursos Humanos</text></g><!--entity UCFin--><g class="entity" data-qualified-name="Sistema Gestion Rennova.UCFin" data-source-line="11" id="ent0010"><ellipse cx="378.0134" cy="143.0027" fill="#F1F1F1" rx="110.0634" ry="24.4127" style="stroke:#181818;stroke-width:0.5;"/><text fill="#000000" font-family="sans-serif" font-size="14" lengthAdjust="spacing" textLength="198.0166" x="279.0051" y="147.6511">Gestionar Finanzas y Costos</text></g><!--entity UCAdm--><g class="entity" data-qualified-name="Sistema Gestion Rennova.UCAdm" data-source-line="12" id="ent0011"><ellipse cx="378.0089" cy="62.9978" fill="#F1F1F1" rx="92.8389" ry="20.9678" style="stroke:#181818;stroke-width:0.5;"/><text fill="#000000" font-family="sans-serif" font-size="14" lengthAdjust="spacing" textLength="160.1387" x="297.9395" y="67.6462">Gestion Administrativa</text></g><!--entity UCSeg--><g class="entity" data-qualified-name="Sistema Gestion Rennova.UCSeg" data-source-line="13" id="ent0012"><ellipse cx="378.0094" cy="382.0019" fill="#F1F1F1" rx="89.2094" ry="20.2419" style="stroke:#181818;stroke-width:0.5;"/><text fill="#000000" font-family="sans-serif" font-size="14" lengthAdjust="spacing" textLength="151.9492" x="302.0348" y="386.6503">Seguridad y Auditoria</text></g><!--entity PA--><g class="entity" data-qualified-name="PA" data-source-line="2" id="ent0002"><ellipse cx="89.2822" cy="81.35" fill="#F1F1F1" rx="8" ry="8" style="stroke:#181818;stroke-width:0.5;"/><path d="M89.2822,89.35 L89.2822,116.35 M76.2822,97.35 L102.2822,97.35 M89.2822,116.35 L76.2822,131.35 M89.2822,116.35 L102.2822,131.35" fill="none" style="stroke:#181818;stroke-width:0.5;"/><text fill="#000000" font-family="sans-serif" font-size="14" lengthAdjust="spacing" textLength="166.5645" x="6" y="145.8451">Personal Administrativo</text></g><!--entity Capataz--><g class="entity" data-qualified-name="Capataz" data-source-line="3" id="ent0003"><ellipse cx="89.2787" cy="192.35" fill="#F1F1F1" rx="8" ry="8" style="stroke:#181818;stroke-width:0.5;"/><path d="M89.2787,200.35 L89.2787,227.35 M76.2787,208.35 L102.2787,208.35 M89.2787,227.35 L76.2787,242.35 M89.2787,227.35 L102.2787,242.35" fill="none" style="stroke:#181818;stroke-width:0.5;"/><text fill="#000000" font-family="sans-serif" font-size="14" lengthAdjust="spacing" textLength="57.2373" x="60.66" y="256.8451">Capataz</text></g><!--entity Admin--><g class="entity" data-qualified-name="Admin" data-source-line="4" id="ent0004"><ellipse cx="89.28" cy="414.35" fill="#F1F1F1" rx="8" ry="8" style="stroke:#181818;stroke-width:0.5;"/><path d="M89.28,422.35 L89.28,449.35 M76.28,430.35 L102.28,430.35 M89.28,449.35 L76.28,464.35 M89.28,449.35 L102.28,464.35" fill="none" style="stroke:#181818;stroke-width:0.5;"/><text fill="#000000" font-family="sans-serif" font-size="14" lengthAdjust="spacing" textLength="99.0801" x="39.74" y="478.8451">Administrador</text></g><!--entity Clima--><g class="entity" data-qualified-name="Clima" data-source-line="5" id="ent0005"><ellipse cx="89.2852" cy="303.35" fill="#F1F1F1" rx="8" ry="8" style="stroke:#181818;stroke-width:0.5;"/><path d="M89.2852,311.35 L89.2852,338.35 M76.2852,319.35 L102.2852,319.35 M89.2852,338.35 L76.2852,353.35 M89.2852,338.35 L102.2852,353.35" fill="none" style="stroke:#181818;stroke-width:0.5;"/><text fill="#000000" font-family="sans-serif" font-size="14" lengthAdjust="spacing" textLength="140.6904" x="18.94" y="367.8451">API Clima (opcional)</text></g><!--link PA to UCProd--><g class="link" data-entity-1="ent0002" data-entity-2="ent0007" data-link-type="dependency" data-source-line="16" id="lnk13"><path d="M147.91,149.63 C171.36,164.8 195.89,179.83 208.56,185 C238.22,197.11 266.6278,204.4277 296.4978,210.1677" fill="none" id="PA-to-UCProd" style="stroke:#181818;stroke-width:1;"/><polygon fill="#181818" points="302.39,211.3,294.3066,205.6735,297.4798,210.3564,292.7969,213.5297,302.39,211.3" style="stroke:#181818;stroke-width:1;"/></g><!--link PA to UCRRHH--><g class="link" data-entity-1="ent0002" data-entity-2="ent0009" data-link-type="dependency" data-source-line="17" id="lnk14"><path d="M156.4,149.53 C162.32,154.59 167.85,160.09 172.56,166 C200.47,200.96 175.07,230.34 208.56,260 C226.39,275.78 243.4741,284.2413 266.5641,290.5813" fill="none" id="PA-to-UCRRHH" style="stroke:#181818;stroke-width:1;"/><polygon fill="#181818" points="272.35,292.17,264.7303,285.9298,267.5285,290.8461,262.6121,293.6442,272.35,292.17" style="stroke:#181818;stroke-width:1;"/></g><!--link PA to UCFin--><g class="link" data-entity-1="ent0002" data-entity-2="ent0010" data-link-type="dependency" data-source-line="18" id="lnk15"><path d="M172.83,120.21 C205.92,123.91 238.347,127.5248 272.857,131.3748" fill="none" id="PA-to-UCFin" style="stroke:#181818;stroke-width:1;"/><polygon fill="#181818" points="278.82,132.04,270.319,127.0668,273.8508,131.4856,269.432,135.0175,278.82,132.04" style="stroke:#181818;stroke-width:1;"/></g><!--link PA to UCAdm--><g class="link" data-entity-1="ent0002" data-entity-2="ent0011" data-link-type="dependency" data-source-line="19" id="lnk16"><path d="M172.83,97.18 C213.7,90.34 256.7323,83.1305 296.4623,76.4805" fill="none" id="PA-to-UCAdm" style="stroke:#181818;stroke-width:1;"/><polygon fill="#181818" points="302.38,75.49,292.8432,73.0306,297.4486,76.3154,294.1638,80.9209,302.38,75.49" style="stroke:#181818;stroke-width:1;"/></g><!--link Capataz to UCProd--><g class="link" data-entity-1="ent0003" data-entity-2="ent0007" data-link-type="dependency" data-source-line="20" id="lnk17"><path d="M118.3,222 C157.61,222 224.9,222 283.47,222" fill="none" id="Capataz-to-UCProd" style="stroke:#181818;stroke-width:1;"/><polygon fill="#181818" points="289.47,222,280.47,218,284.47,222,280.47,226,289.47,222" style="stroke:#181818;stroke-width:1;"/></g><!--link Admin to UCMaq--><g class="link" data-entity-1="ent0004" data-entity-2="ent0008" data-link-type="dependency" data-source-line="21" id="lnk18"><path d="M139.25,448.27 C167.88,450.77 199.5727,453.5283 236.4627,456.7483" fill="none" id="Admin-to-UCMaq" style="stroke:#181818;stroke-width:1;"/><polygon fill="#181818" points="242.44,457.27,233.8219,452.5025,237.4589,456.8352,233.1263,460.4722,242.44,457.27" style="stroke:#181818;stroke-width:1;"/></g><!--link Admin to UCRRHH--><g class="link" data-entity-1="ent0004" data-entity-2="ent0009" data-link-type="dependency" data-source-line="22" id="lnk19"><path d="M139.12,414.94 C150.61,407.15 162.44,398.3 172.56,389 C191.43,371.68 187,357.83 208.56,344 C229.75,330.41 249.2246,322.697 273.6746,316.487" fill="none" id="Admin-to-UCRRHH" style="stroke:#181818;stroke-width:1;"/><polygon fill="#181818" points="279.49,315.01,269.7823,313.3486,274.6439,316.2409,271.7516,321.1024,279.49,315.01" style="stroke:#181818;stroke-width:1;"/></g><!--link Admin to UCSeg--><g class="link" data-entity-1="ent0004" data-entity-2="ent0012" data-link-type="dependency" data-source-line="23" id="lnk20"><path d="M139.25,433.41 C186.91,423.11 253.7755,408.6477 306.2355,397.3077" fill="none" id="Admin-to-UCSeg" style="stroke:#181818;stroke-width:1;"/><polygon fill="#181818" points="312.1,396.04,302.458,394.0319,307.2129,397.0964,304.1483,401.8513,312.1,396.04" style="stroke:#181818;stroke-width:1;"/></g><!--link Clima to UCProd--><g class="link" data-entity-1="ent0005" data-entity-2="ent0007" data-link-type="dependency" data-source-line="24" id="lnk21"><path d="M147.91,294.37 C171.36,279.2 195.89,264.17 208.56,259 C238.22,246.89 266.6278,239.5723 296.4978,233.8323" fill="none" id="Clima-to-UCProd" style="stroke:#181818;stroke-width:1;"/><polygon fill="#181818" points="302.39,232.7,292.7969,230.4703,297.4798,233.6436,294.3066,238.3265,302.39,232.7" style="stroke:#181818;stroke-width:1;"/></g><?plantuml-src RP5DQiGm38NtFeN8gbtC5GeXqAQBGiZG0uXOJGM9FUEVWPdIkrVsE9aKihEUllSav8c-0WGBZiVl09eT3O6jKJW4ww3go7bhS89QpspO1uU1BxO2zD3L2zNW2GFUibhUI-lXqzPb82jhktk7Pk8PuScU1awZdkynILGghODcd0YgewIGW6_aquRGap7sWXNyA83eQK0lLEcYWyvP7OUKcGC_coJienzuZYmFHhXAOG8PdfbCiCKgmBwpfo7AXJoqSKPZVU7xlctt3Qyonzm4ka9ZVLWTekyO_fyT2olYbZtI61rhr99PHyroM5vGwQbVfReQ3eUNvGPhbTTSgxJ2MgGPvIktrhnF4T9HjdLEsmff-Frp7mb_?></g></svg>