<?plantuml 1.2026.2beta3?><svg xmlns="http://www.w3.org/2000/svg" xmlns:xlink="http://www.w3.org/1999/xlink" contentStyleType="text/css" data-diagram-type="SEQUENCE" height="474px" preserveAspectRatio="none" style="width:826px;height:474px;background:#FFFFFF;" version="1.1" viewBox="0 0 826 474" width="826px" zoomAndPan="magnify"><defs/><g><rect fill="none" height="161.4688" style="stroke:#000000;stroke-width:1.5;" width="763.3052" x="10" y="98.2969"/><g class="participant-lifeline" data-entity-uid="part1" data-qualified-name="Usuario" id="part1-lifeline"><g><title>Usuario</title><rect fill="#000000" fill-opacity="0.00000" height="312" width="8" x="45.6021" y="81.2969"/><line style="stroke:#181818;stroke-width:0.5;stroke-dasharray:5,5;" x1="49" x2="49" y1="81.2969" y2="393.2969"/></g></g><g class="participant-lifeline" data-entity-uid="part2" data-qualified-name="UI" id="part2-lifeline"><g><title>UI Mantenimiento</title><rect fill="#000000" fill-opacity="0.00000" height="312" width="8" x="207.0352" y="81.2969"/><line style="stroke:#181818;stroke-width:0.5;stroke-dasharray:5,5;" x1="210.8896" x2="210.8896" y1="81.2969" y2="393.2969"/></g></g><g class="participant-lifeline" data-entity-uid="part3" data-qualified-name="M" id="part3-lifeline"><g><title>Mantenimiento</title><rect fill="#000000" fill-opacity="0.00000" height="312" width="8" x="390.8501" y="81.2969"/><line style="stroke:#181818;stroke-width:0.5;stroke-dasharray:5,5;" x1="394.1177" x2="394.1177" y1="81.2969" y2="393.2969"/></g></g><g class="participant-lifeline" data-entity-uid="part4" data-qualified-name="N" id="part4-lifeline"><g><title>NotificacionSistema</title><rect fill="#000000" fill-opacity="0.00000" height="312" width="8" x="537.0459" y="81.2969"/><line style="stroke:#181818;stroke-width:0.5;stroke-dasharray:5,5;" x1="540.5825" x2="540.5825" y1="81.2969" y2="393.2969"/></g></g><g class="participant-lifeline" data-entity-uid="part5" data-qualified-name="Rules" id="part5-lifeline"><g><title>Scheduler.Reglas</title><rect fill="#000000" fill-opacity="0.00000" height="312" width="8" x="691.4072" y="81.2969"/><line style="stroke:#181818;stroke-width:0.5;stroke-dasharray:5,5;" x1="694.5093" x2="694.5093" y1="81.2969" y2="393.2969"/></g></g><g class="participant-lifeline" data-entity-uid="part6" data-qualified-name="DB" id="part6-lifeline"><g><title>DB</title><rect fill="#000000" fill-opacity="0.00000" height="312" width="8" x="787.3052" y="81.2969"/><line style="stroke:#181818;stroke-width:0.5;stroke-dasharray:5,5;" x1="791.3052" x2="791.3052" y1="81.2969" y2="393.2969"/></g></g><g class="participant participant-head" data-entity-uid="part1" data-qualified-name="Usuario" id="part1-head"><text fill="#000000" font-family="sans-serif" font-size="14" lengthAdjust="spacing" textLength="53.2041" x="20" y="77.9951">Usuario</text><ellipse cx="49.6021" cy="13.5" fill="#E2E2F0" rx="8" ry="8" style="stroke:#181818;stroke-width:0.5;"/><path d="M49.6021,21.5 L49.6021,48.5 M36.6021,29.5 L62.6021,29.5 M49.6021,48.5 L36.6021,63.5 M49.6021,48.5 L62.6021,63.5" fill="none" style="stroke:#181818;stroke-width:0.5;"/></g><g class="participant participant-tail" data-entity-uid="part1" data-qualified-name="Usuario" id="part1-tail"><text fill="#000000" font-family="sans-serif" font-size="14" lengthAdjust="spacing" textLength="53.2041" x="20" y="405.292">Usuario</text><ellipse cx="49.6021" cy="417.0938" fill="#E2E2F0" rx="8" ry="8" style="stroke:#181818;stroke-width:0.5;"/><path d="M49.6021,425.0938 L49.6021,452.0938 M36.6021,433.0938 L62.6021,433.0938 M49.6021,452.0938 L36.6021,467.0938 M49.6021,452.0938 L62.6021,467.0938" fill="none" style="stroke:#181818;stroke-width:0.5;"/></g><g class="participant participant-head" data-entity-uid="part2" data-qualified-name="UI" id="part2-head"><rect fill="#E2E2F0" height="30.2969" rx="2.5" ry="2.5" style="stroke:#181818;stroke-width:0.5;" width="138.291" x="141.8896" y="50"/><text fill="#000000" font-family="sans-serif" font-size="14" lengthAdjust="spacing" textLength="124.291" x="148.8896" y="69.9951">UI Mantenimiento</text></g><g class="participant participant-tail" data-entity-uid="part2" data-qualified-name="UI" id="part2-tail"><rect fill="#E2E2F0" height="30.2969" rx="2.5" ry="2.5" style="stroke:#181818;stroke-width:0.5;" width="138.291" x="141.8896" y="392.2969"/><text fill="#000000" font-family="sans-serif" font-size="14" lengthAdjust="spacing" textLength="124.291" x="148.8896" y="412.292">UI Mantenimiento</text></g><g class="participant participant-head" data-entity-uid="part3" data-qualified-name="M" id="part3-head"><rect fill="#E2E2F0" height="30.2969" rx="2.5" ry="2.5" style="stroke:#181818;stroke-width:0.5;" width="119.4648" x="335.1177" y="50"/><text fill="#000000" font-family="sans-serif" font-size="14" lengthAdjust="spacing" textLength="105.4648" x="342.1177" y="69.9951">Mantenimiento</text></g><g class="participant participant-tail" data-entity-uid="part3" data-qualified-name="M" id="part3-tail"><rect fill="#E2E2F0" height="30.2969" rx="2.5" ry="2.5" style="stroke:#181818;stroke-width:0.5;" width="119.4648" x="335.1177" y="392.2969"/><text fill="#000000" font-family="sans-serif" font-size="14" lengthAdjust="spacing" textLength="105.4648" x="342.1177" y="412.292">Mantenimiento</text></g><g class="participant participant-head" data-entity-uid="part4" data-qualified-name="N" id="part4-head"><rect fill="#E2E2F0" height="30.2969" rx="2.5" ry="2.5" style="stroke:#181818;stroke-width:0.5;" width="152.9268" x="464.5825" y="50"/><text fill="#000000" font-family="sans-serif" font-size="14" lengthAdjust="spacing" textLength="138.9268" x="471.5825" y="69.9951">NotificacionSistema</text></g><g class="participant participant-tail" data-entity-uid="part4" data-qualified-name="N" id="part4-tail"><rect fill="#E2E2F0" height="30.2969" rx="2.5" ry="2.5" style="stroke:#181818;stroke-width:0.5;" width="152.9268" x="464.5825" y="392.2969"/><text fill="#000000" font-family="sans-serif" font-size="14" lengthAdjust="spacing" textLength="138.9268" x="471.5825" y="412.292">NotificacionSistema</text></g><g class="participant participant-head" data-entity-uid="part5" data-qualified-name="Rules" id="part5-head"><rect fill="#E2E2F0" height="30.2969" rx="2.5" ry="2.5" style="stroke:#181818;stroke-width:0.5;" width="135.7959" x="627.5093" y="50"/><text fill="#000000" font-family="sans-serif" font-size="14" lengthAdjust="spacing" textLength="121.7959" x="634.5093" y="69.9951">Scheduler/Reglas</text></g><g class="participant participant-tail" data-entity-uid="part5" data-qualified-name="Rules" id="part5-tail"><rect fill="#E2E2F0" height="30.2969" rx="2.5" ry="2.5" style="stroke:#181818;stroke-width:0.5;" width="135.7959" x="627.5093" y="392.2969"/><text fill="#000000" font-family="sans-serif" font-size="14" lengthAdjust="spacing" textLength="121.7959" x="634.5093" y="412.292">Scheduler/Reglas</text></g><g class="participant participant-head" data-entity-uid="part6" data-qualified-name="DB" id="part6-head"><text fill="#000000" font-family="sans-serif" font-size="14" lengthAdjust="spacing" textLength="20.3848" x="778.1128" y="77.9951">DB</text><path d="M773.3052,29 C773.3052,19 791.3052,19 791.3052,19 C791.3052,19 809.3052,19 809.3052,29 L809.3052,55 C809.3052,65 791.3052,65 791.3052,65 C791.3052,65 773.3052,65 773.3052,55 L773.3052,29" fill="#E2E2F0" style="stroke:#181818;stroke-width:0.5;"/><path d="M773.3052,29 C773.3052,39 791.3052,39 791.3052,39 C791.3052,39 809.3052,39 809.3052,29" fill="none" style="stroke:#181818;stroke-width:0.5;"/></g><g class="participant participant-tail" data-entity-uid="part6" data-qualified-name="DB" id="part6-tail"><text fill="#000000" font-family="sans-serif" font-size="14" lengthAdjust="spacing" textLength="20.3848" x="778.1128" y="405.292">DB</text><path d="M773.3052,418.5938 C773.3052,408.5938 791.3052,408.5938 791.3052,408.5938 C791.3052,408.5938 809.3052,408.5938 809.3052,418.5938 L809.3052,444.5938 C809.3052,454.5938 791.3052,454.5938 791.3052,454.5938 C791.3052,454.5938 773.3052,454.5938 773.3052,444.5938 L773.3052,418.5938" fill="#E2E2F0" style="stroke:#181818;stroke-width:0.5;"/><path d="M773.3052,418.5938 C773.3052,428.5938 791.3052,428.5938 791.3052,428.5938 C791.3052,428.5938 809.3052,428.5938 809.3052,418.5938" fill="none" style="stroke:#181818;stroke-width:0.5;"/></g><path d="M10,98.2969 L74.4429,98.2969 L74.4429,105.4297 L64.4429,115.4297 L10,115.4297 L10,98.2969" fill="#EEEEEE" style="stroke:#000000;stroke-width:1.5;"/><rect fill="none" height="161.4688" style="stroke:#000000;stroke-width:1.5;" width="763.3052" x="10" y="98.2969"/><text fill="#000000" font-family="sans-serif" font-size="13" font-weight="bold" lengthAdjust="spacing" textLength="19.4429" x="25" y="111.3638">alt</text><text fill="#000000" font-family="sans-serif" font-size="11" font-weight="bold" lengthAdjust="spacing" textLength="145.7661" x="89.4429" y="110.5073">[programacion manual]</text><g class="message" data-entity-1="part1" data-entity-2="part2" id="msg1"><polygon fill="#181818" points="199.0352,132.5625,209.0352,136.5625,199.0352,140.5625,203.0352,136.5625" style="stroke:#181818;stroke-width:1;"/><line style="stroke:#181818;stroke-width:1;" x1="49.6021" x2="205.0352" y1="136.5625" y2="136.5625"/><text fill="#000000" font-family="sans-serif" font-size="13" lengthAdjust="spacing" textLength="137.4331" x="56.6021" y="131.4966">completar formulario</text></g><g class="message" data-entity-1="part2" data-entity-2="part2" id="msg2"><line style="stroke:#181818;stroke-width:1;" x1="211.0352" x2="253.0352" y1="165.6953" y2="165.6953"/><line style="stroke:#181818;stroke-width:1;" x1="253.0352" x2="253.0352" y1="165.6953" y2="178.6953"/><line style="stroke:#181818;stroke-width:1;" x1="212.0352" x2="253.0352" y1="178.6953" y2="178.6953"/><polygon fill="#181818" points="222.0352,174.6953,212.0352,178.6953,222.0352,182.6953,218.0352,178.6953" style="stroke:#181818;stroke-width:1;"/><text fill="#000000" font-family="sans-serif" font-size="13" lengthAdjust="spacing" textLength="84.6206" x="218.0352" y="160.6294">validar datos</text></g><g class="message" data-entity-1="part2" data-entity-2="part3" id="msg3"><polygon fill="#181818" points="382.8501,203.8281,392.8501,207.8281,382.8501,211.8281,386.8501,207.8281" style="stroke:#181818;stroke-width:1;"/><line style="stroke:#181818;stroke-width:1;" x1="211.0352" x2="388.8501" y1="207.8281" y2="207.8281"/><text fill="#000000" font-family="sans-serif" font-size="13" lengthAdjust="spacing" textLength="159.8149" x="218.0352" y="202.7622">crear orden programada</text></g><line style="stroke:#000000;stroke-width:1;stroke-dasharray:2,2;" x1="10" x2="773.3052" y1="216.8281" y2="216.8281"/><text fill="#000000" font-family="sans-serif" font-size="11" font-weight="bold" lengthAdjust="spacing" textLength="169.9521" x="15" y="227.0386">[programacion automatica]</text><g class="message" data-entity-1="part5" data-entity-2="part3" id="msg4"><polygon fill="#181818" points="405.8501,247.7656,395.8501,251.7656,405.8501,255.7656,401.8501,251.7656" style="stroke:#181818;stroke-width:1;"/><line style="stroke:#181818;stroke-width:1;" x1="399.8501" x2="694.4072" y1="251.7656" y2="251.7656"/><text fill="#000000" font-family="sans-serif" font-size="13" lengthAdjust="spacing" textLength="159.8149" x="411.8501" y="246.6997">crear orden programada</text></g><g class="message" data-entity-1="part3" data-entity-2="part6" id="msg5"><polygon fill="#181818" points="779.3052,283.8984,789.3052,287.8984,779.3052,291.8984,783.3052,287.8984" style="stroke:#181818;stroke-width:1;"/><line style="stroke:#181818;stroke-width:1;" x1="394.8501" x2="785.3052" y1="287.8984" y2="287.8984"/><text fill="#000000" font-family="sans-serif" font-size="13" lengthAdjust="spacing" textLength="289.7324" x="401.8501" y="282.8325">insert mantenimiento (estado=programado)</text></g><g class="message" data-entity-1="part3" data-entity-2="part4" id="msg6"><polygon fill="#181818" points="529.0459,313.0313,539.0459,317.0313,529.0459,321.0313,533.0459,317.0313" style="stroke:#181818;stroke-width:1;"/><line style="stroke:#181818;stroke-width:1;" x1="394.8501" x2="535.0459" y1="317.0313" y2="317.0313"/><text fill="#000000" font-family="sans-serif" font-size="13" lengthAdjust="spacing" textLength="113.0898" x="401.8501" y="311.9653">crear notificacion</text></g><g class="message" data-entity-1="part4" data-entity-2="part6" id="msg7"><polygon fill="#181818" points="779.3052,342.1641,789.3052,346.1641,779.3052,350.1641,783.3052,346.1641" style="stroke:#181818;stroke-width:1;"/><line style="stroke:#181818;stroke-width:1;" x1="541.0459" x2="785.3052" y1="346.1641" y2="346.1641"/><text fill="#000000" font-family="sans-serif" font-size="13" lengthAdjust="spacing" textLength="116.3525" x="548.0459" y="341.0981">insert notificacion</text></g><g class="message" data-entity-1="part2" data-entity-2="part1" id="msg8"><polygon fill="#181818" points="60.6021,371.2969,50.6021,375.2969,60.6021,379.2969,56.6021,375.2969" style="stroke:#181818;stroke-width:1;"/><line style="stroke:#181818;stroke-width:1;stroke-dasharray:2,2;" x1="54.6021" x2="210.0352" y1="375.2969" y2="375.2969"/><text fill="#000000" font-family="sans-serif" font-size="13" lengthAdjust="spacing" textLength="84.4556" x="66.6021" y="370.231">confirmacion</text></g><?plantuml-src XP0nRiCm34LtdKB8r0v5zm3jO7ZnO0y9SW1MebC2acXGTCvVMORTkXsw4UJxvFy4fopsbcSGOWjvAyq4ekHeWgJsTEjiNmfC50cJygcItH7wI_H7O62baHmuudIbh1YXOiCHkxfFz7D0URtWFK2kpAKqil6Wy04PxQbjQhjjZ86WTXA-2yIwsaP8CmHZzrWlxyNisJgEKq05iIDBd4FDMQXk0nuGo9TnESDvd_H5ALZQB1xJVig3mL2i74x3h1oXP84Yhvx_sP2yCVt2jCtPKieeklZ_VgHzmgpW-MrNyVEg6BQjwSTVpV1hsM6u15gohdzPFf96ajNx5m00?></g></svg>