<?plantuml 1.2026.2beta3?><svg xmlns="http://www.w3.org/2000/svg" xmlns:xlink="http://www.w3.org/1999/xlink" contentStyleType="text/css" data-diagram-type="ACTIVITY" height="457px" preserveAspectRatio="none" style="width:552px;height:457px;background:#FFFFFF;" version="1.1" viewBox="0 0 552 457" width="552px" zoomAndPan="magnify"><defs/><g><ellipse cx="276.1968" cy="20" fill="#222222" rx="10" ry="10" style="stroke:#222222;stroke-width:1;"/><polygon fill="#F1F1F1" points="221.8708,50,330.5227,50,342.5227,62,330.5227,74,221.8708,74,209.8708,62,221.8708,50" style="stroke:#181818;stroke-width:0.5;"/><text fill="#000000" font-family="sans-serif" font-size="11" lengthAdjust="spacing" textLength="108.6519" x="221.8708" y="65.8081">Origen automatico?</text><text fill="#000000" font-family="sans-serif" font-size="11" lengthAdjust="spacing" textLength="8.7871" x="201.0837" y="59.4058">si</text><text fill="#000000" font-family="sans-serif" font-size="11" lengthAdjust="spacing" textLength="13.7017" x="342.5227" y="59.4058">no</text><rect fill="#F1F1F1" height="33.9688" rx="12.5" ry="12.5" style="stroke:#181818;stroke-width:0.5;" width="255.2656" x="11" y="84"/><text fill="#000000" font-family="sans-serif" font-size="12" lengthAdjust="spacing" textLength="235.2656" x="21" y="105.1387">Generar orden programada por umbral</text><rect fill="#F1F1F1" height="33.9688" rx="12.5" ry="12.5" style="stroke:#181818;stroke-width:0.5;" width="254.9902" x="286.2656" y="84"/><text fill="#000000" font-family="sans-serif" font-size="12" lengthAdjust="spacing" textLength="234.9902" x="296.2656" y="105.1387">Completar formulario de programacion</text><polygon fill="#F1F1F1" points="276.1968,123.9688,288.1968,135.9688,276.1968,147.9688,264.1968,135.9688,276.1968,123.9688" style="stroke:#181818;stroke-width:0.5;"/><rect fill="#F1F1F1" height="33.9688" rx="12.5" ry="12.5" style="stroke:#181818;stroke-width:0.5;" width="99.2188" x="226.5874" y="167.9688"/><text fill="#000000" font-family="sans-serif" font-size="12" lengthAdjust="spacing" textLength="79.2188" x="236.5874" y="189.1074">Validar datos</text><polygon fill="#F1F1F1" points="236.1338,221.9375,316.2598,221.9375,328.2598,233.9375,316.2598,245.9375,236.1338,245.9375,224.1338,233.9375,236.1338,221.9375" style="stroke:#181818;stroke-width:0.5;"/><text fill="#000000" font-family="sans-serif" font-size="11" lengthAdjust="spacing" textLength="80.126" x="236.1338" y="237.7456">Datos validos?</text><text fill="#000000" font-family="sans-serif" font-size="11" lengthAdjust="spacing" textLength="8.7871" x="215.3467" y="231.3433">si</text><text fill="#000000" font-family="sans-serif" font-size="11" lengthAdjust="spacing" textLength="13.7017" x="328.2598" y="231.3433">no</text><rect fill="#F1F1F1" height="33.9688" rx="12.5" ry="12.5" style="stroke:#181818;stroke-width:0.5;" width="185.416" x="93.8618" y="255.9375"/><text fill="#000000" font-family="sans-serif" font-size="12" lengthAdjust="spacing" textLength="165.416" x="103.8618" y="277.0762">Guardar orden programada</text><rect fill="#F1F1F1" height="33.9688" rx="12.5" ry="12.5" style="stroke:#181818;stroke-width:0.5;" width="205.6602" x="83.7397" y="309.9063"/><text fill="#000000" font-family="sans-serif" font-size="12" lengthAdjust="spacing" textLength="185.6602" x="93.7397" y="331.0449">Registrar auditoria/notificacion</text><rect fill="#F1F1F1" height="33.9688" rx="12.5" ry="12.5" style="stroke:#181818;stroke-width:0.5;" width="167.3281" x="102.9058" y="363.875"/><text fill="#000000" font-family="sans-serif" font-size="12" lengthAdjust="spacing" textLength="147.3281" x="112.9058" y="385.0137">Confirmar programacion</text><ellipse cx="186.5698" cy="428.8438" fill="none" rx="11" ry="11" style="stroke:#222222;stroke-width:1;"/><ellipse cx="186.5698" cy="428.8438" fill="#222222" rx="6" ry="6" style="stroke:#222222;stroke-width:1;"/><rect fill="#F1F1F1" height="33.9688" rx="12.5" ry="12.5" style="stroke:#181818;stroke-width:0.5;" width="112.8477" x="309.3999" y="255.9375"/><text fill="#000000" font-family="sans-serif" font-size="12" lengthAdjust="spacing" textLength="92.8477" x="319.3999" y="277.0762">Mostrar errores</text><line style="stroke:#181818;stroke-width:1;" x1="209.8708" x2="138.6328" y1="62" y2="62"/><line style="stroke:#181818;stroke-width:1;" x1="138.6328" x2="138.6328" y1="62" y2="84"/><polygon fill="#181818" points="134.6328,74,138.6328,84,142.6328,74,138.6328,78" style="stroke:#181818;stroke-width:1;"/><line style="stroke:#181818;stroke-width:1;" x1="342.5227" x2="413.7607" y1="62" y2="62"/><line style="stroke:#181818;stroke-width:1;" x1="413.7607" x2="413.7607" y1="62" y2="84"/><polygon fill="#181818" points="409.7607,74,413.7607,84,417.7607,74,413.7607,78" style="stroke:#181818;stroke-width:1;"/><line style="stroke:#181818;stroke-width:1;" x1="138.6328" x2="138.6328" y1="117.9688" y2="135.9688"/><line style="stroke:#181818;stroke-width:1;" x1="138.6328" x2="264.1968" y1="135.9688" y2="135.9688"/><polygon fill="#181818" points="254.1968,131.9688,264.1968,135.9688,254.1968,139.9688,258.1968,135.9688" style="stroke:#181818;stroke-width:1;"/><line style="stroke:#181818;stroke-width:1;" x1="413.7607" x2="413.7607" y1="117.9688" y2="135.9688"/><line style="stroke:#181818;stroke-width:1;" x1="413.7607" x2="288.1968" y1="135.9688" y2="135.9688"/><polygon fill="#181818" points="298.1968,131.9688,288.1968,135.9688,298.1968,139.9688,294.1968,135.9688" style="stroke:#181818;stroke-width:1;"/><line style="stroke:#181818;stroke-width:1;" x1="276.1968" x2="276.1968" y1="30" y2="50"/><polygon fill="#181818" points="272.1968,40,276.1968,50,280.1968,40,276.1968,44" style="stroke:#181818;stroke-width:1;"/><line style="stroke:#181818;stroke-width:1;" x1="276.1968" x2="276.1968" y1="147.9688" y2="167.9688"/><polygon fill="#181818" points="272.1968,157.9688,276.1968,167.9688,280.1968,157.9688,276.1968,161.9688" style="stroke:#181818;stroke-width:1;"/><line style="stroke:#181818;stroke-width:1;" x1="186.5698" x2="186.5698" y1="289.9063" y2="309.9063"/><polygon fill="#181818" points="182.5698,299.9063,186.5698,309.9063,190.5698,299.9063,186.5698,303.9063" style="stroke:#181818;stroke-width:1;"/><line style="stroke:#181818;stroke-width:1;" x1="186.5698" x2="186.5698" y1="343.875" y2="363.875"/><polygon fill="#181818" points="182.5698,353.875,186.5698,363.875,190.5698,353.875,186.5698,357.875" style="stroke:#181818;stroke-width:1;"/><line style="stroke:#181818;stroke-width:1;" x1="186.5698" x2="186.5698" y1="397.8438" y2="417.8438"/><polygon fill="#181818" points="182.5698,407.8438,186.5698,417.8438,190.5698,407.8438,186.5698,411.8438" style="stroke:#181818;stroke-width:1;"/><line style="stroke:#181818;stroke-width:1;" x1="224.1338" x2="186.5698" y1="233.9375" y2="233.9375"/><line style="stroke:#181818;stroke-width:1;" x1="186.5698" x2="186.5698" y1="233.9375" y2="255.9375"/><polygon fill="#181818" points="182.5698,245.9375,186.5698,255.9375,190.5698,245.9375,186.5698,249.9375" style="stroke:#181818;stroke-width:1;"/><line style="stroke:#181818;stroke-width:1;" x1="328.2598" x2="365.8237" y1="233.9375" y2="233.9375"/><line style="stroke:#181818;stroke-width:1;" x1="365.8237" x2="365.8237" y1="233.9375" y2="255.9375"/><polygon fill="#181818" points="361.8237,245.9375,365.8237,255.9375,369.8237,245.9375,365.8237,249.9375" style="stroke:#181818;stroke-width:1;"/><line style="stroke:#181818;stroke-width:1;" x1="365.8237" x2="365.8237" y1="289.9063" y2="445.8438"/><line style="stroke:#181818;stroke-width:1;" x1="365.8237" x2="276.1968" y1="445.8438" y2="445.8438"/><line style="stroke:#181818;stroke-width:1;" x1="276.1968" x2="276.1968" y1="201.9375" y2="221.9375"/><polygon fill="#181818" points="272.1968,211.9375,276.1968,221.9375,280.1968,211.9375,276.1968,215.9375" style="stroke:#181818;stroke-width:1;"/><?plantuml-src RO-nJiOm38JtFeN7_WDYRoKO034X90OMn60QfrXgukhYyFma1O5-mMRPTxxlYZDyq4ZZ8tILJ5pT4hikTdqYVs-RiUXf89hk9GiOP0XjkyDMSEB0j1kefZVmDW-o5Q4ns-6uiRHlqX8e6bBT66eKvCUxgELcoK7ZC3tpfg590xkL-K2wxIDzz8ELFpYL4Vx1cVlnILOjtccv1dM3ycKsrwZBT-g1bwCYDT4v455nsy-hFDZNEm4CKhheuefU5WDQ55vfkcivl_X7gKy0?></g></svg>