<?plantuml 1.2026.2beta3?><svg xmlns="http://www.w3.org/2000/svg" xmlns:xlink="http://www.w3.org/1999/xlink" contentStyleType="text/css" data-diagram-type="DESCRIPTION" height="483px" preserveAspectRatio="none" style="width:711px;height:483px;background:#FFFFFF;" version="1.1" viewBox="0 0 711 483" width="711px" zoomAndPan="magnify"><defs/><g><!--cluster SR--><g class="cluster" data-qualified-name="SR" data-source-line="7" id="ent0006"><rect fill="none" height="295" rx="2.5" ry="2.5" style="stroke:#181818;stroke-width:1;" width="497.42" x="208.56" y="182.65"/><text fill="#000000" font-family="sans-serif" font-size="14" font-weight="bold" lengthAdjust="spacing" textLength="200.4844" x="357.0278" y="197.6451">Sistema Gesti?n Rennova</text></g><!--entity Producci?n--><g class="entity" data-qualified-name="SR.Producci.n" data-source-line="8" id="ent0007"><rect fill="#F1F1F1" height="46.2969" rx="2.5" ry="2.5" style="stroke:#181818;stroke-width:0.5;" width="116.1113" x="269.71" y="407.5"/><rect fill="#F1F1F1" height="10" style="stroke:#181818;stroke-width:0.5;" width="15" x="365.8213" y="412.5"/><rect fill="#F1F1F1" height="2" style="stroke:#181818;stroke-width:0.5;" width="4" x="363.8213" y="414.5"/><rect fill="#F1F1F1" height="2" style="stroke:#181818;stroke-width:0.5;" width="4" x="363.8213" y="418.5"/><text fill="#000000" font-family="sans-serif" font-size="14" lengthAdjust="spacing" textLength="76.1113" x="284.71" y="440.4951">Producci?n</text></g><!--entity Maquinaria y Equipos--><g class="entity" data-qualified-name="SR.Maquinaria y Equipos" data-source-line="9" id="ent0008"><rect fill="#F1F1F1" height="46.2969" rx="2.5" ry="2.5" style="stroke:#181818;stroke-width:0.5;" width="190.4111" x="232.56" y="326.5"/><rect fill="#F1F1F1" height="10" style="stroke:#181818;stroke-width:0.5;" width="15" x="402.9711" y="331.5"/><rect fill="#F1F1F1" height="2" style="stroke:#181818;stroke-width:0.5;" width="4" x="400.9711" y="333.5"/><rect fill="#F1F1F1" height="2" style="stroke:#181818;stroke-width:0.5;" width="4" x="400.9711" y="337.5"/><text fill="#000000" font-family="sans-serif" font-size="14" lengthAdjust="spacing" textLength="150.4111" x="247.56" y="359.4951">Maquinaria y Equipos</text></g><!--entity Recursos Humanos--><g class="entity" data-qualified-name="SR.Recursos Humanos" data-source-line="10" id="ent0009"><rect fill="#F1F1F1" height="46.2969" rx="2.5" ry="2.5" style="stroke:#181818;stroke-width:0.5;" width="174.6201" x="240.46" y="245.5"/><rect fill="#F1F1F1" height="10" style="stroke:#181818;stroke-width:0.5;" width="15" x="395.0801" y="250.5"/><rect fill="#F1F1F1" height="2" style="stroke:#181818;stroke-width:0.5;" width="4" x="393.0801" y="252.5"/><rect fill="#F1F1F1" height="2" style="stroke:#181818;stroke-width:0.5;" width="4" x="393.0801" y="256.5"/><text fill="#000000" font-family="sans-serif" font-size="14" lengthAdjust="spacing" textLength="134.6201" x="255.46" y="278.4951">Recursos Humanos</text></g><!--entity Finanzas y Costos--><g class="entity" data-qualified-name="SR.Finanzas y Costos" data-source-line="11" id="ent0010"><rect fill="#F1F1F1" height="46.2969" rx="2.5" ry="2.5" style="stroke:#181818;stroke-width:0.5;" width="165.6582" x="499.65" y="407.5"/><rect fill="#F1F1F1" height="10" style="stroke:#181818;stroke-width:0.5;" width="15" x="645.3082" y="412.5"/><rect fill="#F1F1F1" height="2" style="stroke:#181818;stroke-width:0.5;" width="4" x="643.3082" y="414.5"/><rect fill="#F1F1F1" height="2" style="stroke:#181818;stroke-width:0.5;" width="4" x="643.3082" y="418.5"/><text fill="#000000" font-family="sans-serif" font-size="14" lengthAdjust="spacing" textLength="125.6582" x="514.65" y="440.4951">Finanzas y Costos</text></g><!--entity Gesti?n Administrativa--><g class="entity" data-qualified-name="SR.Gesti.n Administrativa" data-source-line="12" id="ent0011"><rect fill="#F1F1F1" height="46.2969" rx="2.5" ry="2.5" style="stroke:#181818;stroke-width:0.5;" width="199.0039" x="482.98" y="326.5"/><rect fill="#F1F1F1" height="10" style="stroke:#181818;stroke-width:0.5;" width="15" x="661.9839" y="331.5"/><rect fill="#F1F1F1" height="2" style="stroke:#181818;stroke-width:0.5;" width="4" x="659.9839" y="333.5"/><rect fill="#F1F1F1" height="2" style="stroke:#181818;stroke-width:0.5;" width="4" x="659.9839" y="337.5"/><text fill="#000000" font-family="sans-serif" font-size="14" lengthAdjust="spacing" textLength="159.0039" x="497.98" y="359.4951">Gesti?n Administrativa</text></g><!--entity Seguridad y Auditor?a--><g class="entity" data-qualified-name="SR.Seguridad y Auditor.a" data-source-line="13" id="ent0012"><rect fill="#F1F1F1" height="46.2969" rx="2.5" ry="2.5" style="stroke:#181818;stroke-width:0.5;" width="195.4902" x="484.73" y="245.5"/><rect fill="#F1F1F1" height="10" style="stroke:#181818;stroke-width:0.5;" width="15" x="660.2202" y="250.5"/><rect fill="#F1F1F1" height="2" style="stroke:#181818;stroke-width:0.5;" width="4" x="658.2202" y="252.5"/><rect fill="#F1F1F1" height="2" style="stroke:#181818;stroke-width:0.5;" width="4" x="658.2202" y="256.5"/><text fill="#000000" font-family="sans-serif" font-size="14" lengthAdjust="spacing" textLength="155.4902" x="499.73" y="278.4951">Seguridad y Auditor?a</text></g><!--entity PA--><g class="entity" data-qualified-name="PA" data-source-line="2" id="ent0002"><ellipse cx="89.2822" cy="14" fill="#F1F1F1" rx="8" ry="8" style="stroke:#181818;stroke-width:0.5;"/><path d="M89.2822,22 L89.2822,49 M76.2822,30 L102.2822,30 M89.2822,49 L76.2822,64 M89.2822,49 L102.2822,64" fill="none" style="stroke:#181818;stroke-width:0.5;"/><text fill="#000000" font-family="sans-serif" font-size="14" lengthAdjust="spacing" textLength="166.5645" x="6" y="78.4951">Personal Administrativo</text></g><!--entity Capataz--><g class="entity" data-qualified-name="Capataz" data-source-line="3" id="ent0003"><ellipse cx="89.2787" cy="125" fill="#F1F1F1" rx="8" ry="8" style="stroke:#181818;stroke-width:0.5;"/><path d="M89.2787,133 L89.2787,160 M76.2787,141 L102.2787,141 M89.2787,160 L76.2787,175 M89.2787,160 L102.2787,175" fill="none" style="stroke:#181818;stroke-width:0.5;"/><text fill="#000000" font-family="sans-serif" font-size="14" lengthAdjust="spacing" textLength="57.2373" x="60.66" y="189.4951">Capataz</text></g><!--entity Admin--><g class="entity" data-qualified-name="Admin" data-source-line="4" id="ent0004"><ellipse cx="89.28" cy="236" fill="#F1F1F1" rx="8" ry="8" style="stroke:#181818;stroke-width:0.5;"/><path d="M89.28,244 L89.28,271 M76.28,252 L102.28,252 M89.28,271 L76.28,286 M89.28,271 L102.28,286" fill="none" style="stroke:#181818;stroke-width:0.5;"/><text fill="#000000" font-family="sans-serif" font-size="14" lengthAdjust="spacing" textLength="99.0801" x="39.74" y="300.4951">Administrador</text></g><!--entity Clima--><g class="entity" data-qualified-name="Clima" data-source-line="5" id="ent0005"><ellipse cx="89.2852" cy="347" fill="#F1F1F1" rx="8" ry="8" style="stroke:#181818;stroke-width:0.5;"/><path d="M89.2852,355 L89.2852,382 M76.2852,363 L102.2852,363 M89.2852,382 L76.2852,397 M89.2852,382 L102.2852,397" fill="none" style="stroke:#181818;stroke-width:0.5;"/><text fill="#000000" font-family="sans-serif" font-size="14" lengthAdjust="spacing" textLength="140.6904" x="18.94" y="411.4951">API Clima (opcional)</text></g><!--link PA to SR--><g class="link" data-entity-1="ent0002" data-entity-2="ent0006" data-link-type="dependency" data-source-line="16" id="lnk13"><path d="M148.44,82.16 C156.57,87.65 164.8,93.26 172.56,98.65 C206.71,122.345 244.6,149.605 274.2763,171.18 C277.9858,173.8769 281.567,176.4849 284.9965,178.9861 C285.8539,179.6114 286.7017,180.23 287.5398,180.8416 C287.9588,181.1474 288.3754,181.4515 288.7894,181.7538 C288.9965,181.905 284.3573,178.5173 284.5631,178.6675" fill="none" id="PA-to-SR" style="stroke:#181818;stroke-width:1;"/><polygon fill="#181818" points="289.4086,182.2059,284.4992,173.6679,285.3707,179.2573,279.7813,180.1287,289.4086,182.2059" style="stroke:#181818;stroke-width:1;"/></g><!--link Capataz to SR--><g class="link" data-entity-1="ent0003" data-entity-2="ent0006" data-link-type="dependency" data-source-line="17" id="lnk14"><path d="M118.34,161.18 C133.755,164.765 154.2056,169.5212 176.2798,174.6552 C187.317,177.2221 192.9159,178.5243 204.3383,181.1809" fill="none" id="Capataz-to-SR" style="stroke:#181818;stroke-width:1;"/><polygon fill="#181818" points="210.1824,182.5401,202.3224,176.6053,205.3123,181.4074,200.5102,184.3973,210.1824,182.5401" style="stroke:#181818;stroke-width:1;"/></g><!--link Admin to SR--><g class="link" data-entity-1="ent0004" data-entity-2="ent0006" data-link-type="dependency" data-source-line="18" id="lnk15"><path d="M139.13,246.33 C155.86,240.28 174.84,234.05 192.56,229.65 C196.1613,228.7569 199.8274,227.8979 203.5368,227.0723 C204.4641,226.8659 205.3942,226.6616 206.3266,226.4594 C206.7928,226.3583 207.2596,226.2577 207.727,226.1576 C207.9606,226.1075 202.3259,227.3065 202.5598,227.2567" fill="none" id="Admin-to-SR" style="stroke:#181818;stroke-width:1;"/><polygon fill="#181818" points="208.4284,226.0078,198.7929,223.9688,203.5379,227.0486,200.4581,231.7935,208.4284,226.0078" style="stroke:#181818;stroke-width:1;"/></g><!--link Clima to SR--><g class="link" data-entity-1="ent0005" data-entity-2="ent0006" data-link-type="dependency" data-source-line="19" id="lnk16"><path d="M158.13,338.11 C163.56,333.1 168.5,327.62 172.56,321.65 C196.12,287.06 162.01,258.24 192.56,229.65 C195.2694,227.1144 198.1534,224.815 201.1802,222.7325 C202.6936,221.6913 204.2428,220.7042 205.8237,219.7689 C206.6141,219.3013 202.1521,221.7324 202.9579,221.2903" fill="none" id="Clima-to-SR" style="stroke:#181818;stroke-width:1;"/><polygon fill="#181818" points="208.2183,218.4045,198.4038,219.2262,203.8346,220.8093,202.2516,226.2401,208.2183,218.4045" style="stroke:#181818;stroke-width:1;"/></g><?plantuml-src LL2xRiCm3Dpr5OIdTiWlD32CleO0XZq67GX9TGdOeYjH0PAW_rvQiLDq8--EHnv7_oaW3966Bm57qLiX3WQjS8IgzJ5nm15gDr6W9165Jbm19cZhJTNWZ8ANWgxrHltDEOv5K90xtRv3CzA4yC2pfMNLuyrc0OrPpi4mZ1wgNbsy2bzz4je7w7m8VCAYxZku6e1Z6zbbQvN-MDe3VcSA60dX3CzQpvmAqNcRDLY2jpnXMC4NbOQBkfsXuIGhkgtxzm0iLE-77CcXquawEz94UsL-Z6bhsEsUz2oplcDhYykTAy5lpIy0?></g></svg>