<?plantuml 1.2026.2beta3?><svg xmlns="http://www.w3.org/2000/svg" xmlns:xlink="http://www.w3.org/1999/xlink" contentStyleType="text/css" data-diagram-type="SEQUENCE" height="577px" preserveAspectRatio="none" style="width:742px;height:577px;background:#FFFFFF;" version="1.1" viewBox="0 0 742 577" width="742px" zoomAndPan="magnify"><defs/><g><rect fill="none" height="75.3984" style="stroke:#000000;stroke-width:1.5;" width="612.79" x="122.9629" y="227.8281"/><rect fill="none" height="75.3984" style="stroke:#000000;stroke-width:1.5;" width="612.79" x="122.9629" y="317.2266"/><g class="participant-lifeline" data-entity-uid="part1" data-qualified-name="Capataz" id="part1-lifeline"><g><title>Capataz</title><rect fill="#000000" fill-opacity="0.00000" height="415.7266" width="8" x="32.6187" y="81.2969"/><line style="stroke:#181818;stroke-width:0.5;stroke-dasharray:5,5;" x1="36" x2="36" y1="81.2969" y2="497.0234"/></g></g><g class="participant-lifeline" data-entity-uid="part2" data-qualified-name="UI" id="part2-lifeline"><g><title>UI Parte Diario</title><rect fill="#000000" fill-opacity="0.00000" height="415.7266" width="8" x="186.771" y="81.2969"/><line style="stroke:#181818;stroke-width:0.5;stroke-dasharray:5,5;" x1="189.9629" x2="189.9629" y1="81.2969" y2="497.0234"/></g></g><g class="participant-lifeline" data-entity-uid="part3" data-qualified-name="PD" id="part3-lifeline"><g><title>ParteDiario</title><rect fill="#000000" fill-opacity="0.00000" height="415.7266" width="8" x="324.2354" y="81.2969"/><line style="stroke:#181818;stroke-width:0.5;stroke-dasharray:5,5;" x1="328.0654" x2="328.0654" y1="81.2969" y2="497.0234"/></g></g><g class="participant-lifeline" data-entity-uid="part4" data-qualified-name="C" id="part4-lifeline"><g><title>Carga</title><rect fill="#000000" fill-opacity="0.00000" height="415.7266" width="8" x="408.1934" y="81.2969"/><line style="stroke:#181818;stroke-width:0.5;stroke-dasharray:5,5;" x1="411.4053" x2="411.4053" y1="81.2969" y2="497.0234"/></g></g><g class="participant-lifeline" data-entity-uid="part5" data-qualified-name="MS" id="part5-lifeline"><g><title>MovimientoStock</title><rect fill="#000000" fill-opacity="0.00000" height="415.7266" width="8" x="513.2983" y="81.2969"/><line style="stroke:#181818;stroke-width:0.5;stroke-dasharray:5,5;" x1="516.9814" x2="516.9814" y1="81.2969" y2="497.0234"/></g></g><g class="participant-lifeline" data-entity-uid="part6" data-qualified-name="DB" id="part6-lifeline"><g><title>DB</title><rect fill="#000000" fill-opacity="0.00000" height="415.7266" width="8" x="703.7529" y="81.2969"/><line style="stroke:#181818;stroke-width:0.5;stroke-dasharray:5,5;" x1="707.7529" x2="707.7529" y1="81.2969" y2="497.0234"/></g></g><g class="participant participant-head" data-entity-uid="part1" data-qualified-name="Capataz" id="part1-head"><text fill="#000000" font-family="sans-serif" font-size="14" lengthAdjust="spacing" textLength="57.2373" x="5" y="77.9951">Capataz</text><ellipse cx="36.6187" cy="13.5" fill="#E2E2F0" rx="8" ry="8" style="stroke:#181818;stroke-width:0.5;"/><path d="M36.6187,21.5 L36.6187,48.5 M23.6187,29.5 L49.6187,29.5 M36.6187,48.5 L23.6187,63.5 M36.6187,48.5 L49.6187,63.5" fill="none" style="stroke:#181818;stroke-width:0.5;"/></g><g class="participant participant-tail" data-entity-uid="part1" data-qualified-name="Capataz" id="part1-tail"><text fill="#000000" font-family="sans-serif" font-size="14" lengthAdjust="spacing" textLength="57.2373" x="5" y="509.0186">Capataz</text><ellipse cx="36.6187" cy="520.8203" fill="#E2E2F0" rx="8" ry="8" style="stroke:#181818;stroke-width:0.5;"/><path d="M36.6187,528.8203 L36.6187,555.8203 M23.6187,536.8203 L49.6187,536.8203 M36.6187,555.8203 L23.6187,570.8203 M36.6187,555.8203 L49.6187,570.8203" fill="none" style="stroke:#181818;stroke-width:0.5;"/></g><g class="participant participant-head" data-entity-uid="part2" data-qualified-name="UI" id="part2-head"><rect fill="#E2E2F0" height="30.2969" rx="2.5" ry="2.5" style="stroke:#181818;stroke-width:0.5;" width="115.6162" x="132.9629" y="50"/><text fill="#000000" font-family="sans-serif" font-size="14" lengthAdjust="spacing" textLength="101.6162" x="139.9629" y="69.9951">UI Parte Diario</text></g><g class="participant participant-tail" data-entity-uid="part2" data-qualified-name="UI" id="part2-tail"><rect fill="#E2E2F0" height="30.2969" rx="2.5" ry="2.5" style="stroke:#181818;stroke-width:0.5;" width="115.6162" x="132.9629" y="496.0234"/><text fill="#000000" font-family="sans-serif" font-size="14" lengthAdjust="spacing" textLength="101.6162" x="139.9629" y="516.0186">UI Parte Diario</text></g><g class="participant participant-head" data-entity-uid="part3" data-qualified-name="PD" id="part3-head"><rect fill="#E2E2F0" height="30.2969" rx="2.5" ry="2.5" style="stroke:#181818;stroke-width:0.5;" width="92.3398" x="282.0654" y="50"/><text fill="#000000" font-family="sans-serif" font-size="14" lengthAdjust="spacing" textLength="78.3398" x="289.0654" y="69.9951">ParteDiario</text></g><g class="participant participant-tail" data-entity-uid="part3" data-qualified-name="PD" id="part3-tail"><rect fill="#E2E2F0" height="30.2969" rx="2.5" ry="2.5" style="stroke:#181818;stroke-width:0.5;" width="92.3398" x="282.0654" y="496.0234"/><text fill="#000000" font-family="sans-serif" font-size="14" lengthAdjust="spacing" textLength="78.3398" x="289.0654" y="516.0186">ParteDiario</text></g><g class="participant participant-head" data-entity-uid="part4" data-qualified-name="C" id="part4-head"><rect fill="#E2E2F0" height="30.2969" rx="2.5" ry="2.5" style="stroke:#181818;stroke-width:0.5;" width="55.5762" x="384.4053" y="50"/><text fill="#000000" font-family="sans-serif" font-size="14" lengthAdjust="spacing" textLength="41.5762" x="391.4053" y="69.9951">Carga</text></g><g class="participant participant-tail" data-entity-uid="part4" data-qualified-name="C" id="part4-tail"><rect fill="#E2E2F0" height="30.2969" rx="2.5" ry="2.5" style="stroke:#181818;stroke-width:0.5;" width="55.5762" x="384.4053" y="496.0234"/><text fill="#000000" font-family="sans-serif" font-size="14" lengthAdjust="spacing" textLength="41.5762" x="391.4053" y="516.0186">Carga</text></g><g class="participant participant-head" data-entity-uid="part5" data-qualified-name="MS" id="part5-head"><rect fill="#E2E2F0" height="30.2969" rx="2.5" ry="2.5" style="stroke:#181818;stroke-width:0.5;" width="134.6338" x="449.9814" y="50"/><text fill="#000000" font-family="sans-serif" font-size="14" lengthAdjust="spacing" textLength="120.6338" x="456.9814" y="69.9951">MovimientoStock</text></g><g class="participant participant-tail" data-entity-uid="part5" data-qualified-name="MS" id="part5-tail"><rect fill="#E2E2F0" height="30.2969" rx="2.5" ry="2.5" style="stroke:#181818;stroke-width:0.5;" width="134.6338" x="449.9814" y="496.0234"/><text fill="#000000" font-family="sans-serif" font-size="14" lengthAdjust="spacing" textLength="120.6338" x="456.9814" y="516.0186">MovimientoStock</text></g><g class="participant participant-head" data-entity-uid="part6" data-qualified-name="DB" id="part6-head"><text fill="#000000" font-family="sans-serif" font-size="14" lengthAdjust="spacing" textLength="20.3848" x="694.5605" y="77.9951">DB</text><path d="M689.7529,29 C689.7529,19 707.7529,19 707.7529,19 C707.7529,19 725.7529,19 725.7529,29 L725.7529,55 C725.7529,65 707.7529,65 707.7529,65 C707.7529,65 689.7529,65 689.7529,55 L689.7529,29" fill="#E2E2F0" style="stroke:#181818;stroke-width:0.5;"/><path d="M689.7529,29 C689.7529,39 707.7529,39 707.7529,39 C707.7529,39 725.7529,39 725.7529,29" fill="none" style="stroke:#181818;stroke-width:0.5;"/></g><g class="participant participant-tail" data-entity-uid="part6" data-qualified-name="DB" id="part6-tail"><text fill="#000000" font-family="sans-serif" font-size="14" lengthAdjust="spacing" textLength="20.3848" x="694.5605" y="509.0186">DB</text><path d="M689.7529,522.3203 C689.7529,512.3203 707.7529,512.3203 707.7529,512.3203 C707.7529,512.3203 725.7529,512.3203 725.7529,522.3203 L725.7529,548.3203 C725.7529,558.3203 707.7529,558.3203 707.7529,558.3203 C707.7529,558.3203 689.7529,558.3203 689.7529,548.3203 L689.7529,522.3203" fill="#E2E2F0" style="stroke:#181818;stroke-width:0.5;"/><path d="M689.7529,522.3203 C689.7529,532.3203 707.7529,532.3203 707.7529,532.3203 C707.7529,532.3203 725.7529,532.3203 725.7529,522.3203" fill="none" style="stroke:#181818;stroke-width:0.5;"/></g><g class="message" data-entity-1="part1" data-entity-2="part2" id="msg1"><polygon fill="#181818" points="178.771,108.4297,188.771,112.4297,178.771,116.4297,182.771,112.4297" style="stroke:#181818;stroke-width:1;"/><line style="stroke:#181818;stroke-width:1;" x1="36.6187" x2="184.771" y1="112.4297" y2="112.4297"/><text fill="#000000" font-family="sans-serif" font-size="13" lengthAdjust="spacing" textLength="130.1523" x="43.6187" y="107.3638">cargar datos del dia</text></g><g class="message" data-entity-1="part2" data-entity-2="part2" id="msg2"><line style="stroke:#181818;stroke-width:1;" x1="190.771" x2="232.771" y1="141.5625" y2="141.5625"/><line style="stroke:#181818;stroke-width:1;" x1="232.771" x2="232.771" y1="141.5625" y2="154.5625"/><line style="stroke:#181818;stroke-width:1;" x1="191.771" x2="232.771" y1="154.5625" y2="154.5625"/><polygon fill="#181818" points="201.771,150.5625,191.771,154.5625,201.771,158.5625,197.771,154.5625" style="stroke:#181818;stroke-width:1;"/><text fill="#000000" font-family="sans-serif" font-size="13" lengthAdjust="spacing" textLength="88.5244" x="197.771" y="136.4966">validar reglas</text></g><g class="message" data-entity-1="part2" data-entity-2="part3" id="msg3"><polygon fill="#181818" points="316.2354,179.6953,326.2354,183.6953,316.2354,187.6953,320.2354,183.6953" style="stroke:#181818;stroke-width:1;"/><line style="stroke:#181818;stroke-width:1;" x1="190.771" x2="322.2354" y1="183.6953" y2="183.6953"/><text fill="#000000" font-family="sans-serif" font-size="13" lengthAdjust="spacing" textLength="113.4644" x="197.771" y="178.6294">crear parte diario</text></g><g class="message" data-entity-1="part3" data-entity-2="part6" id="msg4"><polygon fill="#181818" points="695.7529,208.8281,705.7529,212.8281,695.7529,216.8281,699.7529,212.8281" style="stroke:#181818;stroke-width:1;"/><line style="stroke:#181818;stroke-width:1;" x1="328.2354" x2="701.7529" y1="212.8281" y2="212.8281"/><text fill="#000000" font-family="sans-serif" font-size="13" lengthAdjust="spacing" textLength="125.8677" x="335.2354" y="207.7622">insert parte_diarios</text></g><path d="M122.9629,227.8281 L187.4058,227.8281 L187.4058,234.9609 L177.4058,244.9609 L122.9629,244.9609 L122.9629,227.8281" fill="#EEEEEE" style="stroke:#000000;stroke-width:1.5;"/><rect fill="none" height="75.3984" style="stroke:#000000;stroke-width:1.5;" width="612.79" x="122.9629" y="227.8281"/><text fill="#000000" font-family="sans-serif" font-size="13" font-weight="bold" lengthAdjust="spacing" textLength="19.4429" x="137.9629" y="240.895">alt</text><text fill="#000000" font-family="sans-serif" font-size="11" font-weight="bold" lengthAdjust="spacing" textLength="77.0054" x="202.4058" y="240.0386">[con cargas]</text><g class="message" data-entity-1="part2" data-entity-2="part4" id="msg5"><polygon fill="#181818" points="400.1934,262.0938,410.1934,266.0938,400.1934,270.0938,404.1934,266.0938" style="stroke:#181818;stroke-width:1;"/><line style="stroke:#181818;stroke-width:1;" x1="190.771" x2="406.1934" y1="266.0938" y2="266.0938"/><text fill="#000000" font-family="sans-serif" font-size="13" lengthAdjust="spacing" textLength="81.3833" x="197.771" y="261.0278">crear cargas</text></g><g class="message" data-entity-1="part4" data-entity-2="part6" id="msg6"><polygon fill="#181818" points="695.7529,291.2266,705.7529,295.2266,695.7529,299.2266,699.7529,295.2266" style="stroke:#181818;stroke-width:1;"/><line style="stroke:#181818;stroke-width:1;" x1="412.1934" x2="701.7529" y1="295.2266" y2="295.2266"/><text fill="#000000" font-family="sans-serif" font-size="13" lengthAdjust="spacing" textLength="136.4048" x="419.1934" y="290.1606">insert cargas/pivotes</text></g><path d="M122.9629,317.2266 L187.4058,317.2266 L187.4058,324.3594 L177.4058,334.3594 L122.9629,334.3594 L122.9629,317.2266" fill="#EEEEEE" style="stroke:#000000;stroke-width:1.5;"/><rect fill="none" height="75.3984" style="stroke:#000000;stroke-width:1.5;" width="612.79" x="122.9629" y="317.2266"/><text fill="#000000" font-family="sans-serif" font-size="13" font-weight="bold" lengthAdjust="spacing" textLength="19.4429" x="137.9629" y="330.2935">alt</text><text fill="#000000" font-family="sans-serif" font-size="11" font-weight="bold" lengthAdjust="spacing" textLength="87.3394" x="202.4058" y="329.437">[con insumos]</text><g class="message" data-entity-1="part2" data-entity-2="part5" id="msg7"><polygon fill="#181818" points="505.2983,351.4922,515.2983,355.4922,505.2983,359.4922,509.2983,355.4922" style="stroke:#181818;stroke-width:1;"/><line style="stroke:#181818;stroke-width:1;" x1="190.771" x2="511.2983" y1="355.4922" y2="355.4922"/><text fill="#000000" font-family="sans-serif" font-size="13" lengthAdjust="spacing" textLength="104.8188" x="197.771" y="350.4263">registrar salidas</text></g><g class="message" data-entity-1="part5" data-entity-2="part6" id="msg8"><polygon fill="#181818" points="695.7529,380.625,705.7529,384.625,695.7529,388.625,699.7529,384.625" style="stroke:#181818;stroke-width:1;"/><line style="stroke:#181818;stroke-width:1;" x1="517.2983" x2="701.7529" y1="384.625" y2="384.625"/><text fill="#000000" font-family="sans-serif" font-size="13" lengthAdjust="spacing" textLength="166.4546" x="524.2983" y="379.5591">insert movimientos_stock</text></g><g class="message" data-entity-1="part2" data-entity-2="part3" id="msg9"><polygon fill="#181818" points="316.2354,416.7578,326.2354,420.7578,316.2354,424.7578,320.2354,420.7578" style="stroke:#181818;stroke-width:1;"/><line style="stroke:#181818;stroke-width:1;" x1="190.771" x2="322.2354" y1="420.7578" y2="420.7578"/><text fill="#000000" font-family="sans-serif" font-size="13" lengthAdjust="spacing" textLength="96.8652" x="197.771" y="415.6919">calcular costos</text></g><g class="message" data-entity-1="part3" data-entity-2="part6" id="msg10"><polygon fill="#181818" points="695.7529,445.8906,705.7529,449.8906,695.7529,453.8906,699.7529,449.8906" style="stroke:#181818;stroke-width:1;"/><line style="stroke:#181818;stroke-width:1;" x1="328.2354" x2="701.7529" y1="449.8906" y2="449.8906"/><text fill="#000000" font-family="sans-serif" font-size="13" lengthAdjust="spacing" textLength="91.6348" x="335.2354" y="444.8247">update costos</text></g><g class="message" data-entity-1="part2" data-entity-2="part1" id="msg11"><polygon fill="#181818" points="47.6187,475.0234,37.6187,479.0234,47.6187,483.0234,43.6187,479.0234" style="stroke:#181818;stroke-width:1;"/><line style="stroke:#181818;stroke-width:1;stroke-dasharray:2,2;" x1="41.6187" x2="189.771" y1="479.0234" y2="479.0234"/><text fill="#000000" font-family="sans-serif" font-size="13" lengthAdjust="spacing" textLength="84.4556" x="53.6187" y="473.9575">confirmacion</text></g><?plantuml-src NP2zRiCm38HtFGNXlUZkeOEj9OC10qRcW9NKWAWi6QBieKzV_SI9dKtYTpmUYIhw03qk6F4FaFUdM314KhIWYz1SBp2clm596CWtMNYzd3L5SE2ZFFCUmnqBwSzWy1lDP5pqK_JgjqY6IUWKunlPG2ExKfET47lGZwyqlmMLFGCagMVGne8c52di0szeIISUpDqYFy0eKrymgRoKbNI9B4QPeUnQ8CScn4flbR8GQ2Cex-f85W3LhT_DdlN-pQU2puKs7mqBu_JBB4dMsR_SXgdDOObZI9PSucSwJ6-cy_DcVEDyjUfxs12jMctEvHFdmthhaivbzdhko6lKkxOvrG-56HLvzmy0?></g></svg>