<?plantuml 1.2026.2beta3?><svg xmlns="http://www.w3.org/2000/svg" xmlns:xlink="http://www.w3.org/1999/xlink" contentStyleType="text/css" data-diagram-type="ACTIVITY" height="609px" preserveAspectRatio="none" style="width:322px;height:609px;background:#FFFFFF;" version="1.1" viewBox="0 0 322 609" width="322px" zoomAndPan="magnify"><defs/><g><ellipse cx="161.4404" cy="20" fill="#222222" rx="10" ry="10" style="stroke:#222222;stroke-width:1;"/><rect fill="#F1F1F1" height="33.9688" rx="12.5" ry="12.5" style="stroke:#181818;stroke-width:0.5;" width="163.9531" x="79.4639" y="50"/><text fill="#000000" font-family="sans-serif" font-size="12" lengthAdjust="spacing" textLength="143.9531" x="89.4639" y="71.1387">Seleccionar lote y fecha</text><rect fill="#F1F1F1" height="33.9688" rx="12.5" ry="12.5" style="stroke:#181818;stroke-width:0.5;" width="300.8809" x="11" y="103.9688"/><text fill="#000000" font-family="sans-serif" font-size="12" lengthAdjust="spacing" textLength="280.8809" x="21" y="125.1074">Ingresar condiciones climaticas (manual o API)</text><rect fill="#F1F1F1" height="33.9688" rx="12.5" ry="12.5" style="stroke:#181818;stroke-width:0.5;" width="214.1094" x="54.3857" y="157.9375"/><text fill="#000000" font-family="sans-serif" font-size="12" lengthAdjust="spacing" textLength="194.1094" x="64.3857" y="179.0762">Marcar asistencia de empleados</text><rect fill="#F1F1F1" height="33.9688" rx="12.5" ry="12.5" style="stroke:#181818;stroke-width:0.5;" width="236.4863" x="43.1973" y="211.9063"/><text fill="#000000" font-family="sans-serif" font-size="12" lengthAdjust="spacing" textLength="216.4863" x="53.1973" y="233.0449">Registrar incidencias de maquinaria</text><rect fill="#F1F1F1" height="33.9688" rx="12.5" ry="12.5" style="stroke:#181818;stroke-width:0.5;" width="163.0391" x="79.9209" y="265.875"/><text fill="#000000" font-family="sans-serif" font-size="12" lengthAdjust="spacing" textLength="143.0391" x="89.9209" y="287.0137">Registrar cargas del dia</text><rect fill="#F1F1F1" height="33.9688" rx="12.5" ry="12.5" style="stroke:#181818;stroke-width:0.5;" width="99.2188" x="111.8311" y="319.8438"/><text fill="#000000" font-family="sans-serif" font-size="12" lengthAdjust="spacing" textLength="79.2188" x="121.8311" y="340.9824">Validar datos</text><polygon fill="#F1F1F1" points="121.3774,373.8125,201.5034,373.8125,213.5034,385.8125,201.5034,397.8125,121.3774,397.8125,109.3774,385.8125,121.3774,373.8125" style="stroke:#181818;stroke-width:0.5;"/><text fill="#000000" font-family="sans-serif" font-size="11" lengthAdjust="spacing" textLength="80.126" x="121.3774" y="389.6206">Datos validos?</text><text fill="#000000" font-family="sans-serif" font-size="11" lengthAdjust="spacing" textLength="8.7871" x="100.5903" y="383.2183">si</text><text fill="#000000" font-family="sans-serif" font-size="11" lengthAdjust="spacing" textLength="13.7017" x="213.5034" y="383.2183">no</text><rect fill="#F1F1F1" height="33.9688" rx="12.5" ry="12.5" style="stroke:#181818;stroke-width:0.5;" width="142.6309" x="15.0015" y="407.8125"/><text fill="#000000" font-family="sans-serif" font-size="12" lengthAdjust="spacing" textLength="122.6309" x="25.0015" y="428.9512">Guardar parte diario</text><rect fill="#F1F1F1" height="33.9688" rx="12.5" ry="12.5" style="stroke:#181818;stroke-width:0.5;" width="126.2832" x="23.1753" y="461.7813"/><text fill="#000000" font-family="sans-serif" font-size="12" lengthAdjust="spacing" textLength="106.2832" x="33.1753" y="482.9199">Generar auditoria</text><rect fill="#F1F1F1" height="33.9688" rx="12.5" ry="12.5" style="stroke:#181818;stroke-width:0.5;" width="147.6465" x="12.4937" y="515.75"/><text fill="#000000" font-family="sans-serif" font-size="12" lengthAdjust="spacing" textLength="127.6465" x="22.4937" y="536.8887">Mostrar confirmacion</text><ellipse cx="86.3169" cy="580.7188" fill="none" rx="11" ry="11" style="stroke:#222222;stroke-width:1;"/><ellipse cx="86.3169" cy="580.7188" fill="#222222" rx="6" ry="6" style="stroke:#222222;stroke-width:1;"/><rect fill="#F1F1F1" height="33.9688" rx="12.5" ry="12.5" style="stroke:#181818;stroke-width:0.5;" width="112.8477" x="180.1401" y="407.8125"/><text fill="#000000" font-family="sans-serif" font-size="12" lengthAdjust="spacing" textLength="92.8477" x="190.1401" y="428.9512">Mostrar errores</text><line style="stroke:#181818;stroke-width:1;" x1="161.4404" x2="161.4404" y1="30" y2="50"/><polygon fill="#181818" points="157.4404,40,161.4404,50,165.4404,40,161.4404,44" style="stroke:#181818;stroke-width:1;"/><line style="stroke:#181818;stroke-width:1;" x1="161.4404" x2="161.4404" y1="83.9688" y2="103.9688"/><polygon fill="#181818" points="157.4404,93.9688,161.4404,103.9688,165.4404,93.9688,161.4404,97.9688" style="stroke:#181818;stroke-width:1;"/><line style="stroke:#181818;stroke-width:1;" x1="161.4404" x2="161.4404" y1="137.9375" y2="157.9375"/><polygon fill="#181818" points="157.4404,147.9375,161.4404,157.9375,165.4404,147.9375,161.4404,151.9375" style="stroke:#181818;stroke-width:1;"/><line style="stroke:#181818;stroke-width:1;" x1="161.4404" x2="161.4404" y1="191.9063" y2="211.9063"/><polygon fill="#181818" points="157.4404,201.9063,161.4404,211.9063,165.4404,201.9063,161.4404,205.9063" style="stroke:#181818;stroke-width:1;"/><line style="stroke:#181818;stroke-width:1;" x1="161.4404" x2="161.4404" y1="245.875" y2="265.875"/><polygon fill="#181818" points="157.4404,255.875,161.4404,265.875,165.4404,255.875,161.4404,259.875" style="stroke:#181818;stroke-width:1;"/><line style="stroke:#181818;stroke-width:1;" x1="161.4404" x2="161.4404" y1="299.8438" y2="319.8438"/><polygon fill="#181818" points="157.4404,309.8438,161.4404,319.8438,165.4404,309.8438,161.4404,313.8438" style="stroke:#181818;stroke-width:1;"/><line style="stroke:#181818;stroke-width:1;" x1="86.3169" x2="86.3169" y1="441.7813" y2="461.7813"/><polygon fill="#181818" points="82.3169,451.7813,86.3169,461.7813,90.3169,451.7813,86.3169,455.7813" style="stroke:#181818;stroke-width:1;"/><line style="stroke:#181818;stroke-width:1;" x1="86.3169" x2="86.3169" y1="495.75" y2="515.75"/><polygon fill="#181818" points="82.3169,505.75,86.3169,515.75,90.3169,505.75,86.3169,509.75" style="stroke:#181818;stroke-width:1;"/><line style="stroke:#181818;stroke-width:1;" x1="86.3169" x2="86.3169" y1="549.7188" y2="569.7188"/><polygon fill="#181818" points="82.3169,559.7188,86.3169,569.7188,90.3169,559.7188,86.3169,563.7188" style="stroke:#181818;stroke-width:1;"/><line style="stroke:#181818;stroke-width:1;" x1="109.3774" x2="86.3169" y1="385.8125" y2="385.8125"/><line style="stroke:#181818;stroke-width:1;" x1="86.3169" x2="86.3169" y1="385.8125" y2="407.8125"/><polygon fill="#181818" points="82.3169,397.8125,86.3169,407.8125,90.3169,397.8125,86.3169,401.8125" style="stroke:#181818;stroke-width:1;"/><line style="stroke:#181818;stroke-width:1;" x1="213.5034" x2="236.564" y1="385.8125" y2="385.8125"/><line style="stroke:#181818;stroke-width:1;" x1="236.564" x2="236.564" y1="385.8125" y2="407.8125"/><polygon fill="#181818" points="232.564,397.8125,236.564,407.8125,240.564,397.8125,236.564,401.8125" style="stroke:#181818;stroke-width:1;"/><line style="stroke:#181818;stroke-width:1;" x1="236.564" x2="236.564" y1="441.7813" y2="597.7188"/><line style="stroke:#181818;stroke-width:1;" x1="236.564" x2="161.4404" y1="597.7188" y2="597.7188"/><line style="stroke:#181818;stroke-width:1;" x1="161.4404" x2="161.4404" y1="353.8125" y2="373.8125"/><polygon fill="#181818" points="157.4404,363.8125,161.4404,373.8125,165.4404,363.8125,161.4404,367.8125" style="stroke:#181818;stroke-width:1;"/><?plantuml-src LP3FIiH038VlVOeSsuClq0L5K6GF2uk25_4GPj9kO3gfoLJmxKtAmkfjoFVDBt-ieRPkVAD2AR5KL2ZI27vWedJ1GpSUwwnaNazICuT31gdmWeqJ6lGBrWqB23oUZuD_EA4crz7O6jN429c0bhKGPZ4NNcbsfEwmuxmx5jA2Nnlx28p_B4-RTw50tj4x5iuEChO8v0dwftZ2Tm2nXm7QXIhqnaC7CBvigE6llYj5Xh8STa2LeWDkcPliVRrwacjVgHFhWh5p06koTbICeAyo_3L9LVn88TtTmqSILPzUFs5yzk3RfEGNd7u1?></g></svg>