<?plantuml 1.2026.2beta3?><svg xmlns="http://www.w3.org/2000/svg" xmlns:xlink="http://www.w3.org/1999/xlink" contentStyleType="text/css" data-diagram-type="DESCRIPTION" height="691px" preserveAspectRatio="none" style="width:1623px;height:691px;background:#FFFFFF;" version="1.1" viewBox="0 0 1623 691" width="1623px" zoomAndPan="magnify"><defs/><g><!--cluster Gestion Rennova--><g class="cluster" data-qualified-name="Gestion Rennova" data-source-line="7" id="ent0006"><path d="M154.58,228 L289.2499,228 A3.75,3.75 0 0 1 291.7499,230.5 L298.7499,250.2969 L1613.98,250.2969 A2.5,2.5 0 0 1 1616.48,252.7969 L1616.48,533.5 A2.5,2.5 0 0 1 1613.98,536 L154.58,536 A2.5,2.5 0 0 1 152.08,533.5 L152.08,230.5 A2.5,2.5 0 0 1 154.58,228" fill="none" style="stroke:#000000;stroke-width:1.5;"/><line style="stroke:#000000;stroke-width:1.5;" x1="152.08" x2="298.7499" y1="250.2969" y2="250.2969"/><text fill="#000000" font-family="sans-serif" font-size="14" font-weight="bold" lengthAdjust="spacing" textLength="133.6699" x="156.08" y="242.9951">Gestion Rennova</text></g><!--entity Prod--><g class="entity" data-qualified-name="Gestion Rennova.Prod" data-source-line="8" id="ent0007"><rect fill="#F1F1F1" height="46.2969" rx="2.5" ry="2.5" style="stroke:#181818;stroke-width:0.5;" width="117.2461" x="1188.83" y="349.85"/><rect fill="#F1F1F1" height="10" style="stroke:#181818;stroke-width:0.5;" width="15" x="1286.0761" y="354.85"/><rect fill="#F1F1F1" height="2" style="stroke:#181818;stroke-width:0.5;" width="4" x="1284.0761" y="356.85"/><rect fill="#F1F1F1" height="2" style="stroke:#181818;stroke-width:0.5;" width="4" x="1284.0761" y="360.85"/><text fill="#000000" font-family="sans-serif" font-size="14" lengthAdjust="spacing" textLength="77.2461" x="1203.83" y="382.8451">Produccion</text></g><!--entity Maq--><g class="entity" data-qualified-name="Gestion Rennova.Maq" data-source-line="9" id="ent0008"><rect fill="#F1F1F1" height="46.2969" rx="2.5" ry="2.5" style="stroke:#181818;stroke-width:0.5;" width="190.4111" x="1410.07" y="262.85"/><rect fill="#F1F1F1" height="10" style="stroke:#181818;stroke-width:0.5;" width="15" x="1580.4811" y="267.85"/><rect fill="#F1F1F1" height="2" style="stroke:#181818;stroke-width:0.5;" width="4" x="1578.4811" y="269.85"/><rect fill="#F1F1F1" height="2" style="stroke:#181818;stroke-width:0.5;" width="4" x="1578.4811" y="273.85"/><text fill="#000000" font-family="sans-serif" font-size="14" lengthAdjust="spacing" textLength="150.4111" x="1425.07" y="295.8451">Maquinaria y Equipos</text></g><!--entity RRHH--><g class="entity" data-qualified-name="Gestion Rennova.RRHH" data-source-line="10" id="ent0009"><rect fill="#F1F1F1" height="46.2969" rx="2.5" ry="2.5" style="stroke:#181818;stroke-width:0.5;" width="174.6201" x="1417.97" y="461.85"/><rect fill="#F1F1F1" height="10" style="stroke:#181818;stroke-width:0.5;" width="15" x="1572.5901" y="466.85"/><rect fill="#F1F1F1" height="2" style="stroke:#181818;stroke-width:0.5;" width="4" x="1570.5901" y="468.85"/><rect fill="#F1F1F1" height="2" style="stroke:#181818;stroke-width:0.5;" width="4" x="1570.5901" y="472.85"/><text fill="#000000" font-family="sans-serif" font-size="14" lengthAdjust="spacing" textLength="134.6201" x="1432.97" y="494.8451">Recursos Humanos</text></g><!--entity Fin--><g class="entity" data-qualified-name="Gestion Rennova.Fin" data-source-line="11" id="ent0010"><rect fill="#F1F1F1" height="46.2969" rx="2.5" ry="2.5" style="stroke:#181818;stroke-width:0.5;" width="165.6582" x="860.17" y="349.85"/><rect fill="#F1F1F1" height="10" style="stroke:#181818;stroke-width:0.5;" width="15" x="1005.8282" y="354.85"/><rect fill="#F1F1F1" height="2" style="stroke:#181818;stroke-width:0.5;" width="4" x="1003.8282" y="356.85"/><rect fill="#F1F1F1" height="2" style="stroke:#181818;stroke-width:0.5;" width="4" x="1003.8282" y="360.85"/><text fill="#000000" font-family="sans-serif" font-size="14" lengthAdjust="spacing" textLength="125.6582" x="875.17" y="382.8451">Finanzas y Costos</text></g><!--entity Adm--><g class="entity" data-qualified-name="Gestion Rennova.Adm" data-source-line="12" id="ent0011"><rect fill="#F1F1F1" height="46.2969" rx="2.5" ry="2.5" style="stroke:#181818;stroke-width:0.5;" width="200.1387" x="480.03" y="311.85"/><rect fill="#F1F1F1" height="10" style="stroke:#181818;stroke-width:0.5;" width="15" x="660.1687" y="316.85"/><rect fill="#F1F1F1" height="2" style="stroke:#181818;stroke-width:0.5;" width="4" x="658.1687" y="318.85"/><rect fill="#F1F1F1" height="2" style="stroke:#181818;stroke-width:0.5;" width="4" x="658.1687" y="322.85"/><text fill="#000000" font-family="sans-serif" font-size="14" lengthAdjust="spacing" textLength="160.1387" x="495.03" y="344.8451">Gestion Administrativa</text></g><!--entity Sec--><g class="entity" data-qualified-name="Gestion Rennova.Sec" data-source-line="13" id="ent0012"><rect fill="#F1F1F1" height="46.2969" rx="2.5" ry="2.5" style="stroke:#181818;stroke-width:0.5;" width="191.9492" x="168.08" y="386.85"/><rect fill="#F1F1F1" height="10" style="stroke:#181818;stroke-width:0.5;" width="15" x="340.0292" y="391.85"/><rect fill="#F1F1F1" height="2" style="stroke:#181818;stroke-width:0.5;" width="4" x="338.0292" y="393.85"/><rect fill="#F1F1F1" height="2" style="stroke:#181818;stroke-width:0.5;" width="4" x="338.0292" y="397.85"/><text fill="#000000" font-family="sans-serif" font-size="14" lengthAdjust="spacing" textLength="151.9492" x="183.08" y="419.8451">Seguridad y Auditoria</text></g><!--entity PA--><g class="entity" data-qualified-name="PA" data-source-line="2" id="ent0002"><ellipse cx="264.0522" cy="144.35" fill="#F1F1F1" rx="8" ry="8" style="stroke:#181818;stroke-width:0.5;"/><path d="M264.0522,152.35 L264.0522,179.35 M251.0522,160.35 L277.0522,160.35 M264.0522,179.35 L251.0522,194.35 M264.0522,179.35 L277.0522,194.35" fill="none" style="stroke:#181818;stroke-width:0.5;"/><text fill="#000000" font-family="sans-serif" font-size="14" lengthAdjust="spacing" textLength="166.5645" x="180.77" y="208.8451">Personal Administrativo</text></g><!--entity Capataz--><g class="entity" data-qualified-name="Capataz" data-source-line="3" id="ent0003"><ellipse cx="942.9987" cy="67.35" fill="#F1F1F1" rx="8" ry="8" style="stroke:#181818;stroke-width:0.5;"/><path d="M942.9987,75.35 L942.9987,102.35 M929.9987,83.35 L955.9987,83.35 M942.9987,102.35 L929.9987,117.35 M942.9987,102.35 L955.9987,117.35" fill="none" style="stroke:#181818;stroke-width:0.5;"/><text fill="#000000" font-family="sans-serif" font-size="14" lengthAdjust="spacing" textLength="57.2373" x="914.38" y="131.8451">Capataz</text></g><!--entity Admin--><g class="entity" data-qualified-name="Admin" data-source-line="4" id="ent0004"><ellipse cx="55.54" cy="380.35" fill="#F1F1F1" rx="8" ry="8" style="stroke:#181818;stroke-width:0.5;"/><path d="M55.54,388.35 L55.54,415.35 M42.54,396.35 L68.54,396.35 M55.54,415.35 L42.54,430.35 M55.54,415.35 L68.54,430.35" fill="none" style="stroke:#181818;stroke-width:0.5;"/><text fill="#000000" font-family="sans-serif" font-size="14" lengthAdjust="spacing" textLength="99.0801" x="6" y="444.8451">Administrador</text></g><!--entity Clima--><g class="entity" data-qualified-name="Clima" data-source-line="5" id="ent0005"><ellipse cx="942.9952" cy="563.35" fill="#F1F1F1" rx="8" ry="8" style="stroke:#181818;stroke-width:0.5;"/><path d="M942.9952,571.35 L942.9952,598.35 M929.9952,579.35 L955.9952,579.35 M942.9952,598.35 L929.9952,613.35 M942.9952,598.35 L955.9952,613.35" fill="none" style="stroke:#181818;stroke-width:0.5;"/><text fill="#000000" font-family="sans-serif" font-size="14" lengthAdjust="spacing" textLength="140.6904" x="872.65" y="627.8451">API Clima (opcional)</text></g><!--link PA to Prod--><g class="link" data-entity-1="ent0002" data-entity-2="ent0007" data-link-type="dependency" data-source-line="16" id="lnk13"><path d="M347.75,172.14 C489.87,171.26 788.1,179.66 1025.83,255 C1096.22,277.31 1165.3952,318.7258 1207.3052,346.2558" fill="none" id="PA-to-Prod" style="stroke:#181818;stroke-width:1;"/><polygon fill="#181818" points="1212.32,349.55,1206.9939,341.2655,1208.141,346.8049,1202.6016,347.952,1212.32,349.55" style="stroke:#181818;stroke-width:1;"/></g><!--link PA to Adm--><g class="link" data-entity-1="ent0002" data-entity-2="ent0011" data-link-type="dependency" data-source-line="17" id="lnk14"><path d="M340.28,212.56 C400.34,243.36 477.2207,282.7728 527.8407,308.7228" fill="none" id="PA-to-Adm" style="stroke:#181818;stroke-width:1;"/><polygon fill="#181818" points="533.18,311.46,526.9958,303.7947,528.7306,309.179,523.3463,310.9138,533.18,311.46" style="stroke:#181818;stroke-width:1;"/></g><!--link PA to Fin--><g class="link" data-entity-1="ent0002" data-entity-2="ent0010" data-link-type="dependency" data-source-line="18" id="lnk15"><path d="M347.59,192.11 C458.66,217.37 661.75,266.7 830.17,325 C850.53,332.05 866.9274,338.6852 885.8974,347.0252" fill="none" id="PA-to-Fin" style="stroke:#181818;stroke-width:1;"/><polygon fill="#181818" points="891.39,349.44,884.7609,342.1561,886.8128,347.4277,881.5412,349.4796,891.39,349.44" style="stroke:#181818;stroke-width:1;"/></g><!--link Capataz to Prod--><g class="link" data-entity-1="ent0003" data-entity-2="ent0007" data-link-type="dependency" data-source-line="19" id="lnk16"><path d="M972.07,98.06 C1016.99,101.23 1105.37,113.63 1158.83,162 C1215.3,213.1 1235.394,300.3167 1242.394,343.6867" fill="none" id="Capataz-to-Prod" style="stroke:#181818;stroke-width:1;"/><polygon fill="#181818" points="1243.35,349.61,1245.8648,340.0876,1242.5533,344.6739,1237.967,341.3623,1243.35,349.61" style="stroke:#181818;stroke-width:1;"/></g><!--link Admin to Maq--><g class="link" data-entity-1="ent0004" data-entity-2="ent0008" data-link-type="dependency" data-source-line="20" id="lnk17"><path d="M58.39,371.63 C65.53,270.78 99.8,6 263.05,6 C263.05,6 263.05,6 1248.45,6 C1387.06,6 1468.575,189.6951 1493.925,256.9951" fill="none" id="Admin-to-Maq" style="stroke:#181818;stroke-width:1;"/><polygon fill="#181818" points="1496.04,262.61,1496.6108,252.7777,1494.2775,257.9309,1489.1243,255.5977,1496.04,262.61" style="stroke:#181818;stroke-width:1;"/></g><!--link Admin to RRHH--><g class="link" data-entity-1="ent0004" data-entity-2="ent0009" data-link-type="dependency" data-source-line="21" id="lnk18"><path d="M66.1,448.39 C87.42,523.8 146.45,684 263.05,684 C263.05,684 263.05,684 1248.45,684 C1361.55,684 1451.4522,566.3258 1486.2822,513.6158" fill="none" id="Admin-to-RRHH" style="stroke:#181818;stroke-width:1;"/><polygon fill="#181818" points="1489.59,508.61,1481.2911,513.9136,1486.8335,512.7815,1487.9655,518.324,1489.59,508.61" style="stroke:#181818;stroke-width:1;"/></g><!--link Admin to Sec--><g class="link" data-entity-1="ent0004" data-entity-2="ent0012" data-link-type="dependency" data-source-line="22" id="lnk19"><path d="M105.48,410 C124.21,410 140.27,410 161.85,410" fill="none" id="Admin-to-Sec" style="stroke:#181818;stroke-width:1;"/><polygon fill="#181818" points="167.85,410,158.85,406,162.85,410,158.85,414,167.85,410" style="stroke:#181818;stroke-width:1;"/></g><!--link Clima to Prod--><g class="link" data-entity-1="ent0005" data-entity-2="ent0007" data-link-type="dependency" data-source-line="23" id="lnk20"><path d="M999.52,554.46 C1008.33,548.3 1017.34,541.99 1025.83,536 C1085.19,494.13 1100.57,484.39 1158.83,441 C1178.29,426.51 1195.1005,413.5149 1211.9405,400.2949" fill="none" id="Clima-to-Prod" style="stroke:#181818;stroke-width:1;"/><polygon fill="#181818" points="1216.66,396.59,1207.1108,399.0011,1212.7271,399.6775,1212.0508,405.2937,1216.66,396.59" style="stroke:#181818;stroke-width:1;"/></g><!--link Prod to Maq--><g class="link" data-entity-1="ent0007" data-entity-2="ent0008" data-link-type="dependency" data-source-line="25" id="lnk21"><path d="M1306.5,353.26 C1344.68,340.27 1389.1691,325.1408 1429.4191,311.4608" fill="none" id="Prod-to-Maq" style="stroke:#181818;stroke-width:1;stroke-dasharray:7,7;"/><polygon fill="#181818" points="1435.1,309.53,1425.2915,308.6389,1430.366,311.139,1427.8659,316.2134,1435.1,309.53" style="stroke:#181818;stroke-width:1;"/><text fill="#000000" font-family="sans-serif" font-size="13" lengthAdjust="spacing" textLength="38.9619" x="1339.07" y="326.0669">utiliza</text></g><!--link Prod to RRHH--><g class="link" data-entity-1="ent0007" data-entity-2="ent0009" data-link-type="dependency" data-source-line="26" id="lnk22"><path d="M1302.39,396.62 C1345.93,415.68 1401.394,439.953 1444.914,459.013" fill="none" id="Prod-to-RRHH" style="stroke:#181818;stroke-width:1;stroke-dasharray:7,7;"/><polygon fill="#181818" points="1450.41,461.42,1443.7707,454.1454,1445.83,459.4141,1440.5613,461.4735,1450.41,461.42" style="stroke:#181818;stroke-width:1;"/><text fill="#000000" font-family="sans-serif" font-size="13" lengthAdjust="spacing" textLength="42.8086" x="1337.07" y="409.0669">asigna</text></g><!--link Fin to Prod--><g class="link" data-entity-1="ent0010" data-entity-2="ent0007" data-link-type="dependency" data-source-line="27" id="lnk23"><path d="M1026.24,373 C1077.67,373 1136.65,373 1182.65,373" fill="none" id="Fin-to-Prod" style="stroke:#181818;stroke-width:1;stroke-dasharray:7,7;"/><polygon fill="#181818" points="1188.65,373,1179.65,369,1183.65,373,1179.65,377,1188.65,373" style="stroke:#181818;stroke-width:1;"/><text fill="#000000" font-family="sans-serif" font-size="13" lengthAdjust="spacing" textLength="101.0229" x="1056.83" y="369.0669">costos/ingresos</text></g><!--link Adm to Fin--><g class="link" data-entity-1="ent0011" data-entity-2="ent0010" data-link-type="dependency" data-source-line="28" id="lnk24"><path d="M680.19,345.43 C736.64,351.38 800.553,358.1015 853.913,363.7215" fill="none" id="Adm-to-Fin" style="stroke:#181818;stroke-width:1;stroke-dasharray:7,7;"/><polygon fill="#181818" points="859.88,364.35,851.3485,359.4293,854.9075,363.8263,850.5105,367.3853,859.88,364.35" style="stroke:#181818;stroke-width:1;"/><text fill="#000000" font-family="sans-serif" font-size="13" lengthAdjust="spacing" textLength="118.3901" x="711.17" y="346.0669">datos comerciales</text></g><!--link Sec to Prod--><g class="link" data-entity-1="ent0012" data-entity-2="ent0007" data-link-type="dependency" data-source-line="29" id="lnk25"><path d="M360.24,416.87 C504.58,425.85 787.29,437.82 1025.83,414 C1081.65,408.43 1138.6181,397.4299 1182.9081,387.7599" fill="none" id="Sec-to-Prod" style="stroke:#181818;stroke-width:1;stroke-dasharray:7,7;"/><polygon fill="#181818" points="1188.77,386.48,1179.1239,384.4918,1183.8851,387.5465,1180.8304,392.3077,1188.77,386.48" style="stroke:#181818;stroke-width:1;"/><text fill="#000000" font-family="sans-serif" font-size="13" lengthAdjust="spacing" textLength="58.043" x="741.17" y="423.0669">auditoria</text></g><!--link Sec to Maq--><g class="link" data-entity-1="ent0012" data-entity-2="ent0008" data-link-type="dependency" data-source-line="30" id="lnk26"><path d="M296.48,386.59 C336.62,358.27 409.38,312.14 480.03,294 C812.88,208.54 1220.922,246.7616 1403.872,271.0116" fill="none" id="Sec-to-Maq" style="stroke:#181818;stroke-width:1;stroke-dasharray:7,7;"/><polygon fill="#181818" points="1409.82,271.8,1401.4236,266.6521,1404.8634,271.143,1400.3724,274.5827,1409.82,271.8" style="stroke:#181818;stroke-width:1;"/><text fill="#000000" font-family="sans-serif" font-size="13" lengthAdjust="spacing" textLength="58.043" x="914" y="238.0669">auditoria</text></g><!--link Sec to RRHH--><g class="link" data-entity-1="ent0012" data-entity-2="ent0009" data-link-type="dependency" data-source-line="31" id="lnk27"><path d="M360.46,426.2 C370.43,427.61 380.42,428.91 390.03,430 C429.86,434.51 440.01,433.71 480.03,436 C827.28,455.88 1235.0753,473.7073 1411.5853,481.1473" fill="none" id="Sec-to-RRHH" style="stroke:#181818;stroke-width:1;stroke-dasharray:7,7;"/><polygon fill="#181818" points="1417.58,481.4,1408.7564,477.0245,1412.5844,481.1894,1408.4195,485.0174,1417.58,481.4" style="stroke:#181818;stroke-width:1;"/><text fill="#000000" font-family="sans-serif" font-size="13" lengthAdjust="spacing" textLength="58.043" x="914" y="453.0669">auditoria</text></g><!--link Sec to Fin--><g class="link" data-entity-1="ent0012" data-entity-2="ent0010" data-link-type="dependency" data-source-line="32" id="lnk28"><path d="M360.32,407.05 C444.48,404.22 570.54,399.43 680.17,393 C740.36,389.47 802.25,384.7394 853.81,380.5194" fill="none" id="Sec-to-Fin" style="stroke:#181818;stroke-width:1;stroke-dasharray:7,7;"/><polygon fill="#181818" points="859.79,380.03,850.4937,376.7775,854.8067,380.4379,851.1463,384.7508,859.79,380.03" style="stroke:#181818;stroke-width:1;"/><text fill="#000000" font-family="sans-serif" font-size="13" lengthAdjust="spacing" textLength="58.043" x="551.1" y="389.0669">auditoria</text></g><!--link Sec to Adm--><g class="link" data-entity-1="ent0012" data-entity-2="ent0011" data-link-type="dependency" data-source-line="33" id="lnk29"><path d="M360.13,387.29 C398.13,378.22 436.0643,369.1647 474.4343,359.9947" fill="none" id="Sec-to-Adm" style="stroke:#181818;stroke-width:1;stroke-dasharray:7,7;"/><polygon fill="#181818" points="480.27,358.6,470.5867,356.8015,475.4069,359.7622,472.4463,364.5824,480.27,358.6" style="stroke:#181818;stroke-width:1;"/><text fill="#000000" font-family="sans-serif" font-size="13" lengthAdjust="spacing" textLength="58.043" x="391.03" y="365.0669">auditoria</text></g><?plantuml-src PL1DJyCm3BtdLrWzmM7ZlWDIDG7ZW5HrHxI3bOHYqIObIITjYF-EdRRhq2wH_JxYPxVs8q7o4AZvJ60eM9t8EuKw-G15PKFq3bieJKUEOWgOwEWBm0XLEQkss6F2SqQdUgOMd_4X2p9oeQjNsBRK8TpvNfECkX-_4L2f7lKNDXQA5nib5zJMEN_40duKm7iLl1cq-0uv4RS2l-7tG0u38PpWYUlUnonWGlZQwe7tYh0REdGJLzUxdP3Fx7Hd1awmzJ5DBAD2pZ7-dGCFqrwYsDjc26JGiByS3F6QD0hsLgjVfQeILgl7CUjKYtKgPSvqmaMMf-LM5bYw77bfPS1up8jJoGlhTNR21eP4BPrnWUKBnZ5Iur3nz8ncUWCwx_z0hWcMpoMZCYso3HXaaZMT3PgmjL5nW6ixpkjVY374BJwdk276IRUu9Bd2_m00?></g></svg>