<?plantuml 1.2026.2beta3?><svg xmlns="http://www.w3.org/2000/svg" xmlns:xlink="http://www.w3.org/1999/xlink" contentStyleType="text/css" data-diagram-type="ACTIVITY" height="447px" preserveAspectRatio="none" style="width:459px;height:447px;background:#FFFFFF;" version="1.1" viewBox="0 0 459 447" width="459px" zoomAndPan="magnify"><defs/><g><ellipse cx="229.2529" cy="20" fill="#222222" rx="10" ry="10" style="stroke:#222222;stroke-width:1;"/><rect fill="#F1F1F1" height="33.9688" rx="12.5" ry="12.5" style="stroke:#181818;stroke-width:0.5;" width="119.4102" x="169.5479" y="50"/><text fill="#000000" font-family="sans-serif" font-size="12" lengthAdjust="spacing" textLength="99.4102" x="179.5479" y="71.1387">Seleccionar Lote</text><rect fill="#F1F1F1" height="33.9688" rx="12.5" ry="12.5" style="stroke:#181818;stroke-width:0.5;" width="162.0664" x="148.2197" y="103.9688"/><text fill="#000000" font-family="sans-serif" font-size="12" lengthAdjust="spacing" textLength="142.0664" x="158.2197" y="125.1074">Mostrar tareas actuales</text><rect fill="#F1F1F1" height="33.9688" rx="12.5" ry="12.5" style="stroke:#181818;stroke-width:0.5;" width="207.9746" x="125.2656" y="157.9375"/><text fill="#000000" font-family="sans-serif" font-size="12" lengthAdjust="spacing" textLength="187.9746" x="135.2656" y="179.0762">Agregar/editar tareas (tipo, ha)</text><polygon fill="#F1F1F1" points="122.5615,211.9063,335.9443,211.9063,347.9443,223.9063,335.9443,235.9063,122.5615,235.9063,110.5615,223.9063,122.5615,211.9063" style="stroke:#181818;stroke-width:0.5;"/><text fill="#000000" font-family="sans-serif" font-size="11" lengthAdjust="spacing" textLength="213.3828" x="122.5615" y="227.7144">Superficie total &lt;= superficie del lote?</text><text fill="#000000" font-family="sans-serif" font-size="11" lengthAdjust="spacing" textLength="8.7871" x="101.7744" y="221.312">si</text><text fill="#000000" font-family="sans-serif" font-size="11" lengthAdjust="spacing" textLength="13.7017" x="347.9443" y="221.312">no</text><rect fill="#F1F1F1" height="33.9688" rx="12.5" ry="12.5" style="stroke:#181818;stroke-width:0.5;" width="147.5703" x="26.7764" y="245.9063"/><text fill="#000000" font-family="sans-serif" font-size="12" lengthAdjust="spacing" textLength="127.5703" x="36.7764" y="267.0449">Guardar planificaci?n</text><rect fill="#F1F1F1" height="33.9688" rx="12.5" ry="12.5" style="stroke:#181818;stroke-width:0.5;" width="179.123" x="11" y="299.875"/><text fill="#000000" font-family="sans-serif" font-size="12" lengthAdjust="spacing" textLength="159.123" x="21" y="321.0137">Generar recomendaciones</text><rect fill="#F1F1F1" height="33.9688" rx="12.5" ry="12.5" style="stroke:#181818;stroke-width:0.5;" width="157.9238" x="21.5996" y="353.8438"/><text fill="#000000" font-family="sans-serif" font-size="12" lengthAdjust="spacing" textLength="137.9238" x="31.5996" y="374.9824">Notificar disponibilidad</text><ellipse cx="100.5615" cy="418.8125" fill="none" rx="11" ry="11" style="stroke:#222222;stroke-width:1;"/><ellipse cx="100.5615" cy="418.8125" fill="#222222" rx="6" ry="6" style="stroke:#222222;stroke-width:1;"/><rect fill="#F1F1F1" height="33.9688" rx="12.5" ry="12.5" style="stroke:#181818;stroke-width:0.5;" width="181.8418" x="267.0234" y="245.9063"/><text fill="#000000" font-family="sans-serif" font-size="12" lengthAdjust="spacing" textLength="161.8418" x="277.0234" y="267.0449">Mostrar error de validaci?n</text><line style="stroke:#181818;stroke-width:1;" x1="229.2529" x2="229.2529" y1="30" y2="50"/><polygon fill="#181818" points="225.2529,40,229.2529,50,233.2529,40,229.2529,44" style="stroke:#181818;stroke-width:1;"/><line style="stroke:#181818;stroke-width:1;" x1="229.2529" x2="229.2529" y1="83.9688" y2="103.9688"/><polygon fill="#181818" points="225.2529,93.9688,229.2529,103.9688,233.2529,93.9688,229.2529,97.9688" style="stroke:#181818;stroke-width:1;"/><line style="stroke:#181818;stroke-width:1;" x1="229.2529" x2="229.2529" y1="137.9375" y2="157.9375"/><polygon fill="#181818" points="225.2529,147.9375,229.2529,157.9375,233.2529,147.9375,229.2529,151.9375" style="stroke:#181818;stroke-width:1;"/><line style="stroke:#181818;stroke-width:1;" x1="100.5615" x2="100.5615" y1="279.875" y2="299.875"/><polygon fill="#181818" points="96.5615,289.875,100.5615,299.875,104.5615,289.875,100.5615,293.875" style="stroke:#181818;stroke-width:1;"/><line style="stroke:#181818;stroke-width:1;" x1="100.5615" x2="100.5615" y1="333.8438" y2="353.8438"/><polygon fill="#181818" points="96.5615,343.8438,100.5615,353.8438,104.5615,343.8438,100.5615,347.8438" style="stroke:#181818;stroke-width:1;"/><line style="stroke:#181818;stroke-width:1;" x1="100.5615" x2="100.5615" y1="387.8125" y2="407.8125"/><polygon fill="#181818" points="96.5615,397.8125,100.5615,407.8125,104.5615,397.8125,100.5615,401.8125" style="stroke:#181818;stroke-width:1;"/><line style="stroke:#181818;stroke-width:1;" x1="110.5615" x2="100.5615" y1="223.9063" y2="223.9063"/><line style="stroke:#181818;stroke-width:1;" x1="100.5615" x2="100.5615" y1="223.9063" y2="245.9063"/><polygon fill="#181818" points="96.5615,235.9063,100.5615,245.9063,104.5615,235.9063,100.5615,239.9063" style="stroke:#181818;stroke-width:1;"/><line style="stroke:#181818;stroke-width:1;" x1="347.9443" x2="357.9443" y1="223.9063" y2="223.9063"/><line style="stroke:#181818;stroke-width:1;" x1="357.9443" x2="357.9443" y1="223.9063" y2="245.9063"/><polygon fill="#181818" points="353.9443,235.9063,357.9443,245.9063,361.9443,235.9063,357.9443,239.9063" style="stroke:#181818;stroke-width:1;"/><line style="stroke:#181818;stroke-width:1;" x1="357.9443" x2="357.9443" y1="279.875" y2="435.8125"/><line style="stroke:#181818;stroke-width:1;" x1="357.9443" x2="229.2529" y1="435.8125" y2="435.8125"/><line style="stroke:#181818;stroke-width:1;" x1="229.2529" x2="229.2529" y1="191.9063" y2="211.9063"/><polygon fill="#181818" points="225.2529,201.9063,229.2529,211.9063,233.2529,201.9063,229.2529,205.9063" style="stroke:#181818;stroke-width:1;"/><?plantuml-src RO-nRiCm34HtVGL76sZHtMuRTEhITiaOP62bSq904GsAzlTNDX1awKZU8--kEfk7uOYC64KB6tsfOmp3jrQtDZO0N8cZBvnHc_9nCLpONf347q3dCkiJNRaVWqpK7PSPDaaKaAjpfjStgezTGgRSd0uz-HM5kYfz81e-5xRKliwPYpIKenpAk2ies08PejvG4czvjq1D-r7VOQCaTTOYlv8bSTh4wZe7v0hgYkuUzsemqtO1MdcZxqxFxtHQDQ-mC_rVTWpDNwO_?></g></svg>