<?plantuml 1.2026.2beta3?><svg xmlns="http://www.w3.org/2000/svg" xmlns:xlink="http://www.w3.org/1999/xlink" contentStyleType="text/css" data-diagram-type="DESCRIPTION" height="412px" preserveAspectRatio="none" style="width:534px;height:412px;background:#FFFFFF;" version="1.1" viewBox="0 0 534 412" width="534px" zoomAndPan="magnify"><defs/><g><!--cluster Cliente--><g class="cluster" data-qualified-name="Cliente" data-source-line="1" id="ent0002"><polygon fill="none" points="145.44,16,155.44,6,276.44,6,276.44,91.3,266.44,101.3,145.44,101.3,145.44,16" style="stroke:#181818;stroke-width:1;"/><line style="stroke:#181818;stroke-width:1;" x1="266.44" x2="276.44" y1="16" y2="6"/><line style="stroke:#181818;stroke-width:1;" x1="145.44" x2="266.44" y1="16" y2="16"/><line style="stroke:#181818;stroke-width:1;" x1="266.44" x2="266.44" y1="16" y2="101.3"/><text fill="#000000" font-family="sans-serif" font-size="14" font-weight="bold" lengthAdjust="spacing" textLength="55.5215" x="179.1793" y="31.9951">Cliente</text></g><!--cluster Servidor Web / App--><g class="cluster" data-qualified-name="Servidor Web . App" data-source-line="4" id="ent0004"><polygon fill="none" points="96.44,160.3,106.44,150.3,324.44,150.3,324.44,235.59,314.44,245.59,96.44,245.59,96.44,160.3" style="stroke:#181818;stroke-width:1;"/><line style="stroke:#181818;stroke-width:1;" x1="314.44" x2="324.44" y1="160.3" y2="150.3"/><line style="stroke:#181818;stroke-width:1;" x1="96.44" x2="314.44" y1="160.3" y2="160.3"/><line style="stroke:#181818;stroke-width:1;" x1="314.44" x2="314.44" y1="160.3" y2="245.59"/><text fill="#000000" font-family="sans-serif" font-size="14" font-weight="bold" lengthAdjust="spacing" textLength="152.5234" x="130.1783" y="176.2951">Servidor Web / App</text></g><!--cluster Worker/Scheduler--><g class="cluster" data-qualified-name="Worker.Scheduler" data-source-line="7" id="ent0006"><polygon fill="none" points="300.44,16,310.44,6,517.44,6,517.44,91.3,507.44,101.3,300.44,101.3,300.44,16" style="stroke:#181818;stroke-width:1;"/><line style="stroke:#181818;stroke-width:1;" x1="507.44" x2="517.44" y1="16" y2="6"/><line style="stroke:#181818;stroke-width:1;" x1="300.44" x2="507.44" y1="16" y2="16"/><line style="stroke:#181818;stroke-width:1;" x1="507.44" x2="507.44" y1="16" y2="101.3"/><text fill="#000000" font-family="sans-serif" font-size="14" font-weight="bold" lengthAdjust="spacing" textLength="141.8184" x="334.0308" y="31.9951">Worker/Scheduler</text></g><!--cluster DB Server--><g class="cluster" data-qualified-name="DB Server" data-source-line="10" id="ent0008"><polygon fill="none" points="314.44,304.59,324.44,294.59,469.44,294.59,469.44,385.89,459.44,395.89,314.44,395.89,314.44,304.59" style="stroke:#181818;stroke-width:1;"/><line style="stroke:#181818;stroke-width:1;" x1="459.44" x2="469.44" y1="304.59" y2="294.59"/><line style="stroke:#181818;stroke-width:1;" x1="314.44" x2="459.44" y1="304.59" y2="304.59"/><line style="stroke:#181818;stroke-width:1;" x1="459.44" x2="459.44" y1="304.59" y2="395.89"/><text fill="#000000" font-family="sans-serif" font-size="14" font-weight="bold" lengthAdjust="spacing" textLength="79.1738" x="348.3531" y="320.5851">DB Server</text></g><!--entity Browser--><g class="entity" data-qualified-name="Cliente.Browser" data-source-line="2" id="ent0003"><rect fill="#F1F1F1" height="39.2969" rx="2.5" ry="2.5" style="stroke:#181818;stroke-width:0.5;" width="87.0391" x="172.92" y="46"/><polygon fill="#F1F1F1" points="242.9591,51,242.9591,65,254.9591,65,254.9591,57,248.9591,51,242.9591,51" style="stroke:#181818;stroke-width:0.5;"/><line style="stroke:#181818;stroke-width:0.5;" x1="248.9591" x2="248.9591" y1="51" y2="57"/><line style="stroke:#181818;stroke-width:0.5;" x1="254.9591" x2="248.9591" y1="57" y2="57"/><text fill="#000000" font-family="sans-serif" font-size="14" lengthAdjust="spacing" textLength="57.0391" x="182.92" y="71.9951">Browser</text></g><!--entity Laravel App--><g class="entity" data-qualified-name="Servidor Web . App.Laravel App" data-source-line="5" id="ent0005"><rect fill="#F1F1F1" height="39.2969" rx="2.5" ry="2.5" style="stroke:#181818;stroke-width:0.5;" width="113.3027" x="186.79" y="190.3"/><polygon fill="#F1F1F1" points="283.0927,195.3,283.0927,209.3,295.0927,209.3,295.0927,201.3,289.0927,195.3,283.0927,195.3" style="stroke:#181818;stroke-width:0.5;"/><line style="stroke:#181818;stroke-width:0.5;" x1="289.0927" x2="289.0927" y1="195.3" y2="201.3"/><line style="stroke:#181818;stroke-width:0.5;" x1="295.0927" x2="289.0927" y1="201.3" y2="201.3"/><text fill="#000000" font-family="sans-serif" font-size="14" lengthAdjust="spacing" textLength="83.3027" x="196.79" y="216.2951">Laravel App</text></g><!--entity Queue Worker--><g class="entity" data-qualified-name="Worker.Scheduler.Queue Worker" data-source-line="8" id="ent0007"><rect fill="#F1F1F1" height="39.2969" rx="2.5" ry="2.5" style="stroke:#181818;stroke-width:0.5;" width="131.083" x="316.9" y="46"/><polygon fill="#F1F1F1" points="430.983,51,430.983,65,442.983,65,442.983,57,436.983,51,430.983,51" style="stroke:#181818;stroke-width:0.5;"/><line style="stroke:#181818;stroke-width:0.5;" x1="436.983" x2="436.983" y1="51" y2="57"/><line style="stroke:#181818;stroke-width:0.5;" x1="442.983" x2="436.983" y1="57" y2="57"/><text fill="#000000" font-family="sans-serif" font-size="14" lengthAdjust="spacing" textLength="101.083" x="326.9" y="71.9951">Queue Worker</text></g><!--entity PostgreSQL--><g class="entity" data-qualified-name="DB Server.PostgreSQL" data-source-line="11" id="ent0009"><path d="M332.06,344.59 C332.06,334.59 382.4365,334.59 382.4365,334.59 C382.4365,334.59 432.8129,334.59 432.8129,344.59 L432.8129,369.8869 C432.8129,379.8869 382.4365,379.8869 382.4365,379.8869 C382.4365,379.8869 332.06,379.8869 332.06,369.8869 L332.06,344.59" fill="#F1F1F1" style="stroke:#181818;stroke-width:0.5;"/><path d="M332.06,344.59 C332.06,354.59 382.4365,354.59 382.4365,354.59 C382.4365,354.59 432.8129,354.59 432.8129,344.59" fill="none" style="stroke:#181818;stroke-width:0.5;"/><text fill="#000000" font-family="sans-serif" font-size="14" lengthAdjust="spacing" textLength="80.7529" x="342.06" y="371.5851">PostgreSQL</text></g><!--entity Mail--><g class="entity" data-qualified-name="Mail" data-source-line="13" id="ent0010"><polygon fill="#F1F1F1" points="16,344.09,26,334.09,154.875,334.09,154.875,370.3869,144.875,380.3869,16,380.3869,16,344.09" style="stroke:#181818;stroke-width:0.5;"/><line style="stroke:#181818;stroke-width:0.5;" x1="144.875" x2="154.875" y1="344.09" y2="334.09"/><line style="stroke:#181818;stroke-width:0.5;" x1="16" x2="144.875" y1="344.09" y2="344.09"/><line style="stroke:#181818;stroke-width:0.5;" x1="144.875" x2="144.875" y1="344.09" y2="380.3869"/><text fill="#000000" font-family="sans-serif" font-size="14" lengthAdjust="spacing" textLength="98.875" x="31" y="367.0851">Servicio Email</text></g><!--entity Clima--><g class="entity" data-qualified-name="Clima" data-source-line="14" id="ent0011"><polygon fill="#F1F1F1" points="190.25,344.09,200.25,334.09,296.6201,334.09,296.6201,370.3869,286.6201,380.3869,190.25,380.3869,190.25,344.09" style="stroke:#181818;stroke-width:0.5;"/><line style="stroke:#181818;stroke-width:0.5;" x1="286.6201" x2="296.6201" y1="344.09" y2="334.09"/><line style="stroke:#181818;stroke-width:0.5;" x1="190.25" x2="286.6201" y1="344.09" y2="344.09"/><line style="stroke:#181818;stroke-width:0.5;" x1="286.6201" x2="286.6201" y1="344.09" y2="380.3869"/><text fill="#000000" font-family="sans-serif" font-size="14" lengthAdjust="spacing" textLength="66.3701" x="205.25" y="367.0851">API Clima</text></g><!--link Browser to Laravel App--><g class="link" data-entity-1="ent0003" data-entity-2="ent0005" data-link-type="dependency" data-source-line="16" id="lnk12"><path d="M220.02,85.54 C225.19,112.76 233.5399,156.8155 238.7199,184.0755" fill="none" id="Browser-to-Laravel App" style="stroke:#181818;stroke-width:1;"/><polygon fill="#181818" points="239.84,189.97,242.0895,180.3815,238.9066,185.0579,234.2302,181.8749,239.84,189.97" style="stroke:#181818;stroke-width:1;"/><text fill="#000000" font-family="sans-serif" font-size="13" lengthAdjust="spacing" textLength="41.7485" x="229.44" y="130.3669">HTTPS</text></g><!--link Laravel App to PostgreSQL--><g class="link" data-entity-1="ent0005" data-entity-2="ent0009" data-link-type="dependency" data-source-line="17" id="lnk13"><path d="M261.61,229.94 C287.37,256.86 330.2223,301.6645 357.3923,330.0645" fill="none" id="Laravel App-to-PostgreSQL" style="stroke:#181818;stroke-width:1;"/><polygon fill="#181818" points="361.54,334.4,358.2087,325.1316,358.0836,330.7871,352.4281,330.6619,361.54,334.4" style="stroke:#181818;stroke-width:1;"/><text fill="#000000" font-family="sans-serif" font-size="13" lengthAdjust="spacing" textLength="25.7271" x="305.44" y="274.6569">SQL</text></g><!--link Laravel App to Mail--><g class="link" data-entity-1="ent0005" data-entity-2="ent0010" data-link-type="dependency" data-source-line="18" id="lnk14"><path d="M222.78,229.94 C193.76,256.63 145.407,301.0992 114.407,329.5992" fill="none" id="Laravel App-to-Mail" style="stroke:#181818;stroke-width:1;"/><polygon fill="#181818" points="109.99,333.66,119.3227,330.5135,113.6708,330.276,113.9083,324.6241,109.99,333.66" style="stroke:#181818;stroke-width:1;"/><text fill="#000000" font-family="sans-serif" font-size="13" lengthAdjust="spacing" textLength="35.2485" x="188.44" y="274.6569">SMTP</text></g><!--link Laravel App to Clima--><g class="link" data-entity-1="ent0005" data-entity-2="ent0011" data-link-type="dependency" data-source-line="19" id="lnk15"><path d="M243.44,229.94 C243.44,256.71 243.44,299.44 243.44,327.91" fill="none" id="Laravel App-to-Clima" style="stroke:#181818;stroke-width:1;"/><polygon fill="#181818" points="243.44,333.91,247.44,324.91,243.44,328.91,239.44,324.91,243.44,333.91" style="stroke:#181818;stroke-width:1;"/><text fill="#000000" font-family="sans-serif" font-size="13" lengthAdjust="spacing" textLength="41.7485" x="244.44" y="274.6569">HTTPS</text></g><!--link Queue Worker to PostgreSQL--><g class="link" data-entity-1="ent0007" data-entity-2="ent0009" data-link-type="dependency" data-source-line="20" id="lnk16"><path d="M382.44,85.65 C382.44,137.24 382.44,273.72 382.44,328.45" fill="none" id="Queue Worker-to-PostgreSQL" style="stroke:#181818;stroke-width:1;"/><polygon fill="#181818" points="382.44,334.45,386.44,325.45,382.44,329.45,378.44,325.45,382.44,334.45" style="stroke:#181818;stroke-width:1;"/><text fill="#000000" font-family="sans-serif" font-size="13" lengthAdjust="spacing" textLength="25.7271" x="383.44" y="214.5069">SQL</text></g><!--link Queue Worker to Laravel App--><g class="link" data-entity-1="ent0007" data-entity-2="ent0005" data-link-type="dependency" data-source-line="21" id="lnk17"><path d="M361.6,85.56 C351.44,94.94 339.13,106.54 328.44,117.3 C304.11,141.76 281.221,166.7278 264.331,185.5178" fill="none" id="Queue Worker-to-Laravel App" style="stroke:#181818;stroke-width:1;"/><polygon fill="#181818" points="260.32,189.98,269.3114,185.9607,263.6625,186.2615,263.3617,180.6126,260.32,189.98" style="stroke:#181818;stroke-width:1;"/><text fill="#000000" font-family="sans-serif" font-size="13" lengthAdjust="spacing" textLength="26.8125" x="329.44" y="130.3669">Jobs</text></g><?plantuml-src TOz1Yy8m48Nl-HMFtCNx7WHr5rGKAYrudhQp6goDJ58zYFzzq-oksb9F6VA-D-zDRKk6dbU6QyyQDmMGUFDDXOUUYRqw5gtkgevSod8nfHNiECSOq_EvRrcJq8MhA3riEoj7bd5Q7BXigh2mPzest31-gQVhSuOsxnyloLDEBWY9TNuld6xNlMQ5iVWwaQaqo64JXZzrcYmHRZnH5EAarECyZ4QJRdDyO95bIQgwlv5xIGzOU0QWDheLDraoeCRyPqJd-hSP0rIlyShcxWS0?></g></svg>