<svg xmlns="http://www.w3.org/2000/svg" xmlns:xlink="http://www.w3.org/1999/xlink" contentStyleType="text/css" data-diagram-type="DESCRIPTION" height="499px" preserveAspectRatio="none" style="width:485px;height:499px;background:#FFFFFF;" version="1.1" viewBox="0 0 485 499" width="485px" zoomAndPan="magnify"><defs/><g><!--cluster Gestion Administrativa--><g class="cluster" data-entity="Gestion Administrativa" data-source-line="4" data-uid="ent0004" id="cluster_Gestion Administrativa"><rect fill="none" height="486" rx="2.5" ry="2.5" style="stroke:#181818;stroke-width:1;" width="262.72" x="216.56" y="7"/><text fill="#000000" font-family="sans-serif" font-size="14" font-weight="bold" lengthAdjust="spacing" textLength="181.7197" x="257.0601" y="21.9951">Gestion Administrativa</text></g><!--entity GA1--><g class="entity" data-entity="GA1" data-source-line="5" data-uid="ent0005" id="entity_GA1"><ellipse cx="347.9238" cy="60.0008" fill="#F1F1F1" rx="79.2038" ry="18.2408" style="stroke:#181818;stroke-width:0.5;"/><text fill="#000000" font-family="sans-serif" font-size="14" lengthAdjust="spacing" textLength="128.7959" x="283.5259" y="64.6492">Gestionar Clientes</text></g><!--entity GA2--><g class="entity" data-entity="GA2" data-source-line="6" data-uid="ent0006" id="entity_GA2"><ellipse cx="347.9153" cy="134.0031" fill="#F1F1F1" rx="92.6653" ry="20.9331" style="stroke:#181818;stroke-width:0.5;"/><text fill="#000000" font-family="sans-serif" font-size="14" lengthAdjust="spacing" textLength="159.749" x="268.0408" y="138.6515">Gestionar Proveedores</text></g><!--entity GA3--><g class="entity" data-entity="GA3" data-source-line="7" data-uid="ent0007" id="entity_GA3"><ellipse cx="347.918" cy="211.9976" fill="#F1F1F1" rx="99.288" ry="22.2576" style="stroke:#181818;stroke-width:0.5;"/><text fill="#000000" font-family="sans-serif" font-size="14" lengthAdjust="spacing" textLength="174.4873" x="260.6744" y="216.646">Gestionar Insumos/Stock</text></g><!--entity GA4--><g class="entity" data-entity="GA4" data-source-line="8" data-uid="ent0008" id="entity_GA4"><ellipse cx="347.9171" cy="457.9954" fill="#F1F1F1" rx="80.9271" ry="18.5854" style="stroke:#181818;stroke-width:0.5;"/><text fill="#000000" font-family="sans-serif" font-size="14" lengthAdjust="spacing" textLength="132.8564" x="281.4889" y="462.6439">Gestionar Usuarios</text></g><!--entity GA5--><g class="entity" data-entity="GA5" data-source-line="9" data-uid="ent0009" id="entity_GA5"><ellipse cx="347.92" cy="379.998" fill="#F1F1F1" rx="109.64" ry="24.328" style="stroke:#181818;stroke-width:0.5;"/><text fill="#000000" font-family="sans-serif" font-size="14" lengthAdjust="spacing" textLength="197.1006" x="249.3697" y="384.6464">Configurar Roles y Permisos</text></g><!--entity GA6--><g class="entity" data-entity="GA6" data-source-line="10" data-uid="ent0010" id="entity_GA6"><ellipse cx="347.9198" cy="295.002" fill="#F1F1F1" rx="115.3598" ry="25.472" style="stroke:#181818;stroke-width:0.5;"/><text fill="#000000" font-family="sans-serif" font-size="14" lengthAdjust="spacing" textLength="209.4258" x="243.2069" y="299.6504">Gestionar Catalogos y Precios</text></g><!--entity PA--><g class="entity" data-entity="PA" data-source-line="2" data-uid="ent0002" id="entity_PA"><ellipse cx="89.2822" cy="143.35" fill="#F1F1F1" rx="8" ry="8" style="stroke:#181818;stroke-width:0.5;"/><path d="M89.2822,151.35 L89.2822,178.35 M76.2822,159.35 L102.2822,159.35 M89.2822,178.35 L76.2822,193.35 M89.2822,178.35 L102.2822,193.35" fill="none" style="stroke:#181818;stroke-width:0.5;"/><text fill="#000000" font-family="sans-serif" font-size="14" lengthAdjust="spacing" textLength="166.5645" x="6" y="207.8451">Personal Administrativo</text></g><!--entity Admin--><g class="entity" data-entity="Admin" data-source-line="3" data-uid="ent0003" id="entity_Admin"><ellipse cx="89.28" cy="350.35" fill="#F1F1F1" rx="8" ry="8" style="stroke:#181818;stroke-width:0.5;"/><path d="M89.28,358.35 L89.28,385.35 M76.28,366.35 L102.28,366.35 M89.28,385.35 L76.28,400.35 M89.28,385.35 L102.28,400.35" fill="none" style="stroke:#181818;stroke-width:0.5;"/><text fill="#000000" font-family="sans-serif" font-size="14" lengthAdjust="spacing" textLength="99.0801" x="39.74" y="414.8451">Administrador</text></g><!--link PA to GA1--><g class="link" data-entity-1="PA" data-entity-2="GA1" data-source-line="12" data-uid="lnk11" id="link_PA_GA1"><path d="M141.5,134.49 C161.59,120.79 185.36,106.24 208.56,96 C232.75,85.32 254.908,78.668 279.378,72.938" fill="none" id="PA-to-GA1" style="stroke:#181818;stroke-width:1;"/><polygon fill="#181818" points="285.22,71.57,275.5451,69.7273,280.3517,72.71,277.369,77.5166,285.22,71.57" style="stroke:#181818;stroke-width:1;"/></g><!--link PA to GA2--><g class="link" data-entity-1="PA" data-entity-2="GA2" data-source-line="13" data-uid="lnk12" id="link_PA_GA2"><path d="M172.9,160.45 C204.11,155.7 233.5381,151.2316 264.1981,146.5716" fill="none" id="PA-to-GA2" style="stroke:#181818;stroke-width:1;"/><polygon fill="#181818" points="270.13,145.67,260.6311,143.0678,265.1868,146.4213,261.8332,150.977,270.13,145.67" style="stroke:#181818;stroke-width:1;"/></g><!--link PA to GA3--><g class="link" data-entity-1="PA" data-entity-2="GA3" data-source-line="14" data-uid="lnk13" id="link_PA_GA3"><path d="M172.9,185.55 C202.35,190.03 229.5682,194.1681 258.9682,198.6381" fill="none" id="PA-to-GA3" style="stroke:#181818;stroke-width:1;"/><polygon fill="#181818" points="264.9,199.54,256.6035,194.2326,259.9568,198.7884,255.401,202.1417,264.9,199.54" style="stroke:#181818;stroke-width:1;"/></g><!--link PA to GA6--><g class="link" data-entity-1="PA" data-entity-2="GA6" data-source-line="15" data-uid="lnk14" id="link_PA_GA6"><path d="M141.06,211.58 C161.29,225.69 185.27,240.89 208.56,252 C228.2,261.37 244.6383,267.5358 265.3783,273.9558" fill="none" id="PA-to-GA6" style="stroke:#181818;stroke-width:1;"/><polygon fill="#181818" points="271.11,275.73,263.6953,269.2475,266.3336,274.2515,261.3297,276.8898,271.11,275.73" style="stroke:#181818;stroke-width:1;"/></g><!--link Admin to GA4--><g class="link" data-entity-1="Admin" data-entity-2="GA4" data-source-line="16" data-uid="lnk15" id="link_Admin_GA4"><path d="M139.17,398.43 C160.36,406.14 185.55,414.93 208.56,422 C235.38,430.23 259.661,436.7472 284.921,443.0972" fill="none" id="Admin-to-GA4" style="stroke:#181818;stroke-width:1;"/><polygon fill="#181818" points="290.74,444.56,282.9868,438.4865,285.8909,443.341,281.0364,446.2451,290.74,444.56" style="stroke:#181818;stroke-width:1;"/></g><!--link Admin to GA5--><g class="link" data-entity-1="Admin" data-entity-2="GA5" data-source-line="17" data-uid="lnk16" id="link_Admin_GA5"><path d="M139.16,380 C167.15,380 197.47,380 231.89,380" fill="none" id="Admin-to-GA5" style="stroke:#181818;stroke-width:1;"/><polygon fill="#181818" points="237.89,380,228.89,376,232.89,380,228.89,384,237.89,380" style="stroke:#181818;stroke-width:1;"/></g><!--link Admin to GA6--><g class="link" data-entity-1="Admin" data-entity-2="GA6" data-source-line="18" data-uid="lnk17" id="link_Admin_GA6"><path d="M139.05,362.19 C160.33,354.55 185.61,345.64 208.56,338 C231.24,330.45 250.4077,324.3623 272.7577,317.4523" fill="none" id="Admin-to-GA6" style="stroke:#181818;stroke-width:1;"/><polygon fill="#181818" points="278.49,315.68,268.7101,314.5169,273.7131,317.1569,271.0731,322.1599,278.49,315.68" style="stroke:#181818;stroke-width:1;"/></g><!--SRC=[TP3DQiD038Jl-nJ2zr2Q7nyB9eUGcsdf0mXRSKNNAv3aG2bzzpfBOjVWtcPMtuxGHBeuk81oz-7GibBZB2bWuw9GrAGc2IDKRS-9pHMThr806jJLWvg7hMYUvPTm2yFKHOBYH7RBNUPW0Ty1O31gq6O85OwHAJbP3ZjLp-jKhN8b6dTEu7OTF2SRUh6dDvVcyuxkrj5t6r1P7e7xlzHHqeMxGKViLI8PVC5OKCysuOT_pa77A9ta7sChStuPVa9TmMRpai-Sv7QMkrcM8VTtT_k5EonS-Gi0]--></g></svg>