<?plantuml 1.2026.2beta3?><svg xmlns="http://www.w3.org/2000/svg" xmlns:xlink="http://www.w3.org/1999/xlink" contentStyleType="text/css" data-diagram-type="DESCRIPTION" height="266px" preserveAspectRatio="none" style="width:726px;height:266px;background:#FFFFFF;" version="1.1" viewBox="0 0 726 266" width="726px" zoomAndPan="magnify"><defs/><g><!--cluster Finanzas y Costos--><g class="cluster" data-qualified-name="Finanzas y Costos" data-source-line="4" id="ent0004"><rect fill="none" height="231" rx="2.5" ry="2.5" style="stroke:#181818;stroke-width:1;" width="500.57" x="219.56" y="7"/><text fill="#000000" font-family="sans-serif" font-size="14" font-weight="bold" lengthAdjust="spacing" textLength="141.415" x="399.1375" y="21.9951">Finanzas y Costos</text></g><!--entity FN1--><g class="entity" data-qualified-name="Finanzas y Costos.FN1" data-source-line="5" id="ent0005"><ellipse cx="331.5149" cy="125.997" fill="#F1F1F1" rx="74.2349" ry="17.247" style="stroke:#181818;stroke-width:0.5;"/><text fill="#000000" font-family="sans-serif" font-size="14" lengthAdjust="spacing" textLength="116.8672" x="273.0813" y="130.6454">Registrar Ventas</text></g><!--entity FN2--><g class="entity" data-qualified-name="Finanzas y Costos.FN2" data-source-line="6" id="ent0006"><ellipse cx="633.2944" cy="125.9969" fill="#F1F1F1" rx="70.8344" ry="16.5669" style="stroke:#181818;stroke-width:0.5;"/><text fill="#000000" font-family="sans-serif" font-size="14" lengthAdjust="spacing" textLength="108.4727" x="579.0581" y="130.6453">Calcular Costos</text></g><!--entity FN3--><g class="entity" data-qualified-name="Finanzas y Costos.FN3" data-source-line="7" id="ent0007"><ellipse cx="331.5072" cy="199.9994" fill="#F1F1F1" rx="95.9472" ry="21.5894" style="stroke:#181818;stroke-width:0.5;"/><text fill="#000000" font-family="sans-serif" font-size="14" lengthAdjust="spacing" textLength="167.084" x="247.9653" y="204.6479">Generar Reportes (PDF)</text></g><!--entity FN4--><g class="entity" data-qualified-name="Finanzas y Costos.FN4" data-source-line="8" id="ent0008"><ellipse cx="331.5068" cy="57.9954" fill="#F1F1F1" rx="67.7268" ry="15.9454" style="stroke:#181818;stroke-width:0.5;"/><text fill="#000000" font-family="sans-serif" font-size="14" lengthAdjust="spacing" textLength="100.5908" x="281.2114" y="62.6438">Consultar KPIs</text></g><!--entity PA--><g class="entity" data-qualified-name="PA" data-source-line="2" id="ent0002"><ellipse cx="89.2822" cy="82.35" fill="#F1F1F1" rx="8" ry="8" style="stroke:#181818;stroke-width:0.5;"/><path d="M89.2822,90.35 L89.2822,117.35 M76.2822,98.35 L102.2822,98.35 M89.2822,117.35 L76.2822,132.35 M89.2822,117.35 L102.2822,132.35" fill="none" style="stroke:#181818;stroke-width:0.5;"/><text fill="#000000" font-family="sans-serif" font-size="14" lengthAdjust="spacing" textLength="166.5645" x="6" y="146.8451">Personal Administrativo</text></g><!--entity Admin--><g class="entity" data-qualified-name="Admin" data-source-line="3" id="ent0003"><ellipse cx="89.28" cy="193.35" fill="#F1F1F1" rx="8" ry="8" style="stroke:#181818;stroke-width:0.5;"/><path d="M89.28,201.35 L89.28,228.35 M76.28,209.35 L102.28,209.35 M89.28,228.35 L76.28,243.35 M89.28,228.35 L102.28,243.35" fill="none" style="stroke:#181818;stroke-width:0.5;"/><text fill="#000000" font-family="sans-serif" font-size="14" lengthAdjust="spacing" textLength="99.0801" x="39.74" y="257.8451">Administrador</text></g><!--link PA to FN1--><g class="link" data-entity-1="ent0002" data-entity-2="ent0005" data-link-type="dependency" data-source-line="10" id="lnk9"><path d="M172.96,116.82 C200.91,118.45 225.8902,119.8999 252.9202,121.4799" fill="none" id="PA-to-FN1" style="stroke:#181818;stroke-width:1;"/><polygon fill="#181818" points="258.91,121.83,250.1588,117.3116,253.9185,121.5382,249.6919,125.298,258.91,121.83" style="stroke:#181818;stroke-width:1;"/></g><!--link PA to FN3--><g class="link" data-entity-1="ent0002" data-entity-2="ent0007" data-link-type="dependency" data-source-line="11" id="lnk10"><path d="M172.85,146.22 C185.75,151.32 198.98,156.4 211.56,161 C231.77,168.39 248.4325,174.0393 268.2625,180.4693" fill="none" id="PA-to-FN3" style="stroke:#181818;stroke-width:1;"/><polygon fill="#181818" points="273.97,182.32,266.6426,175.739,269.2138,180.7778,264.175,183.349,273.97,182.32" style="stroke:#181818;stroke-width:1;"/></g><!--link PA to FN4--><g class="link" data-entity-1="ent0002" data-entity-2="ent0008" data-link-type="dependency" data-source-line="12" id="lnk11"><path d="M172.96,93.42 C209.06,85.3 244.3161,77.3761 275.4961,70.3661" fill="none" id="PA-to-FN4" style="stroke:#181818;stroke-width:1;"/><polygon fill="#181818" points="281.35,69.05,271.6918,67.1215,276.4718,70.1467,273.4466,74.9267,281.35,69.05" style="stroke:#181818;stroke-width:1;"/></g><!--link Admin to FN3--><g class="link" data-entity-1="ent0003" data-entity-2="ent0007" data-link-type="dependency" data-source-line="13" id="lnk12"><path d="M139.19,218.32 C168.96,215.47 201.8872,212.3108 236.8372,208.9708" fill="none" id="Admin-to-FN3" style="stroke:#181818;stroke-width:1;"/><polygon fill="#181818" points="242.81,208.4,233.4703,205.2743,237.8327,208.8757,234.2313,213.238,242.81,208.4" style="stroke:#181818;stroke-width:1;"/></g><!--link FN1 to FN2--><g class="link" data-entity-1="ent0005" data-entity-2="ent0006" data-link-type="dependency" data-source-line="14" id="lnk13"><path d="M406.23,126 C453.82,126 509.36,126 556.21,126" fill="none" id="FN1-to-FN2" style="stroke:#181818;stroke-width:1;stroke-dasharray:7,7;"/><polygon fill="#181818" points="562.21,126,553.21,122,557.21,126,553.21,130,562.21,126" style="stroke:#181818;stroke-width:1;"/><text fill="#000000" font-family="sans-serif" font-size="13" lengthAdjust="spacing" textLength="73.6963" x="458.46" y="122.0669">automatico</text></g><?plantuml-src LP11ImCn44Rl-HN3dkoX1TkUF0XBPKK42JtqFcJ7DP3EI6PMKEb_RpQuRRrzv3rUI1Az6vX0ZiE7GHyp1Ol23eD9XiPJLc5CqFR7o54jeyKlQG0LV3jRLzXBhgoUk2c6F2I2fekC_5F8D-n4JRI1NmSmAWNKmlSqr4260x6XrahtTd_hx325CHLbBbHbVQiy4zCKsTEdP2E5E__KBVxCpR-Oi8x9YllgN-RMrfsSRs6vVAntN-RcEhUklkq2YWUhrRJNy00ucXpB5mKv0m00?></g></svg>