<?plantuml 1.2026.2beta3?><svg xmlns="http://www.w3.org/2000/svg" xmlns:xlink="http://www.w3.org/1999/xlink" contentStyleType="text/css" data-diagram-type="DESCRIPTION" height="383px" preserveAspectRatio="none" style="width:655px;height:383px;background:#FFFFFF;" version="1.1" viewBox="0 0 655 383" width="655px" zoomAndPan="magnify"><defs/><g><!--cluster PC Desarrollo--><g class="cluster" data-qualified-name="PC Desarrollo" data-source-line="1" id="ent0002"><polygon fill="none" points="16,16,26,6,302,6,302,356.39,292,366.39,16,366.39,16,16" style="stroke:#181818;stroke-width:1;"/><line style="stroke:#181818;stroke-width:1;" x1="292" x2="302" y1="16" y2="6"/><line style="stroke:#181818;stroke-width:1;" x1="16" x2="292" y1="16" y2="16"/><line style="stroke:#181818;stroke-width:1;" x1="292" x2="292" y1="16" y2="366.39"/><text fill="#000000" font-family="sans-serif" font-size="14" font-weight="bold" lengthAdjust="spacing" textLength="106.9482" x="101.5259" y="31.9951">PC Desarrollo</text></g><!--cluster Servicios Externos--><g class="cluster" data-qualified-name="Servicios Externos" data-source-line="7" id="ent0007"><polygon fill="none" points="326,274.59,336,264.59,638,264.59,638,356.89,628,366.89,326,366.89,326,274.59" style="stroke:#181818;stroke-width:1;"/><line style="stroke:#181818;stroke-width:1;" x1="628" x2="638" y1="274.59" y2="264.59"/><line style="stroke:#181818;stroke-width:1;" x1="326" x2="628" y1="274.59" y2="274.59"/><line style="stroke:#181818;stroke-width:1;" x1="628" x2="628" y1="274.59" y2="366.89"/><text fill="#000000" font-family="sans-serif" font-size="14" font-weight="bold" lengthAdjust="spacing" textLength="145.9336" x="405.0332" y="290.5851">Servicios Externos</text></g><!--entity Browser--><g class="entity" data-qualified-name="PC Desarrollo.Browser" data-source-line="2" id="ent0003"><rect fill="#F1F1F1" height="39.2969" rx="2.5" ry="2.5" style="stroke:#181818;stroke-width:0.5;" width="87.0391" x="198.48" y="46"/><polygon fill="#F1F1F1" points="268.5191,51,268.5191,65,280.5191,65,280.5191,57,274.5191,51,268.5191,51" style="stroke:#181818;stroke-width:0.5;"/><line style="stroke:#181818;stroke-width:0.5;" x1="274.5191" x2="274.5191" y1="51" y2="57"/><line style="stroke:#181818;stroke-width:0.5;" x1="280.5191" x2="274.5191" y1="57" y2="57"/><text fill="#000000" font-family="sans-serif" font-size="14" lengthAdjust="spacing" textLength="57.0391" x="208.48" y="71.9951">Browser</text></g><!--entity Laravel App--><g class="entity" data-qualified-name="PC Desarrollo.Laravel App" data-source-line="3" id="ent0004"><rect fill="#F1F1F1" height="39.2969" rx="2.5" ry="2.5" style="stroke:#181818;stroke-width:0.5;" width="113.3027" x="172.35" y="162.3"/><polygon fill="#F1F1F1" points="268.6527,167.3,268.6527,181.3,280.6527,181.3,280.6527,173.3,274.6527,167.3,268.6527,167.3" style="stroke:#181818;stroke-width:0.5;"/><line style="stroke:#181818;stroke-width:0.5;" x1="274.6527" x2="274.6527" y1="167.3" y2="173.3"/><line style="stroke:#181818;stroke-width:0.5;" x1="280.6527" x2="274.6527" y1="173.3" y2="173.3"/><text fill="#000000" font-family="sans-serif" font-size="14" lengthAdjust="spacing" textLength="83.3027" x="182.35" y="188.2951">Laravel App</text></g><!--entity Queue Worker--><g class="entity" data-qualified-name="PC Desarrollo.Queue Worker" data-source-line="4" id="ent0005"><rect fill="#F1F1F1" height="39.2969" rx="2.5" ry="2.5" style="stroke:#181818;stroke-width:0.5;" width="131.083" x="32.46" y="46"/><polygon fill="#F1F1F1" points="146.543,51,146.543,65,158.543,65,158.543,57,152.543,51,146.543,51" style="stroke:#181818;stroke-width:0.5;"/><line style="stroke:#181818;stroke-width:0.5;" x1="152.543" x2="152.543" y1="51" y2="57"/><line style="stroke:#181818;stroke-width:0.5;" x1="158.543" x2="152.543" y1="57" y2="57"/><text fill="#000000" font-family="sans-serif" font-size="14" lengthAdjust="spacing" textLength="101.083" x="42.46" y="71.9951">Queue Worker</text></g><!--entity PostgreSQL Local--><g class="entity" data-qualified-name="PC Desarrollo.PostgreSQL Local" data-source-line="5" id="ent0006"><path d="M95.13,315.09 C95.13,305.09 165.9972,305.09 165.9972,305.09 C165.9972,305.09 236.8644,305.09 236.8644,315.09 L236.8644,340.3869 C236.8644,350.3869 165.9972,350.3869 165.9972,350.3869 C165.9972,350.3869 95.13,350.3869 95.13,340.3869 L95.13,315.09" fill="#F1F1F1" style="stroke:#181818;stroke-width:0.5;"/><path d="M95.13,315.09 C95.13,325.09 165.9972,325.09 165.9972,325.09 C165.9972,325.09 236.8644,325.09 236.8644,315.09" fill="none" style="stroke:#181818;stroke-width:0.5;"/><text fill="#000000" font-family="sans-serif" font-size="14" lengthAdjust="spacing" textLength="121.7344" x="105.13" y="342.0851">PostgreSQL Local</text></g><!--entity Mail--><g class="entity" data-qualified-name="Servicios Externos.Mail" data-source-line="8" id="ent0008"><polygon fill="#F1F1F1" points="341.56,314.59,351.56,304.59,480.435,304.59,480.435,340.8869,470.435,350.8869,341.56,350.8869,341.56,314.59" style="stroke:#181818;stroke-width:0.5;"/><line style="stroke:#181818;stroke-width:0.5;" x1="470.435" x2="480.435" y1="314.59" y2="304.59"/><line style="stroke:#181818;stroke-width:0.5;" x1="341.56" x2="470.435" y1="314.59" y2="314.59"/><line style="stroke:#181818;stroke-width:0.5;" x1="470.435" x2="470.435" y1="314.59" y2="350.8869"/><text fill="#000000" font-family="sans-serif" font-size="14" lengthAdjust="spacing" textLength="98.875" x="356.56" y="337.5851">Servicio Email</text></g><!--entity Clima--><g class="entity" data-qualified-name="Servicios Externos.Clima" data-source-line="9" id="ent0009"><polygon fill="#F1F1F1" points="515.81,314.59,525.81,304.59,622.1801,304.59,622.1801,340.8869,612.1801,350.8869,515.81,350.8869,515.81,314.59" style="stroke:#181818;stroke-width:0.5;"/><line style="stroke:#181818;stroke-width:0.5;" x1="612.1801" x2="622.1801" y1="314.59" y2="304.59"/><line style="stroke:#181818;stroke-width:0.5;" x1="515.81" x2="612.1801" y1="314.59" y2="314.59"/><line style="stroke:#181818;stroke-width:0.5;" x1="612.1801" x2="612.1801" y1="314.59" y2="350.8869"/><text fill="#000000" font-family="sans-serif" font-size="14" lengthAdjust="spacing" textLength="66.3701" x="530.81" y="337.5851">API Clima</text></g><!--link Browser to Laravel App--><g class="link" data-entity-1="ent0003" data-entity-2="ent0004" data-link-type="dependency" data-source-line="12" id="lnk10"><path d="M239.82,85.78 C237.41,107 234.2184,135.0785 231.8184,156.1685" fill="none" id="Browser-to-Laravel App" style="stroke:#181818;stroke-width:1;"/><polygon fill="#181818" points="231.14,162.13,236.132,153.64,231.7053,157.1621,228.1833,152.7354,231.14,162.13" style="stroke:#181818;stroke-width:1;"/><text fill="#000000" font-family="sans-serif" font-size="13" lengthAdjust="spacing" textLength="33.4966" x="237" y="128.3669">HTTP</text></g><!--link Laravel App to PostgreSQL Local--><g class="link" data-entity-1="ent0004" data-entity-2="ent0006" data-link-type="dependency" data-source-line="13" id="lnk11"><path d="M215.51,201.74 C209.61,210.52 202.92,221.29 198,231.59 C186.5,255.65 178.9439,279.1639 173.4139,298.8339" fill="none" id="Laravel App-to-PostgreSQL Local" style="stroke:#181818;stroke-width:1;"/><polygon fill="#181818" points="171.79,304.61,178.0765,297.0285,173.1432,299.7966,170.3751,294.8633,171.79,304.61" style="stroke:#181818;stroke-width:1;"/><text fill="#000000" font-family="sans-serif" font-size="13" lengthAdjust="spacing" textLength="25.7271" x="199" y="244.6569">SQL</text></g><!--link Queue Worker to PostgreSQL Local--><g class="link" data-entity-1="ent0005" data-entity-2="ent0006" data-link-type="dependency" data-source-line="14" id="lnk12"><path d="M101.73,85.53 C107,111.73 117.21,160.51 128,201.59 C137.57,238.05 148.863,274.1414 156.913,299.0214" fill="none" id="Queue Worker-to-PostgreSQL Local" style="stroke:#181818;stroke-width:1;"/><polygon fill="#181818" points="158.76,304.73,159.7952,294.9357,157.2208,299.9728,152.1837,297.3984,158.76,304.73" style="stroke:#181818;stroke-width:1;"/><text fill="#000000" font-family="sans-serif" font-size="13" lengthAdjust="spacing" textLength="25.7271" x="129" y="186.5069">SQL</text></g><!--link Queue Worker to Laravel App--><g class="link" data-entity-1="ent0005" data-entity-2="ent0004" data-link-type="dependency" data-source-line="15" id="lnk13"><path d="M119.93,85.78 C144.25,107 178.7383,137.0961 202.9183,158.1861" fill="none" id="Queue Worker-to-Laravel App" style="stroke:#181818;stroke-width:1;"/><polygon fill="#181818" points="207.44,162.13,203.2867,153.1997,203.6719,158.8434,198.0282,159.2287,207.44,162.13" style="stroke:#181818;stroke-width:1;"/><text fill="#000000" font-family="sans-serif" font-size="13" lengthAdjust="spacing" textLength="26.8125" x="173" y="128.3669">Jobs</text></g><!--link Laravel App to Mail--><g class="link" data-entity-1="ent0004" data-entity-2="ent0008" data-link-type="dependency" data-source-line="16" id="lnk14"><path d="M253.17,202.04 C286.62,228.47 342.2317,272.4109 377.8317,300.5309" fill="none" id="Laravel App-to-Mail" style="stroke:#181818;stroke-width:1;"/><polygon fill="#181818" points="382.54,304.25,377.9569,295.5325,378.6164,301.1508,372.9981,301.8103,382.54,304.25" style="stroke:#181818;stroke-width:1;"/><text fill="#000000" font-family="sans-serif" font-size="13" lengthAdjust="spacing" textLength="35.2485" x="310" y="244.6569">SMTP</text></g><!--link Laravel App to Clima--><g class="link" data-entity-1="ent0004" data-entity-2="ent0009" data-link-type="dependency" data-source-line="17" id="lnk15"><path d="M286.07,189.96 C342.87,198.85 431,217.94 498,256.59 C519.16,268.8 534.6742,284.2598 547.8242,299.7998" fill="none" id="Laravel App-to-Clima" style="stroke:#181818;stroke-width:1;"/><polygon fill="#181818" points="551.7,304.38,548.9398,294.9258,548.4702,300.5632,542.8329,300.0935,551.7,304.38" style="stroke:#181818;stroke-width:1;"/><text fill="#000000" font-family="sans-serif" font-size="13" lengthAdjust="spacing" textLength="41.7485" x="479" y="244.6569">HTTPS</text></g><?plantuml-src bO_DYW8n48JlUOeYTr_0mu9_uCe88oDuRiTs2SPfwSGV4D_TcIX2rClUEbsLhgyQsJ1iESAO0wcAzs9nDG1fT5kg8-nGvHnORROiIEd47eF38HSMHpuoLgAxnvSDHLfJw48an3_bQb6Wa9gyDJVJfFYAzUHg9m6JIsHj93mOSXMJFJblGG7pTdZfW_8N8-_sbAGqjPVDYnkztayEZ3wcosLfycMoVK2stlPXybx_zxx5psGTliHtlReZywzmgTgJlRe3?></g></svg>